<svg width="512" height="512" viewBox="0 0 512 512" fill="none" xmlns="http://www.w3.org/2000/svg">
<path d="M260.319 339H130.319L105.519 399H39.1187L163.919 119H227.919L353.119 399H285.119L260.319 339ZM239.919 289.8L195.519 182.6L151.119 289.8H239.919ZM377.769 183.8H440.169V399H377.769V183.8ZM408.969 153.8C397.502 153.8 388.169 150.467 380.969 143.8C373.769 137.133 370.169 128.867 370.169 119C370.169 109.133 373.769 100.867 380.969 94.2C388.169 87.5333 397.502 84.2 408.969 84.2C420.435 84.2 429.769 87.4 436.969 93.8C444.169 100.2 447.769 108.2 447.769 117.8C447.769 128.2 444.169 136.867 436.969 143.8C429.769 150.467 420.435 153.8 408.969 153.8Z" fill="white"/>
<ellipse cx="409" cy="119" rx="40" ry="37" fill="#DE1A1A"/>
</svg>
