<svg width="16" height="16" viewBox="0 0 16 16" fill="none" xmlns="http://www.w3.org/2000/svg">
<path d="M8.15116 10.9H3.60116L2.73316 13H0.409156L4.77716 3.2H7.01716L11.3992 13H9.01916L8.15116 10.9ZM7.43716 9.178L5.88316 5.426L4.32916 9.178H7.43716ZM12.2619 5.468H14.4459V13H12.2619V5.468ZM13.3539 4.418C12.9526 4.418 12.6259 4.30133 12.3739 4.068C12.1219 3.83467 11.9959 3.54533 11.9959 3.2C11.9959 2.85467 12.1219 2.56533 12.3739 2.332C12.6259 2.09867 12.9526 1.982 13.3539 1.982C13.7552 1.982 14.0819 2.094 14.3339 2.318C14.5859 2.542 14.7119 2.822 14.7119 3.158C14.7119 3.522 14.5859 3.82533 14.3339 4.068C14.0819 4.30133 13.7552 4.418 13.3539 4.418Z" fill="black"/>
<circle cx="13.35" cy="3.20005" r="1.4" fill="#DE1A1A"/>
</svg>
