<svg width="1441" height="300" viewBox="0 0 1441 300" fill="none" xmlns="http://www.w3.org/2000/svg">
<path d="M1330.51 299.2C1309.45 299.2 1290.51 294.533 1273.71 285.2C1256.91 275.866 1243.71 263.066 1234.11 246.8C1224.78 230.266 1220.11 211.6 1220.11 190.8C1220.11 170 1224.78 151.466 1234.11 135.2C1243.71 118.666 1256.91 105.866 1273.71 96.7998C1290.51 87.4665 1309.45 82.7998 1330.51 82.7998C1351.58 82.7998 1370.38 87.4665 1386.91 96.7998C1403.71 105.866 1416.78 118.666 1426.11 135.2C1435.71 151.466 1440.51 170 1440.51 190.8C1440.51 211.6 1435.71 230.266 1426.11 246.8C1416.78 263.066 1403.71 275.866 1386.91 285.2C1370.38 294.533 1351.58 299.2 1330.51 299.2ZM1330.51 265.6C1344.11 265.6 1356.25 262.533 1366.91 256.4C1377.85 250 1386.38 241.2 1392.51 230C1398.65 218.533 1401.71 205.466 1401.71 190.8C1401.71 176.133 1398.65 163.2 1392.51 152C1386.38 140.533 1377.85 131.733 1366.91 125.6C1356.25 119.466 1344.11 116.4 1330.51 116.4C1316.91 116.4 1304.65 119.466 1293.71 125.6C1283.05 131.733 1274.51 140.533 1268.11 152C1261.98 163.2 1258.91 176.133 1258.91 190.8C1258.91 205.466 1261.98 218.533 1268.11 230C1274.51 241.2 1283.05 250 1293.71 256.4C1304.65 262.533 1316.91 265.6 1330.51 265.6Z" fill="white"/>
<path d="M1186.39 192C1186.39 194.933 1186.12 198.8 1185.59 203.6H1013.59C1015.99 222.266 1024.12 237.333 1037.99 248.8C1052.12 260 1069.59 265.6 1090.39 265.6C1115.72 265.6 1136.12 257.066 1151.59 240L1172.79 264.8C1163.19 276 1151.19 284.533 1136.79 290.4C1122.66 296.266 1106.79 299.2 1089.19 299.2C1066.79 299.2 1046.92 294.666 1029.59 285.6C1012.26 276.266 998.791 263.333 989.191 246.8C979.857 230.266 975.191 211.6 975.191 190.8C975.191 170.266 979.724 151.733 988.791 135.2C998.124 118.666 1010.79 105.866 1026.79 96.7998C1043.06 87.4665 1061.32 82.7998 1081.59 82.7998C1101.86 82.7998 1119.86 87.4665 1135.59 96.7998C1151.59 105.866 1163.99 118.666 1172.79 135.2C1181.86 151.733 1186.39 170.666 1186.39 192ZM1081.59 115.2C1063.19 115.2 1047.72 120.8 1035.19 132C1022.92 143.2 1015.72 157.866 1013.59 176H1149.59C1147.46 158.133 1140.12 143.6 1127.59 132.4C1115.32 120.933 1099.99 115.2 1081.59 115.2Z" fill="white"/>
<path d="M855.2 299.2C837.867 299.2 821.2 296.933 805.2 292.4C789.2 287.6 776.667 281.6 767.6 274.4L783.6 244C792.933 250.666 804.267 256 817.6 260C830.933 264 844.4 266 858 266C891.6 266 908.4 256.4 908.4 237.2C908.4 230.8 906.133 225.733 901.6 222C897.067 218.266 891.333 215.6 884.4 214C877.733 212.133 868.133 210.133 855.6 208C838.533 205.333 824.533 202.266 813.6 198.8C802.933 195.333 793.733 189.466 786 181.2C778.267 172.933 774.4 161.333 774.4 146.4C774.4 127.2 782.4 111.866 798.4 100.4C814.4 88.6665 835.867 82.7998 862.8 82.7998C876.933 82.7998 891.067 84.5331 905.2 87.9998C919.333 91.4665 930.933 96.1331 940 102L923.6 132.4C906.267 121.2 885.867 115.6 862.4 115.6C846.133 115.6 833.733 118.266 825.2 123.6C816.667 128.933 812.4 136 812.4 144.8C812.4 151.733 814.8 157.2 819.6 161.2C824.4 165.2 830.267 168.133 837.2 170C844.4 171.866 854.4 174 867.2 176.4C884.267 179.333 898 182.533 908.4 186C919.067 189.2 928.133 194.8 935.6 202.8C943.067 210.8 946.8 222 946.8 236.4C946.8 255.6 938.533 270.933 922 282.4C905.733 293.6 883.467 299.2 855.2 299.2Z" fill="white"/>
<path d="M632.537 82.7998C661.871 82.7998 684.271 89.9998 699.737 104.4C715.471 118.8 723.338 140.266 723.338 168.8V296.8H686.938V268.8C680.538 278.666 671.338 286.266 659.338 291.6C647.604 296.666 633.604 299.2 617.338 299.2C593.604 299.2 574.538 293.466 560.138 282C546.004 270.533 538.938 255.466 538.938 236.8C538.938 218.133 545.738 203.2 559.338 192C572.938 180.533 594.538 174.8 624.138 174.8H684.938V167.2C684.938 150.666 680.137 138 670.537 129.2C660.937 120.4 646.804 116 628.138 116C615.604 116 603.338 118.133 591.338 122.4C579.338 126.4 569.204 131.866 560.938 138.8L544.938 110C555.871 101.2 568.938 94.5331 584.138 89.9998C599.338 85.1998 615.471 82.7998 632.537 82.7998ZM623.737 269.6C638.404 269.6 651.071 266.4 661.737 260C672.404 253.333 680.137 244 684.938 232V202.4H625.737C593.204 202.4 576.938 213.333 576.938 235.2C576.938 245.866 581.071 254.266 589.338 260.4C597.604 266.533 609.071 269.6 623.737 269.6Z" fill="white"/>
<path d="M396.272 82.8C423.205 82.8 444.539 90.6667 460.272 106.4C476.272 121.867 484.272 144.667 484.272 174.8V296.8H445.872V179.2C445.872 158.667 440.939 143.2 431.072 132.8C421.205 122.4 407.072 117.2 388.672 117.2C367.872 117.2 351.472 123.333 339.472 135.6C327.472 147.6 321.472 164.933 321.472 187.6V296.8H283.072V0H321.472V114.8C329.472 104.667 339.872 96.8 352.672 91.2C365.739 85.6 380.272 82.8 396.272 82.8Z" fill="white"/>
<path d="M40 296.8H0V16.7998H40V296.8ZM109.2 16.7998C145.467 16.7998 174 25.4666 194.8 42.7998C215.6 60.1331 226 83.9996 226 114.399C226 144.799 215.6 168.667 194.8 186C174 203.333 145.467 212 109.2 212H60V177.2H108C133.333 177.2 152.667 171.867 166 161.2C179.333 150.267 186 134.666 186 114.399C186 94.133 179.333 78.6666 166 68C152.667 57.0667 133.333 51.5996 108 51.5996H60V16.7998H109.2Z" fill="white"/>
</svg>
