<svg width="65" height="20" viewBox="0 0 65 20" fill="none" xmlns="http://www.w3.org/2000/svg">
<path d="M9.16494 13.6H3.96494L2.97294 16H0.316937L5.30894 4.8H7.86894L12.8769 16H10.1569L9.16494 13.6ZM8.34894 11.632L6.57294 7.344L4.79694 11.632H8.34894ZM13.8629 7.392H16.3589V16H13.8629V7.392ZM15.1109 6.192C14.6523 6.192 14.2789 6.05867 13.9909 5.792C13.7029 5.52533 13.5589 5.19467 13.5589 4.8C13.5589 4.40533 13.7029 4.07467 13.9909 3.808C14.2789 3.54133 14.6523 3.408 15.1109 3.408C15.5696 3.408 15.9429 3.536 16.2309 3.792C16.5189 4.048 16.6629 4.368 16.6629 4.752C16.6629 5.168 16.5189 5.51467 16.2309 5.792C15.9429 6.05867 15.5696 6.192 15.1109 6.192ZM27.0627 16.192C26.1774 16.192 25.3187 16.0747 24.4867 15.84C23.6654 15.5947 23.004 15.28 22.5027 14.896L23.3827 12.944C23.8627 13.296 24.4334 13.5787 25.0947 13.792C25.756 14.0053 26.4174 14.112 27.0787 14.112C27.8147 14.112 28.3587 14.0053 28.7107 13.792C29.0627 13.568 29.2387 13.2747 29.2387 12.912C29.2387 12.6453 29.132 12.4267 28.9187 12.256C28.716 12.0747 28.4494 11.9307 28.1187 11.824C27.7987 11.7173 27.3614 11.6 26.8067 11.472C25.9534 11.2693 25.2547 11.0667 24.7107 10.864C24.1667 10.6613 23.6974 10.336 23.3027 9.888C22.9187 9.44 22.7267 8.84267 22.7267 8.096C22.7267 7.44533 22.9027 6.85867 23.2547 6.336C23.6067 5.80267 24.1347 5.38133 24.8387 5.072C25.5534 4.76267 26.4227 4.608 27.4467 4.608C28.1614 4.608 28.86 4.69333 29.5427 4.864C30.2254 5.03467 30.8227 5.28 31.3347 5.6L30.5347 7.568C29.5 6.98133 28.4654 6.688 27.4307 6.688C26.7054 6.688 26.1667 6.80533 25.8147 7.04C25.4734 7.27467 25.3027 7.584 25.3027 7.968C25.3027 8.352 25.5 8.64 25.8947 8.832C26.3 9.01333 26.9134 9.19467 27.7347 9.376C28.588 9.57867 29.2867 9.78133 29.8307 9.984C30.3747 10.1867 30.8387 10.5067 31.2227 10.944C31.6174 11.3813 31.8147 11.9733 31.8147 12.72C31.8147 13.36 31.6334 13.9467 31.2707 14.48C30.9187 15.0027 30.3854 15.4187 29.6707 15.728C28.956 16.0373 28.0867 16.192 27.0627 16.192ZM38.9618 15.584C38.7165 15.7653 38.4125 15.904 38.0498 16C37.6978 16.0853 37.3245 16.128 36.9298 16.128C35.9058 16.128 35.1111 15.8667 34.5458 15.344C33.9911 14.8213 33.7138 14.0533 33.7138 13.04V9.504H32.3858V7.584H33.7138V5.488H36.2098V7.584H38.3538V9.504H36.2098V13.008C36.2098 13.3707 36.3005 13.6533 36.4818 13.856C36.6738 14.048 36.9405 14.144 37.2818 14.144C37.6765 14.144 38.0125 14.0373 38.2898 13.824L38.9618 15.584ZM43.8349 7.264C45.1683 7.264 46.1923 7.584 46.9069 8.224C47.6216 8.85333 47.9789 9.808 47.9789 11.088V16H45.6429V14.928C45.1736 15.728 44.2989 16.128 43.0189 16.128C42.3576 16.128 41.7816 16.016 41.2909 15.792C40.8109 15.568 40.4429 15.2587 40.1869 14.864C39.9309 14.4693 39.8029 14.0213 39.8029 13.52C39.8029 12.72 40.1016 12.0907 40.6989 11.632C41.3069 11.1733 42.2403 10.944 43.4989 10.944H45.4829C45.4829 10.4 45.3176 9.984 44.9869 9.696C44.6563 9.39733 44.1603 9.248 43.4989 9.248C43.0403 9.248 42.5869 9.32267 42.1389 9.472C41.7016 9.61067 41.3283 9.80267 41.0189 10.048L40.1229 8.304C40.5923 7.97333 41.1523 7.71733 41.8029 7.536C42.4643 7.35467 43.1416 7.264 43.8349 7.264ZM43.6429 14.448C44.0696 14.448 44.4483 14.352 44.7789 14.16C45.1096 13.9573 45.3443 13.664 45.4829 13.28V12.4H43.7709C42.7469 12.4 42.2349 12.736 42.2349 13.408C42.2349 13.728 42.3576 13.984 42.6029 14.176C42.8589 14.3573 43.2056 14.448 43.6429 14.448ZM55.7899 15.584C55.5446 15.7653 55.2406 15.904 54.8779 16C54.5259 16.0853 54.1526 16.128 53.7579 16.128C52.7339 16.128 51.9393 15.8667 51.3739 15.344C50.8193 14.8213 50.5419 14.0533 50.5419 13.04V9.504H49.2139V7.584H50.5419V5.488H53.0379V7.584H55.1819V9.504H53.0379V13.008C53.0379 13.3707 53.1286 13.6533 53.3099 13.856C53.5019 14.048 53.7686 14.144 54.1099 14.144C54.5046 14.144 54.8406 14.0373 55.1179 13.824L55.7899 15.584ZM60.0871 16.128C59.3724 16.128 58.6737 16.0427 57.9911 15.872C57.3084 15.6907 56.7644 15.4667 56.3591 15.2L57.1911 13.408C57.5751 13.6533 58.0391 13.856 58.5831 14.016C59.1271 14.1653 59.6604 14.24 60.1831 14.24C61.2391 14.24 61.7671 13.9787 61.7671 13.456C61.7671 13.2107 61.6231 13.0347 61.3351 12.928C61.0471 12.8213 60.6044 12.7307 60.0071 12.656C59.3031 12.5493 58.7217 12.4267 58.2631 12.288C57.8044 12.1493 57.4044 11.904 57.0631 11.552C56.7324 11.2 56.5671 10.6987 56.5671 10.048C56.5671 9.504 56.7217 9.024 57.0311 8.608C57.3511 8.18133 57.8097 7.85067 58.4071 7.616C59.0151 7.38133 59.7297 7.264 60.5511 7.264C61.1591 7.264 61.7617 7.33333 62.3591 7.472C62.9671 7.6 63.4684 7.78133 63.8631 8.016L63.0311 9.792C62.2737 9.36533 61.4471 9.152 60.5511 9.152C60.0177 9.152 59.6177 9.22667 59.3511 9.376C59.0844 9.52533 58.9511 9.71733 58.9511 9.952C58.9511 10.2187 59.0951 10.4053 59.3831 10.512C59.6711 10.6187 60.1297 10.72 60.7591 10.816C61.4631 10.9333 62.0391 11.0613 62.4871 11.2C62.9351 11.328 63.3244 11.568 63.6551 11.92C63.9857 12.272 64.1511 12.7627 64.1511 13.392C64.1511 13.9253 63.9911 14.4 63.6711 14.816C63.3511 15.232 62.8817 15.5573 62.2631 15.792C61.6551 16.016 60.9297 16.128 60.0871 16.128Z" fill="white"/>
<circle cx="15.125" cy="4.625" r="1.625" fill="#DE1A1A"/>
</svg>
