<svg width="40" height="40" viewBox="0 0 40 40" fill="none" xmlns="http://www.w3.org/2000/svg">
<path d="M19.0773 34.0986C22.0431 34.0986 24.7312 33.149 26.7879 31.3683L27.0249 31.1703V33.9006H35.5261V28.6769H32.9954V11.4216H35.5261V6.19805H27.0249V8.84884L26.7879 8.65074C24.6906 6.94964 22.0414 6 19.0773 6C11.326 6 5 12.2917 5 20.0493C5 27.8069 11.326 34.0986 19.0773 34.0986ZM19.0773 28.5178C14.412 28.5178 10.615 24.6788 10.615 20.0087C10.615 15.3385 14.4103 11.5401 19.0773 11.5401C21.2915 11.5401 23.4261 12.4508 25.0088 14.0335C26.5899 15.6568 27.46 17.754 27.46 20.0087C27.46 24.6788 23.7037 28.5178 19.0773 28.5178Z" fill="black"/>
</svg>
