<?xml version="1.0" encoding="UTF-8" standalone="no"?>
<!-- Created with Inkscape (http://www.inkscape.org/) -->

<svg
   width="16mm"
   height="13.938828mm"
   viewBox="0 0 16 13.938828"
   version="1.1"
   id="svg1"
   xml:space="preserve"
   xmlns="http://www.w3.org/2000/svg"
   xmlns:svg="http://www.w3.org/2000/svg"><defs
     id="defs1" /><g
     id="layer1"
     transform="translate(-0.99999915,-1.0000001)"><g
       id="g1"
       transform="matrix(0.19659463,0,0,0.19659463,-10.734604,-6.9282788)"><path
         style="fill:#82c9c7"
         d="m 127.10633,75.775251 c 0,-19.499792 0.0298,-35.45103 0.0661,-35.447196 0.0364,0.0038 3.16177,0.817136 6.94531,1.80734 l 6.87916,1.80037 0.0672,31.714291 c 0.037,17.442861 -0.0226,31.803594 -0.13229,31.912734 -0.17029,0.16937 -13.20162,3.66663 -13.66244,3.66663 -0.0897,0 -0.16312,-15.954378 -0.16312,-35.454169 z m -67.403685,0.06615 c -0.04438,-21.70307 0.0216,-31.816146 0.207573,-31.816146 0.523862,0 5.830113,1.393777 5.721136,1.502754 -0.06047,0.06047 -1.306552,-0.193384 -2.769076,-0.564115 -1.462524,-0.37073 -2.726374,-0.674056 -2.808554,-0.674056 -0.08218,0 -0.180152,14.257735 -0.217716,31.683854 l -0.0683,31.683848 z m 0.679076,31.503109 c 0.190996,-0.0764 0.419199,-0.067 0.507118,0.0209 0.08792,0.0879 -0.06835,0.15045 -0.347266,0.13896 -0.308224,-0.0127 -0.370919,-0.0754 -0.159852,-0.15985 z m 0.866303,-0.19498 c 0.190803,-0.1908 5.590262,-1.5076 5.706247,-1.39162 0.06047,0.0605 -1.140708,0.42333 -2.669279,0.80635 -2.809283,0.70394 -3.238321,0.78662 -3.036968,0.58527 z m 31.677447,-0.59877 c 0.190996,-0.0764 0.419199,-0.067 0.507118,0.0209 0.08792,0.0879 -0.06835,0.15045 -0.347266,0.13896 -0.308224,-0.0127 -0.370919,-0.0754 -0.159852,-0.15985 z m 1.058333,-0.26458 c 0.190996,-0.0764 0.419199,-0.067 0.507118,0.0209 0.08792,0.0879 -0.06835,0.15046 -0.347265,0.13897 -0.308225,-0.0127 -0.37092,-0.0754 -0.159853,-0.15985 z m 1.178318,-0.25154 c 0.440653,-0.1295 0.463244,-1.00143 0.396875,-15.31751 -0.03871,-8.349107 0.01991,-15.089861 0.130269,-14.979453 0.110355,0.110408 0.169886,6.978741 0.132292,15.262961 -0.06735,14.842402 -0.07608,15.063012 -0.59752,15.116762 -0.419287,0.0432 -0.432144,0.026 -0.06192,-0.0828 z m -27.636651,-0.54221 c 0.190996,-0.0764 0.419199,-0.067 0.507118,0.0209 0.08792,0.0879 -0.06835,0.15046 -0.347266,0.13897 -0.308224,-0.0127 -0.370919,-0.0754 -0.159852,-0.15985 z m 1.058333,-0.26459 c 0.190996,-0.0764 0.419199,-0.067 0.507118,0.0209 0.08792,0.0879 -0.06835,0.15045 -0.347265,0.13897 -0.308225,-0.0127 -0.37092,-0.0754 -0.159853,-0.15986 z m 1.058334,-0.26458 c 0.190996,-0.0764 0.419199,-0.067 0.507118,0.0209 0.08792,0.0879 -0.06835,0.15045 -0.347266,0.13896 -0.308225,-0.0127 -0.370919,-0.0754 -0.159852,-0.15985 z m 1.240234,-0.3128 c 0.291042,-0.12736 0.945885,-0.30712 1.455208,-0.39948 0.635717,-0.11528 0.760142,-0.0953 0.396875,0.0636 -0.291041,0.12736 -0.945885,0.30713 -1.455208,0.39949 -0.635717,0.11527 -0.760142,0.0953 -0.396875,-0.0637 z M 88.162971,73.742427 c 0.190996,-0.07643 0.419199,-0.06703 0.507118,0.02089 0.08792,0.08792 -0.06835,0.150453 -0.347266,0.138964 -0.308224,-0.01269 -0.370919,-0.07539 -0.159852,-0.159852 z m -1.058334,-0.264583 c 0.190997,-0.07643 0.4192,-0.06703 0.507119,0.02089 0.08792,0.08792 -0.06835,0.150453 -0.347266,0.138964 -0.308225,-0.0127 -0.370919,-0.07539 -0.159853,-0.159852 z M 86.046304,73.21326 c 0.190996,-0.07643 0.419199,-0.06703 0.507118,0.02089 0.08792,0.08792 -0.06835,0.150453 -0.347265,0.138965 -0.308225,-0.0127 -0.37092,-0.07539 -0.159853,-0.159853 z m -2.674892,-0.538553 c -0.843632,-0.221204 -1.481881,-0.454185 -1.418331,-0.517734 0.118804,-0.118805 3.393985,0.668822 3.591617,0.863724 0.195632,0.19293 -0.60261,0.06585 -2.173286,-0.34599 z m -12.7,-25.664583 C 69.82778,46.78892 69.189531,46.555939 69.253081,46.49239 c 0.118804,-0.118805 3.393985,0.668822 3.591617,0.863724 0.195632,0.19293 -0.60261,0.06585 -2.173286,-0.34599 z M 68.319221,46.22576 c 0.190996,-0.07643 0.419199,-0.06703 0.507118,0.02089 0.08792,0.08792 -0.06835,0.150452 -0.347266,0.138964 -0.308224,-0.0127 -0.370919,-0.07539 -0.159852,-0.159853 z m -1.058333,-0.264583 c 0.190996,-0.07643 0.419199,-0.06703 0.507118,0.02089 0.08792,0.08792 -0.06835,0.150453 -0.347266,0.138965 -0.308225,-0.0127 -0.370919,-0.07539 -0.159852,-0.159853 z m -1.058334,-0.264583 c 0.190996,-0.07643 0.419199,-0.06703 0.507118,0.02089 0.08792,0.08792 -0.06835,0.150453 -0.347265,0.138964 -0.308225,-0.0127 -0.37092,-0.07539 -0.159853,-0.159852 z"
         id="path3" /><path
         style="fill:#31b5c0"
         d="m 81.987788,90.856501 c 0,-10.113698 0.0329,-14.25112 0.07312,-9.194271 0.04021,5.056849 0.04021,13.331693 0,18.38854 -0.04021,5.05685 -0.07312,0.91943 -0.07312,-9.194269 z m 29.905002,7.672965 -6.87917,-1.766977 -0.0679,-15.057681 -0.0679,-15.057682 6.90653,-1.804402 c 3.79858,-0.992421 6.95533,-1.755595 7.01498,-1.695944 0.0596,0.05965 0.0779,8.442729 0.0405,18.62906 l -0.0679,18.5206 z M 92.925471,75.065344 c 0.190996,-0.07643 0.419199,-0.06703 0.507118,0.02089 0.08792,0.08792 -0.06835,0.150453 -0.347266,0.138964 -0.308224,-0.0127 -0.370919,-0.07539 -0.159852,-0.159852 z M 91.867137,74.80076 c 0.190997,-0.07643 0.4192,-0.06703 0.507118,0.02089 0.08792,0.08792 -0.06835,0.150453 -0.347265,0.138965 -0.308225,-0.0127 -0.370919,-0.07539 -0.159853,-0.159853 z m -1.058333,-0.264583 c 0.190996,-0.07643 0.419199,-0.06703 0.507118,0.02089 0.08792,0.08792 -0.06835,0.150453 -0.347265,0.138964 -0.308225,-0.01269 -0.37092,-0.07539 -0.159853,-0.159852 z m -1.058333,-0.264583 c 0.190996,-0.07643 0.419199,-0.06703 0.507118,0.02089 0.08792,0.08792 -0.06835,0.150453 -0.347266,0.138964 -0.308224,-0.0127 -0.370919,-0.07539 -0.159852,-0.159852 z M 88.692137,74.00701 c 0.190997,-0.07643 0.4192,-0.06703 0.507119,0.02089 0.08792,0.08792 -0.06835,0.150453 -0.347266,0.138965 -0.308225,-0.0127 -0.370919,-0.07539 -0.159853,-0.159853 z"
         id="path2" /><path
         style="fill:#3863ac"
         d="m 81.994872,90.856501 c 0,-12.238986 0.0898,-18.493974 0.264583,-18.430304 0.145521,0.05301 3.062552,0.786258 6.482292,1.629442 3.419739,0.843185 6.366536,1.5713 6.548437,1.618034 0.259705,0.06672 0.330729,3.312582 0.330729,15.114499 V 105.8177 l -6.548437,1.68982 c -3.601641,0.9294 -6.6675,1.73164 -6.813021,1.78274 -0.174754,0.0614 -0.264583,-6.19708 -0.264583,-18.433759 z M 59.902164,75.775251 c 0,-17.316979 0.0893,-31.483908 0.198437,-31.482065 0.109141,0.0018 3.164095,0.77575 6.788786,1.719792 3.624692,0.944042 6.63102,1.71644 6.68073,1.71644 0.04971,0 0.09038,12.611391 0.09038,28.025314 v 28.025318 l -0.859896,0.27139 c -1.407323,0.44417 -12.254346,3.20923 -12.589456,3.20923 -0.233855,0 -0.308981,-7.655412 -0.308981,-31.485419 z"
         id="path1" /></g></g></svg>
