<svg width="12" height="12" viewBox="0 0 12 12" fill="none" xmlns="http://www.w3.org/2000/svg">
<path fill-rule="evenodd" clip-rule="evenodd" d="M7.0605 1.35041C5.82737 1.35041 4.64475 1.84027 3.7728 2.71222C2.90085 3.58417 2.411 4.76679 2.411 5.99991C2.411 7.23304 2.90085 8.41566 3.7728 9.28761C4.64475 10.1596 5.82737 10.6494 7.0605 10.6494V11.3499C4.1055 11.3499 1.71049 8.95441 1.71049 5.99941C1.71049 3.04441 4.10499 0.649414 7.05999 0.649414V1.34991L7.0605 1.35041ZM9.43649 3.18891C9.06708 2.87532 8.63933 2.63785 8.17782 2.49016C7.71631 2.34246 7.23016 2.28746 6.74732 2.3283C6.26448 2.36915 5.79447 2.50504 5.36433 2.72816C4.9342 2.95129 4.55241 3.25724 4.24092 3.62843C3.92944 3.99962 3.69441 4.42872 3.54934 4.89106C3.40427 5.3534 3.35204 5.83986 3.39563 6.32246C3.43922 6.80506 3.57778 7.27428 3.80335 7.70315C4.02892 8.13201 4.33704 8.51205 4.71 8.82141L4.2595 9.35841C3.81906 8.98897 3.45572 8.53639 3.19021 8.02651C2.92471 7.51663 2.76224 6.95944 2.7121 6.38677C2.66195 5.81409 2.72511 5.23715 2.89796 4.68889C3.07081 4.14062 3.34997 3.63178 3.7195 3.19141C4.08898 2.75096 4.54161 2.38761 5.05153 2.1221C5.56145 1.85658 6.11868 1.69412 6.6914 1.64397C7.26411 1.59383 7.8411 1.65699 8.3894 1.82985C8.9377 2.0027 9.44659 2.28187 9.887 2.65141L9.43649 3.18891ZM8.309 3.61091C7.67566 3.28379 6.93875 3.22004 6.25864 3.43353C5.57853 3.64703 5.01026 4.12049 4.6775 4.75088C4.34473 5.38128 4.2744 6.11758 4.48182 6.79957C4.68923 7.48156 5.1576 8.05403 5.785 8.39241L5.45699 9.01241C4.67334 8.58271 4.09005 7.86212 3.83299 7.00615C3.57593 6.15018 3.66572 5.22746 4.08298 4.4371C4.50024 3.64675 5.21152 3.05214 6.06332 2.78158C6.91512 2.51102 7.83914 2.5862 8.63599 2.99091L8.309 3.61091ZM7.05999 4.26941C6.60104 4.26941 6.16088 4.45173 5.83635 4.77627C5.51181 5.1008 5.3295 5.54096 5.3295 5.99991C5.3295 6.45887 5.51181 6.89903 5.83635 7.22356C6.16088 7.54809 6.60104 7.73041 7.05999 7.73041V8.43141C6.41512 8.43141 5.79666 8.17524 5.34066 7.71924C4.88467 7.26325 4.62849 6.64479 4.62849 5.99991C4.62849 5.35504 4.88467 4.73658 5.34066 4.28058C5.79666 3.82459 6.41512 3.56841 7.05999 3.56841V4.26941Z" fill="#F15A29"/>
<path d="M7.7035 5.41788C7.62896 5.33761 7.54305 5.26871 7.4485 5.21338C7.36615 5.16446 7.27229 5.13823 7.1765 5.13738C7.049 5.13738 6.935 5.16088 6.8345 5.20738C6.73737 5.25114 6.65008 5.3141 6.57791 5.39246C6.50573 5.47082 6.45015 5.56298 6.4145 5.66338C6.3775 5.76488 6.3595 5.87138 6.3595 5.97888C6.3595 6.08788 6.3775 6.19388 6.4145 6.29438C6.45044 6.39468 6.50613 6.48676 6.57827 6.56517C6.65041 6.64358 6.73754 6.70673 6.8345 6.75088C6.9345 6.79738 7.0495 6.82088 7.1765 6.82088C7.2845 6.82088 7.385 6.79788 7.4775 6.75338C7.5715 6.70838 7.6525 6.64088 7.715 6.55738L8.179 7.06038C8.109 7.13038 8.029 7.19088 7.938 7.24188C7.76971 7.33574 7.58655 7.4 7.3965 7.43188C7.3115 7.44488 7.238 7.45188 7.1765 7.45188C6.97476 7.45314 6.77447 7.41756 6.5855 7.34688C6.40685 7.2808 6.24341 7.17926 6.105 7.04838C5.96738 6.9169 5.85784 6.75889 5.783 6.58388C5.70169 6.39269 5.66116 6.18663 5.664 5.97888C5.664 5.75688 5.704 5.55538 5.783 5.37388C5.858 5.19888 5.967 5.04088 6.1045 4.90938C6.2435 4.77888 6.407 4.67738 6.5855 4.61138C6.77447 4.5407 6.97476 4.50512 7.1765 4.50638C7.354 4.50638 7.5325 4.54038 7.7125 4.60838C7.893 4.67738 8.055 4.78838 8.1845 4.93288L7.7035 5.41788Z" fill="white"/>
</svg>
