<svg width="62" height="41" viewBox="0 0 62 41" fill="none" xmlns="http://www.w3.org/2000/svg">
<g clip-path="url(#clip0_2335_854)">
<path d="M38.0101 39.6942C37.1264 41.1363 35.2526 41.4056 34.0443 40.2641L28.6739 35.1903C27.4657 34.0489 27.4844 32.0272 28.7134 30.9114L34.1259 25.9978C40.1432 20.5351 48.0691 18.4059 55.613 20.2254L59.6854 21.2077C59.8307 21.2427 59.9655 21.3164 60.0772 21.4219C60.6664 21.9786 60.3365 23.0193 59.5521 23.0779L59.4651 23.0844C52.0154 23.6408 45.1813 27.9912 40.976 34.8541L38.0101 39.6942Z" fill="white"/>
<path d="M16.296 36.7475C15.1726 37.9931 13.2763 37.8783 12.2913 36.5052L1.54714 21.5271C0.567214 20.161 0.945272 18.1835 2.34794 17.3384L23.7709 4.43107C30.6029 0.314745 38.7319 -0.121041 45.8086 3.24965L61.3492 10.6518C61.5897 10.7663 61.7997 10.9435 61.9599 11.1669C62.8149 12.3588 61.8991 14.0618 60.5058 13.871L51.2478 12.603C43.8554 11.5905 36.4143 14.4411 31.1165 20.315L16.296 36.7475Z" fill="url(#paint0_linear_2335_854)"/>
</g>
<defs>
<linearGradient id="paint0_linear_2335_854" x1="34.8526" y1="0.329868" x2="26.5505" y2="41.6055" gradientUnits="userSpaceOnUse">
<stop stop-color="white"/>
<stop offset="1" stop-color="white"/>
</linearGradient>
<clipPath id="clip0_2335_854">
<rect width="62" height="41" fill="white"/>
</clipPath>
</defs>
</svg>
