<svg width="62" height="41" viewBox="0 0 62 41" fill="none" xmlns="http://www.w3.org/2000/svg">
<g clip-path="url(#clip0_2334_850)">
<path d="M38.0101 39.6942C37.1264 41.1363 35.2526 41.4056 34.0443 40.2641L28.6739 35.1903C27.4657 34.0489 27.4844 32.0272 28.7134 30.9114L34.1259 25.9978C40.1432 20.5351 48.0691 18.4059 55.613 20.2254L59.6854 21.2077C59.8307 21.2427 59.9655 21.3164 60.0772 21.4219C60.6664 21.9786 60.3365 23.0193 59.5521 23.0779L59.4651 23.0844C52.0154 23.6408 45.1813 27.9912 40.976 34.8541L38.0101 39.6942Z" fill="black"/>
<path d="M15.296 36.5912C14.1726 37.8368 12.2763 37.7221 11.2913 36.349L0.547139 21.3709C-0.432786 20.0048 -0.0547276 18.0273 1.34794 17.1822L22.7709 4.27482C29.6029 0.158495 37.7319 -0.277291 44.8086 3.0934L60.3492 10.4956C60.5897 10.6101 60.7997 10.7872 60.9599 11.0106C61.8149 12.2025 60.8991 13.9056 59.5058 13.7148L50.2478 12.4467C42.8554 11.4342 35.4143 14.2848 30.1165 20.1587L15.296 36.5912Z" fill="url(#paint0_linear_2334_850)"/>
</g>
<defs>
<linearGradient id="paint0_linear_2334_850" x1="33.8526" y1="0.173618" x2="25.5505" y2="41.4493" gradientUnits="userSpaceOnUse">
<stop/>
<stop offset="1"/>
</linearGradient>
<clipPath id="clip0_2334_850">
<rect width="62" height="41" fill="white"/>
</clipPath>
</defs>
</svg>
