<svg width="12" height="12" viewBox="0 0 12 12" fill="none" xmlns="http://www.w3.org/2000/svg">
<path d="M10.4209 1.93255L10.173 1.68295C10.1187 1.62943 10.0617 1.6469 10.0456 1.7199L9.89124 2.41537C9.87499 2.48838 9.90489 2.59257 9.95905 2.64608L10.0968 2.79099C10.147 2.84756 10.2102 2.83577 10.2367 2.76541L10.465 2.16029C10.4915 2.08914 10.4704 1.98674 10.4193 1.93094L10.4217 1.93099L10.4209 1.93255ZM8.6463 0.61851L8.38392 0.496424C8.31394 0.466972 8.26519 0.502813 8.27516 0.578073L8.40429 1.53276C8.41426 1.60723 8.47958 1.69261 8.54956 1.72207L8.70773 1.78539C8.77695 1.81718 8.82949 1.78223 8.82515 1.70634L8.77792 0.815355C8.77348 0.74024 8.71542 0.651097 8.64706 0.617742L8.6463 0.61851ZM3.92655 0.368712L3.64045 0.481276C3.57134 0.510269 3.56083 0.574735 3.61846 0.623601L4.95938 1.76531C5.01777 1.81341 5.12155 1.82953 5.19066 1.79896L5.34525 1.72955C5.41599 1.70061 5.42802 1.6346 5.37374 1.58188L4.15676 0.416538C4.10248 0.36381 3.99881 0.342958 3.92818 0.367965L3.92742 0.367944L3.92655 0.368712ZM3.92764 2.49956L2.13996 1.56097C2.07247 1.52605 1.9727 1.53926 1.91724 1.59071L1.70014 1.80296C1.64706 1.85606 1.66028 1.92667 1.72863 1.95845L3.61174 2.83872C3.6801 2.8705 3.90305 2.70893 3.95526 2.65738C4.00748 2.60664 3.99513 2.53526 3.92839 2.49958L3.92764 2.49956ZM0.535588 3.50009L0.421191 3.77027C0.393025 3.83981 0.432675 3.904 0.507315 3.91225L2.85527 4.17066C2.9298 4.17891 3.01625 4.12906 3.04431 4.05952L3.10313 3.90947C3.13357 3.84079 3.09869 3.77435 3.02427 3.76294L0.730043 3.39619C0.65562 3.38478 0.56852 3.42989 0.536454 3.49853V3.50011L0.535588 3.50009ZM7.15015 1.29015L6.56733 0.142091C6.53245 0.0748689 6.4434 0.0164986 6.36713 0.0121485L6.05167 2.11595e-06C5.97617 -0.000382566 5.94616 0.051733 5.98505 0.116691L6.68487 1.29306C6.72365 1.35801 7.00325 1.40397 7.07713 1.40747C7.15091 1.41096 7.18416 1.35893 7.15015 1.29174V1.29015ZM0.00628597 5.66057L1.28375e-06 5.98568C-0.000323708 6.06146 0.0610997 6.11359 0.135415 6.10209L2.60839 5.71953C2.68346 5.70806 2.74662 5.63786 2.74857 5.56212L2.74997 5.38846C2.75431 5.31359 2.69613 5.25838 2.62041 5.2651L0.150149 5.51194C0.0751845 5.51947 0.00974972 5.58724 0.00541649 5.66292L0.00628597 5.66057ZM9.06717 3.7195L8.92439 3.61236C8.88766 3.58694 8.85549 3.60268 8.85267 3.64682L8.83209 3.9455C8.82938 3.98963 8.85646 4.04561 8.89319 4.07103L8.99383 4.14786C9.02719 4.17715 9.06099 4.16382 9.06846 4.12139L9.11613 3.84946C9.12371 3.80623 9.10216 3.74805 9.06792 3.71952L9.06717 3.7195ZM7.11646 3.35141L6.94215 3.41794C6.9011 3.43504 6.89449 3.47434 6.92796 3.50362L7.41892 3.94508C7.45152 3.97435 7.51024 3.98219 7.55043 3.96271L7.65984 3.91739C7.70155 3.9019 7.71054 3.86345 7.67956 3.83106L7.2484 3.38485C7.21742 3.35404 7.15816 3.33908 7.1157 3.35218L7.11732 3.35065L7.11646 3.35141ZM6.11527 4.22303C6.07269 4.21009 6.05785 4.16865 6.08114 4.13136L6.19023 3.97472C6.21655 3.93988 6.27267 3.92317 6.31448 3.93926L7.07897 4.22914C7.12068 4.24523 7.1339 4.28741 7.10909 4.32466L7.05157 4.42579C7.02904 4.46389 6.97606 4.48542 6.93338 4.47246L6.11527 4.22303ZM6.83241 5.04538C6.82971 5.08951 6.79136 5.12641 6.74748 5.12765L5.80685 5.15135C5.76232 5.15335 5.72982 5.11777 5.7334 5.07364L5.75799 4.89665C5.76547 4.85343 5.80847 4.81902 5.85299 4.82096L6.77056 4.85587C6.81508 4.85782 6.84834 4.895 6.84314 4.93908L6.83241 5.04616V5.04538ZM8.02448 3.27002C7.98083 3.26414 7.95548 3.29349 7.96945 3.3357L8.10313 3.75523C8.11635 3.79741 8.16304 3.83416 8.20756 3.83611L8.32803 3.84871C8.37168 3.85537 8.39942 3.82609 8.38869 3.78239L8.29477 3.39468C8.28393 3.35097 8.23974 3.30878 8.19705 3.29898L8.02448 3.26922V3.27002ZM4.79287 2.86074L5.74802 3.37347C5.79428 3.39757 5.86448 3.39072 5.90434 3.35781L6.01311 3.27299C6.05525 3.24251 6.05417 3.19512 6.00878 3.16709L5.11126 2.61165C5.06738 2.58366 4.99653 2.58735 4.95515 2.61864L4.78377 2.75629C4.74315 2.7884 4.74662 2.83507 4.79287 2.85995L4.79211 2.85994L4.79287 2.86074ZM9.54859 3.52517L9.67923 3.03435C9.69332 2.98418 9.67208 2.91495 9.63406 2.87922L9.44827 2.71728C9.40776 2.68465 9.36919 2.70023 9.36302 2.75138L9.29628 3.29124C9.28935 3.34316 9.31535 3.41411 9.35251 3.45138L9.45726 3.54964C9.49366 3.5869 9.5345 3.57612 9.54859 3.52596V3.52517ZM10.3617 3.81315L10.2353 3.60144C10.207 3.5565 10.1563 3.55202 10.1202 3.58976L9.8478 3.88111C9.81183 3.91886 9.80522 3.98659 9.83187 4.0307L9.88744 4.12767C9.91247 4.17332 9.96772 4.18739 10.0115 4.15774L10.3264 3.94723C10.3701 3.91837 10.3852 3.85719 10.3602 3.81154L10.3617 3.81315ZM8.77251 2.28761L8.57437 2.19799C8.52724 2.17544 8.49323 2.19982 8.50146 2.25214L8.5852 2.87328C8.59257 2.92479 8.63634 2.98513 8.68433 3.0069L8.81703 3.07193C8.86329 3.09604 8.89882 3.07406 8.89546 3.02265L8.8635 2.42418C8.8609 2.3728 8.81952 2.31172 8.77326 2.28841L8.77251 2.28761ZM5.63124 2.22331C5.58379 2.24498 5.57697 2.29059 5.61749 2.32402L6.36258 2.95839C6.40147 2.99177 6.47438 3.00314 6.52183 2.98306L6.65443 2.92808C6.70263 2.9096 6.71184 2.86405 6.67458 2.82834L5.9896 2.17264C5.95244 2.13693 5.88127 2.12166 5.83306 2.14014L5.632 2.22334L5.63124 2.22331ZM5.40722 3.90305L5.48391 3.79767C5.51522 3.75586 5.5006 3.70889 5.45087 3.6926L4.3472 3.32601C4.29758 3.30893 4.23259 3.33014 4.20204 3.37355L4.08721 3.53636C4.05817 3.57982 4.07518 3.62683 4.12577 3.64079L5.26259 3.95771C5.31319 3.97165 5.37742 3.94806 5.40635 3.90461L5.40722 3.90305ZM7.82028 1.96443L7.63103 1.93424C7.57957 1.92659 7.55162 1.96139 7.57015 2.01003L7.81725 2.68436C7.83501 2.73298 7.89178 2.78025 7.94334 2.7879L8.06294 2.80522C8.1144 2.81524 8.14462 2.78208 8.13011 2.73276L7.93988 2.07412C7.92612 2.02402 7.87174 1.97524 7.82028 1.96522V1.96443ZM7.37753 2.68162L6.96479 1.98719C6.93814 1.94228 6.87379 1.90983 6.8219 1.91479L6.62247 1.93882C6.57058 1.94536 6.55205 1.98515 6.58119 2.02854L7.05113 2.72366C7.08016 2.76705 7.14625 2.79639 7.19814 2.78827L7.33138 2.77121C7.38317 2.76623 7.40342 2.72571 7.37753 2.68162ZM4.88008 5.04121L3.5956 5.16887C3.54371 5.17384 3.498 5.22002 3.49496 5.27283L3.4837 5.49123C3.48305 5.54332 3.52508 5.57915 3.57621 5.571L4.85863 5.37224C4.91052 5.36489 4.95559 5.31554 4.95851 5.26351L4.9662 5.12475C4.97151 5.07279 4.93197 5.03386 4.88019 5.03963L4.88008 5.04121ZM3.6073 6.47341C3.62106 6.5235 3.67284 6.55089 3.72257 6.53482L4.96458 6.12026C5.0143 6.10339 5.04442 6.04891 5.03142 5.99805L5.00076 5.86304C4.99101 5.81147 4.94172 5.78177 4.89124 5.79545L3.63016 6.15031C3.57968 6.16399 3.54805 6.21686 3.56105 6.26772L3.6073 6.47261V6.47341ZM3.83751 4.19856C3.78518 4.19325 3.72852 4.2281 3.71217 4.27741L3.64522 4.46357C3.63038 4.51292 3.66017 4.55711 3.7126 4.56006L4.96154 4.63989C5.01387 4.64283 5.06976 4.6056 5.08536 4.55627L5.12913 4.43424C5.14787 4.38579 5.12122 4.34168 5.06977 4.3356L3.83826 4.19858L3.83751 4.19856ZM11.9984 6.01573C11.9988 5.94074 11.9455 5.85015 11.878 5.81523L11.3005 5.51758C11.233 5.48267 11.1789 5.516 11.1793 5.5918L11.1741 5.79062C11.1704 5.86631 11.218 5.96308 11.2797 6.00652L11.8636 6.4204C11.9254 6.46384 11.9792 6.43918 11.9836 6.36351L12 6.0134V6.01577L11.9984 6.01573ZM11.567 8.16929C11.5958 8.09977 11.5788 7.99432 11.531 7.93546L10.9655 7.24179C10.9178 7.18293 10.8547 7.19234 10.825 7.26104L10.7503 7.41304C10.7182 7.48169 10.7274 7.58772 10.7703 7.65042L11.3172 8.44543C11.3601 8.50733 11.4206 8.50259 11.4526 8.43395L11.5654 8.16845L11.5662 8.16848L11.567 8.16929ZM8.22749 11.4892C8.29748 11.4609 8.36009 11.3765 8.36453 11.3009L8.48348 9.62705C8.48857 9.55218 8.43484 9.51052 8.36334 9.53629L8.20214 9.58737C8.13 9.60997 8.06338 9.69113 8.05265 9.76585L7.82635 11.5048C7.81638 11.5786 7.86784 11.6202 7.93847 11.5961L8.22674 11.4899H8.22749V11.4892ZM6.79168 9.90518C6.81746 9.8348 6.77846 9.77378 6.70534 9.77031C6.63233 9.76683 6.35717 9.7952 6.32835 9.86393L5.52259 11.7685C5.49291 11.838 5.53028 11.8982 5.60579 11.9025L5.90998 11.916C5.98624 11.9179 6.0689 11.8609 6.09544 11.7898L6.79168 9.9044V9.90518ZM3.59777 11.4161C3.66775 11.4456 3.76308 11.422 3.81075 11.3633L5.26899 9.56638C5.31654 9.50841 5.29867 9.43532 5.22869 9.40507L5.08428 9.33263C5.01593 9.30006 4.91832 9.31963 4.86838 9.37597L3.29759 11.1272C3.24764 11.1828 3.26162 11.2574 3.32911 11.2899L3.59625 11.4145L3.59777 11.4161ZM10 8.66304C9.97963 8.59066 9.92049 8.57255 9.8674 8.62485C9.81508 8.67717 9.63839 8.89679 9.65313 8.9706L9.92558 10.3095C9.94031 10.3833 9.99783 10.4022 10.0541 10.3516L10.2801 10.1332C10.334 10.0794 10.3606 9.97664 10.341 9.9035L10 8.66304ZM1.74531 10.1601C1.79959 10.2136 1.89319 10.2207 1.95407 10.1757L3.95602 8.7183C4.0169 8.67409 4.02297 8.59372 3.96945 8.541L3.85202 8.41243C3.79937 8.35737 3.70578 8.34705 3.64186 8.38802L1.54631 9.74672C1.48316 9.78772 1.47232 9.86716 1.5241 9.92299L1.7477 10.1601L1.74694 10.1601L1.74531 10.1601ZM9.78778 5.58326C9.7945 5.54002 9.77056 5.48176 9.73632 5.45482L9.51815 5.28414C9.4838 5.2572 9.45012 5.26974 9.44416 5.3138L9.42097 5.43794C9.41111 5.4811 9.42867 5.54156 9.46041 5.57239L9.67761 5.78092C9.70935 5.81175 9.7438 5.80238 9.75452 5.75925L9.78854 5.58486L9.78778 5.58326ZM8.5852 7.15386C8.6255 7.13597 8.66017 7.08555 8.66223 7.04139L8.68172 6.42294C8.68281 6.37876 8.65085 6.35661 8.60904 6.37211L8.49745 6.41105C8.45423 6.42335 8.41642 6.46815 8.41133 6.51144L8.34395 7.16576C8.33962 7.20985 8.37082 7.23435 8.41252 7.21964L8.58683 7.15311L8.58531 7.15308L8.5852 7.15386ZM7.69505 6.44229C7.71834 6.40421 7.77207 6.38508 7.81389 6.39802L7.81465 6.39804L7.92579 6.43487C7.96923 6.44627 7.98808 6.48702 7.96793 6.52597L7.59495 7.2497C7.5748 7.28945 7.52248 7.31414 7.47904 7.3059L7.29249 7.26237C7.24981 7.25021 7.23259 7.20871 7.25588 7.17141L7.69581 6.44231L7.69505 6.44229ZM7.31373 6.15606C7.34709 6.18615 7.34742 6.2351 7.31557 6.26584L6.65702 6.90085C6.62517 6.9316 6.57025 6.9349 6.53515 6.90715L6.39746 6.79146C6.36486 6.7614 6.36529 6.71326 6.40028 6.68495L7.11537 6.07748C7.14874 6.04914 7.20193 6.05132 7.23367 6.08214L7.31373 6.15448V6.15606ZM9.42466 6.47463C9.45033 6.43898 9.45434 6.3775 9.43311 6.33826L9.2419 5.9875C9.22067 5.94826 9.18015 5.94484 9.15221 5.97885L9.07117 6.06832C9.03932 6.09908 9.02827 6.158 9.04788 6.19799L9.23139 6.59829C9.24938 6.63902 9.28827 6.64319 9.31698 6.60999L9.42476 6.47305L9.42466 6.47463ZM7.19174 9.06136C7.17376 9.10984 7.20215 9.14769 7.25469 9.14431L7.47449 9.13266C7.52638 9.12769 7.58163 9.08412 7.59484 9.03394L7.88788 8.0247C7.90272 7.97456 7.87109 7.93821 7.82006 7.9432L7.68216 7.95304C7.62973 7.95483 7.57296 7.99599 7.55574 8.04528L7.19174 9.06057L7.19251 9.06059L7.19174 9.06136ZM10.2767 5.41044C10.232 5.38165 10.195 5.40121 10.1928 5.45326L10.1819 5.59587C10.179 5.6479 10.2073 5.71811 10.2478 5.75232L10.6615 6.10887C10.7004 6.14304 10.7404 6.12909 10.7481 6.07797L10.7768 5.83397C10.7821 5.78201 10.7505 5.71645 10.7059 5.68844L10.2783 5.41048L10.2767 5.41044ZM10.687 4.65689C10.6748 4.60605 10.6225 4.57073 10.5706 4.57806L10.1947 4.63145C10.1428 4.63878 10.1105 4.68611 10.1226 4.73616L10.1468 4.84495C10.1566 4.89573 10.2071 4.94125 10.2595 4.94578L10.6585 4.98141C10.7101 4.98592 10.7453 4.94814 10.7363 4.89659L10.6879 4.65533L10.6878 4.65691L10.687 4.65689ZM10.5355 6.84456C10.5542 6.7961 10.5434 6.72397 10.5111 6.68366L10.1313 6.21746C10.099 6.17715 10.0574 6.18397 10.0394 6.23245L9.98494 6.36919C9.96382 6.41758 9.97216 6.49123 10.0013 6.53461L10.3574 7.05151C10.3865 7.0949 10.428 7.09046 10.4484 7.04282L10.5347 6.84454L10.5355 6.84456ZM8.44914 8.90693C8.49734 8.88845 8.54024 8.83035 8.54393 8.77914L8.61099 7.83665C8.61467 7.78543 8.57729 7.75762 8.52909 7.7761L8.39346 7.82311C8.34449 7.83998 8.29845 7.89722 8.29152 7.94756L8.1651 8.91376C8.15816 8.96569 8.19391 8.99504 8.24364 8.97975L8.44914 8.90772V8.90693ZM6.94378 7.88015C6.89319 7.867 6.82895 7.89217 6.80143 7.93645L6.17019 8.92664C6.14202 8.97012 6.16066 9.01639 6.21201 9.02957L6.40721 9.07412C6.45867 9.08572 6.5214 9.05814 6.54718 9.01302L7.12014 8.00711C7.14592 7.962 7.12491 7.91724 7.07345 7.90722L6.94529 7.8802L6.94378 7.88015ZM10.0448 7.71603C10.0762 7.67421 10.0836 7.60257 10.0602 7.55538L9.75756 6.93961C9.73491 6.89322 9.6905 6.88812 9.65844 6.92992L9.58119 7.02265C9.54837 7.06285 9.53765 7.136 9.55704 7.18387L9.82819 7.84934C9.84758 7.89722 9.89199 7.90469 9.92482 7.86528L10.0448 7.71682V7.71603ZM9.23118 7.47856C9.22056 7.42775 9.1781 7.41087 9.13671 7.44215L9.02578 7.51822C8.98213 7.54629 8.95255 7.61184 8.95992 7.66414L9.07962 8.49306C9.08699 8.54457 9.12783 8.5622 9.17084 8.53253L9.33528 8.41759C9.37743 8.38632 9.40386 8.3199 9.39248 8.26908L9.23118 7.47856ZM5.78616 7.38427C5.8283 7.35379 5.83133 7.29938 5.79255 7.26364L5.69332 7.16553C5.65616 7.12904 5.58953 7.12179 5.54577 7.15144L4.45835 7.85581C4.41469 7.88389 4.40765 7.93818 4.44318 7.977L4.59896 8.13184C4.63623 8.16834 4.70209 8.1732 4.74348 8.14191L5.78464 7.38344L5.78616 7.38427ZM3.97866 7.34755C4.00368 7.3932 4.06283 7.4121 4.10963 7.38884L5.28589 6.81468C5.33258 6.79141 5.34915 6.73737 5.32174 6.69166L5.25328 6.57146C5.22912 6.52504 5.16997 6.50455 5.12166 6.5254L3.91908 7.04283C3.87163 7.06371 3.85115 7.11844 3.87455 7.16484L3.97866 7.34755ZM6.40234 7.78319C6.43679 7.74461 6.42693 7.69383 6.37981 7.67049L6.2653 7.6091C6.21991 7.58265 6.15372 7.59198 6.11689 7.62892L5.24255 8.51726C5.20572 8.5542 5.21309 8.60729 5.25696 8.63369L5.43267 8.72746C5.47807 8.75313 5.5436 8.7414 5.57957 8.70287L6.40234 7.78319ZM5.84043 5.93066L5.89752 6.08688C5.91399 6.12757 5.96198 6.14697 6.00292 6.13067L6.89384 5.76383C6.93478 5.74673 6.95353 5.69985 6.93793 5.65839L6.89849 5.55631C6.88528 5.51413 6.83978 5.49084 6.79797 5.50633L5.88842 5.82769C5.84671 5.8424 5.82396 5.88918 5.84043 5.92987V5.93066ZM11.5319 3.64936C11.5035 3.57994 11.424 3.55102 11.3571 3.58481L10.9323 3.80193C10.8646 3.83649 10.8336 3.92174 10.8636 3.99041L10.9354 4.19202C10.9623 4.26219 11.0439 4.30457 11.1168 4.28516L11.5788 4.16453C11.6525 4.14513 11.6909 4.07192 11.6666 4.00102L11.5335 3.6494L11.5319 3.64936ZM2.98354 7.35878C3.05341 7.33059 3.08656 7.25015 3.05818 7.18072L2.99101 7.01396C2.96588 6.94305 2.88647 6.90546 2.81508 6.93045L0.421409 7.76982C0.350777 7.79482 0.314484 7.87283 0.341242 7.943L0.455857 8.24361C0.48424 8.31304 0.565272 8.34751 0.635253 8.31776L2.98267 7.35797L2.98354 7.35878ZM9.65876 4.74779C9.70122 4.73468 9.72387 4.68869 9.71065 4.64651L9.64143 4.46786C9.62583 4.4264 9.57859 4.40859 9.5383 4.42886L9.39172 4.50005C9.35143 4.51953 9.33258 4.56878 9.34817 4.61024L9.40277 4.74429C9.41751 4.78573 9.46463 4.80906 9.5071 4.79595L9.65876 4.74779Z" fill="white"/>
</svg>
