<?xml version="1.0" encoding="UTF-8"?>
<svg width="512px" height="512px" viewBox="0 0 512 512" version="1.1" xmlns="http://www.w3.org/2000/svg" xmlns:xlink="http://www.w3.org/1999/xlink">
    <title>FigureAI_logo</title>
    <g id="FigureAI_logo" stroke="none" stroke-width="1" fill="none" fill-rule="evenodd">
        <rect id="base" fill="#010101" x="0" y="0" width="512" height="512"></rect>
        <path d="M273.511757,163.843996 L337.103515,163.843996 C343.216357,163.843996 348.16,158.891707 348.16,152.786794 L348.16,82.7372021 C348.16,76.6245894 343.208644,71.68 337.103515,71.68 L267.064506,71.68 C260.952127,71.68 256.007867,76.6323811 256.007867,82.7372021 L256.007867,146.331636 C256.007867,156.002769 248.166832,163.843996 238.496109,163.843996 L174.896717,163.843996 C168.784368,163.843996 163.84,168.796438 163.84,174.901198 L163.84,244.942491 C163.84,251.05601 168.792158,256 174.896717,256 L238.488397,256 C248.15912,256 256,263.840919 256,273.512206 L256,330.651636 C256,340.322923 248.15912,348.163842 238.488397,348.163842 L174.896717,348.163842 C168.784368,348.163842 163.84,353.117053 163.84,359.221352 L163.84,429.264027 C163.84,435.37601 168.792158,440.32 174.896717,440.32 L244.935494,440.32 C251.047873,440.32 255.992288,435.368326 255.992288,429.264027 L255.992288,365.668364 C255.992288,355.998614 263.833168,348.156158 273.503891,348.156158 L337.095802,348.156158 C343.208644,348.156158 348.152288,343.204484 348.152288,337.098648 L348.152288,267.057509 C348.152288,260.945527 343.199389,256 337.095802,256 L273.503891,256 C263.833168,256 255.992288,248.159081 255.992288,238.487794 L255.992288,181.348671 C255.992288,171.677538 263.833168,163.836312 273.503891,163.836312 L273.511757,163.843996 Z" id="Path" fill="#FFFFFF" fill-rule="nonzero"></path>
    </g>
</svg>