<svg width="12" height="12" viewBox="0 0 12 12" fill="none" xmlns="http://www.w3.org/2000/svg">
<g clip-path="url(#clip0_2363_183)">
<path fill-rule="evenodd" clip-rule="evenodd" d="M1.83751 3.693C2.0794 3.69241 2.31881 3.64418 2.54207 3.55107C2.76532 3.45795 2.96805 3.32177 3.13868 3.15031C3.30931 2.97885 3.44449 2.77545 3.53652 2.55175C3.62854 2.32804 3.6756 2.0884 3.67501 1.8465C3.6756 1.6046 3.62854 1.36496 3.53652 1.14125C3.44449 0.917545 3.30931 0.714153 3.13868 0.54269C2.96805 0.371226 2.76532 0.235049 2.54207 0.141935C2.31881 0.0488196 2.0794 0.000590227 1.83751 0C1.59561 0.000590227 1.3562 0.0488196 1.13295 0.141935C0.90969 0.235049 0.70696 0.371226 0.536332 0.54269C0.365705 0.714153 0.23052 0.917545 0.138497 1.14125C0.0464742 1.36496 -0.00058487 1.6046 6.80032e-06 1.8465C-0.00058487 2.0884 0.0464742 2.32804 0.138497 2.55175C0.23052 2.77545 0.365705 2.97885 0.536332 3.15031C0.70696 3.32177 0.90969 3.45795 1.13295 3.55107C1.3562 3.64418 1.59561 3.69241 1.83751 3.693ZM1.83751 12C2.07942 11.9995 2.31886 11.9513 2.54215 11.8582C2.76543 11.7651 2.96819 11.6289 3.13883 11.4575C3.30947 11.286 3.44465 11.0826 3.53665 10.8588C3.62865 10.6351 3.67566 10.3954 3.67501 10.1535C3.6756 9.9116 3.62854 9.67196 3.53652 9.44825C3.44449 9.22455 3.30931 9.02115 3.13868 8.84969C2.96805 8.67823 2.76532 8.54205 2.54207 8.44893C2.31881 8.35582 2.0794 8.30759 1.83751 8.307C1.59559 8.30752 1.35615 8.35571 1.13287 8.4488C0.909582 8.54189 0.706826 8.67807 0.536186 8.84954C0.365545 9.02102 0.230363 9.22444 0.138363 9.44818C0.0463636 9.67191 -0.000650609 9.91159 6.80032e-06 10.1535C-0.00058487 10.3954 0.0464742 10.635 0.138497 10.8587C0.23052 11.0825 0.365705 11.2858 0.536332 11.4573C0.70696 11.6288 0.90969 11.765 1.13295 11.8581C1.3562 11.9512 1.59561 11.9994 1.83751 12Z" fill="white"/>
<path fill-rule="evenodd" clip-rule="evenodd" d="M5.16894 3.59989C5.35832 3.56715 5.54982 3.5481 5.74194 3.54289H6.76044C7.04379 3.54236 7.31536 3.42946 7.51557 3.22897C7.71579 3.02847 7.82831 2.75674 7.82844 2.47339V1.21989C7.82844 0.630391 7.34844 0.150391 6.76044 0.150391H5.51844C5.235 0.15092 4.96336 0.263886 4.76313 0.464493C4.56289 0.665099 4.45044 0.936955 4.45044 1.22039L4.41044 1.96389C4.39897 2.11491 4.37894 2.26515 4.35044 2.41389C4.3022 2.65422 4.22022 2.88652 4.10694 3.10389C4.10694 3.10389 3.94344 3.41739 3.73044 3.63789C3.67825 3.69131 3.6237 3.74236 3.56694 3.79089L3.45744 3.88089C3.19396 4.0766 2.89004 4.21088 2.56794 4.27389C2.42544 4.30389 2.09844 4.30689 1.96494 4.30989H1.21644C0.626938 4.30989 0.148438 4.78989 0.148438 5.38389V6.63389C0.148438 7.22739 0.628438 7.70739 1.21644 7.70739H2.48844C2.77216 7.70554 3.04364 7.59161 3.2437 7.39042C3.44377 7.18924 3.55618 6.91712 3.55644 6.63339V5.73639C3.54644 5.42639 3.56694 4.84989 3.83994 4.46289C4.00994 4.22289 4.27994 4.00989 4.32594 3.97289C4.44772 3.87463 4.58187 3.79277 4.72494 3.72939C4.76844 3.70989 4.90494 3.65589 5.16744 3.60639V3.59989H5.16894Z" fill="white"/>
<path fill-rule="evenodd" clip-rule="evenodd" d="M10.9486 0.150391H9.64008C9.06708 0.150391 8.60508 0.613891 8.60508 1.18689V2.07039C8.60508 2.07039 8.60508 2.68389 8.45508 3.14039C8.29458 3.59289 7.88958 4.00389 7.48308 4.15389C7.00758 4.32789 6.45108 4.30389 6.16758 4.30389H5.37258C5.09834 4.30469 4.83563 4.41429 4.64213 4.60862C4.44864 4.80296 4.34018 5.06615 4.34058 5.34039V6.65739C4.34058 7.23039 4.80258 7.69389 5.37258 7.69389H6.68358C6.95782 7.6931 7.22053 7.58349 7.41402 7.38916C7.60752 7.19482 7.71598 6.93163 7.71558 6.65739L7.72558 6.10739C7.72008 5.90289 7.73958 5.48289 7.83858 5.17739C7.87458 5.06289 7.94808 4.85289 8.11458 4.62339C8.23458 4.45989 8.35158 4.35639 8.46958 4.24689C8.68608 4.05339 8.86908 3.94089 8.91958 3.91389C9.02958 3.84789 9.21958 3.73389 9.48858 3.64989C9.72858 3.57639 9.90858 3.56289 10.2146 3.54339C10.3946 3.52989 10.6436 3.52389 10.9436 3.54039C11.5166 3.54039 11.9786 3.07689 11.9786 2.50389V1.18689C11.9788 1.05089 11.9522 0.916181 11.9003 0.790468C11.8484 0.664756 11.7722 0.550503 11.6761 0.454242C11.5801 0.357981 11.466 0.281599 11.3403 0.229462C11.2147 0.177325 11.0801 0.150456 10.9441 0.150391H10.9486Z" fill="white"/>
</g>
<defs>
<clipPath id="clip0_2363_183">
<rect width="12" height="12" fill="white"/>
</clipPath>
</defs>
</svg>
