<svg width="12" height="12" viewBox="0 0 12 12" fill="none" xmlns="http://www.w3.org/2000/svg">
<path fill-rule="evenodd" clip-rule="evenodd" d="M4.17051 12C3.90551 12 3.75001 11.846 3.75001 11.588V11.4525C3.75001 11.1955 3.87401 11.075 4.10401 10.9895L4.61651 10.818C4.97051 10.6825 5.09351 10.5265 5.09351 10.1665V1.8335C5.09351 1.4735 4.97051 1.319 4.61651 1.182L4.10001 1.01C3.87001 0.9245 3.74951 0.806 3.74951 0.547V0.412C3.75001 0.1545 3.90901 0 4.17401 0H7.65801C7.92351 0 8.08301 0.1545 8.08301 0.412V0.5475C8.08301 0.8045 7.95851 0.925 7.72851 1.0105L7.21301 1.1805C6.84151 1.3165 6.71701 1.472 6.71701 1.832V10.164C6.71701 10.524 6.84151 10.678 7.21301 10.8155L7.72501 10.9865C7.95501 11.0725 8.07901 11.1905 8.07901 11.4495V11.5855C8.07901 11.843 7.92001 11.9975 7.65401 11.9975L4.17101 12H4.17051Z" fill="white"/>
</svg>
