<svg width="16" height="16" viewBox="0 0 16 16" fill="none" xmlns="http://www.w3.org/2000/svg">
<g clip-path="url(#clip0_2561_459)">
<path d="M6.00867 6.90674C2.62367 7.58074 1.60367 9.47514 2.19587 10.6443C2.81887 11.8747 4.54387 11.6889 7.47487 10.9761C7.72587 10.9151 3.14347 11.6899 2.91827 9.91954C2.64627 7.78114 6.00887 6.90674 6.00887 6.90674H6.00867Z" fill="black"/>
<path d="M6.00553 6.90645C5.96893 7.24985 6.17553 8.82045 8.42013 10.1625C10.8345 11.6059 13.2573 11.4457 13.7901 10.8061C14.3715 10.1083 13.3893 8.70125 12.2709 8.04105C11.7795 7.85645 13.2695 8.90425 12.8271 9.80365C12.5281 10.4115 11.2139 10.5441 8.34333 9.22305C6.53633 8.34905 5.99193 7.41905 6.00533 6.90625L6.00553 6.90645Z" fill="black"/>
<path d="M3.88246 7.01941C7.93226 3.04441 10.9941 4.52561 11.6175 5.98081C12.4019 7.81201 11.2373 8.89121 9.68446 9.06001C9.68446 9.06001 11.6917 7.89121 10.3233 6.04481C8.23906 3.23281 3.33186 7.55981 3.88266 7.01941H3.88246Z" fill="black"/>
</g>
<defs>
<clipPath id="clip0_2561_459">
<rect width="16" height="16" fill="white"/>
</clipPath>
</defs>
</svg>
