<svg width="256" height="257" viewBox="0 0 256 257" fill="none" xmlns="http://www.w3.org/2000/svg">
<path d="M218.04 218.83C267.921 168.949 267.918 88.0702 218.035 38.2002C168.152 -11.6788 87.2751 -11.6848 37.4051 38.1953C-12.4759 88.0753 -12.4729 168.955 37.41 218.825C87.292 268.708 168.17 268.709 218.04 218.83Z" fill="#A50034"/>
<path d="M88.9711 103.6C91.8835 103.586 94.7264 102.709 97.1414 101.08C99.5556 99.4522 101.434 97.1452 102.538 94.4504C103.643 91.7556 103.925 88.7933 103.348 85.939C102.771 83.0839 101.361 80.4643 99.297 78.4101C97.2321 76.3559 94.6052 74.9586 91.7477 74.3957C88.8909 73.8328 85.9303 74.129 83.2412 75.2465C80.5513 76.3648 78.2533 78.2538 76.6368 80.677C75.0203 83.0994 74.158 85.9463 74.158 88.8587C74.1621 90.7992 74.549 92.7201 75.296 94.5109C76.0437 96.3025 77.1359 97.9289 78.5111 99.2975C79.8871 100.666 81.5192 101.751 83.3133 102.489C85.1082 103.228 87.0306 103.605 88.9711 103.6ZM224.071 132.56H159.116V122.938H233.591C233.693 124.802 233.743 126.665 233.743 128.55C233.743 186.486 186.525 233.45 128.293 233.45C70.0592 233.45 22.8333 186.515 22.8333 128.55C22.8333 70.5904 70.0443 23.6504 128.283 23.6504C129.82 23.6504 131.35 23.6815 132.873 23.7445V33.2941C131.35 33.2262 129.825 33.1926 128.297 33.1926C75.3661 33.1926 32.4412 75.8866 32.4412 128.541C32.4412 181.196 75.3601 223.898 128.297 223.898C179.779 223.898 221.837 183.503 224.063 132.828L224.071 132.56ZM158.968 172.645H132.864V74.5719H123.213V182.332H132.886V182.267H158.99L158.968 172.645Z" fill="white"/>
</svg>
