<svg width="12" height="12" viewBox="0 0 12 12" fill="none" xmlns="http://www.w3.org/2000/svg">
<path fill-rule="evenodd" clip-rule="evenodd" d="M6.014 4.273L6.01 4.2755L7.525 6.9005C7.73522 7.2218 7.84697 7.59754 7.8465 7.9815C7.8465 8.3585 7.7405 8.7115 7.5565 9.0125L10.643 8.017L5.815 0L4.652 1.936L6.014 4.273ZM3.4185 12L5.8435 9.9735H5.837C4.7275 9.9735 3.8285 9.0815 3.8285 7.9815C3.8285 7.5845 3.946 7.2145 4.1485 6.9035L5.581 4.4155L4.3905 2.372L1 8.017L3.415 12H3.4185ZM6.8685 9.691H6.868L4.111 12H8.202L10.276 8.6155L6.8685 9.691Z" fill="white"/>
</svg>
