<?xml version="1.0" encoding="utf-8"?>
<svg xmlns="http://www.w3.org/2000/svg" viewBox="0 0 500 500">
  <linearGradient id="a" gradientTransform="matrix(0.205127, 0, 0, -0.205127, -6.141539, 505.857448)" gradientUnits="userSpaceOnUse" x1="573.85" x2="2217.65" y1="1291.09" y2="1208.07">
    <stop offset="0" stop-color="#0064e1"/>
    <stop offset="0.4" stop-color="#0064e1"/>
    <stop offset="0.83" stop-color="#0073ee"/>
    <stop offset="1" stop-color="#0082fb"/>
  </linearGradient>
  <linearGradient id="b" gradientTransform="matrix(0.205127, 0, 0, -0.205127, -6.141539, 505.857448)" gradientUnits="userSpaceOnUse" x1="400.24" x2="400.24" y1="888.86" y2="1494.91">
    <stop offset="0" stop-color="#0082fb"/>
    <stop offset="1" stop-color="#0064e0"/>
  </linearGradient>
  <path d="M 58.311 301.32 C 58.311 320.021 62.411 334.375 67.771 343.059 C 74.811 354.435 85.301 359.264 95.991 359.264 C 109.791 359.264 122.401 355.842 146.731 322.206 C 166.211 295.249 189.161 257.41 204.611 233.686 L 230.771 193.497 C 248.941 165.585 269.971 134.555 294.081 113.525 C 313.781 96.357 335.011 86.822 356.381 86.822 C 392.261 86.822 426.441 107.613 452.601 146.613 C 481.221 189.324 495.121 243.121 495.121 298.637 C 495.121 331.642 488.621 355.893 477.541 375.052 C 466.851 393.582 446.011 412.092 410.941 412.092 L 410.941 359.258 C 440.971 359.258 448.461 331.666 448.461 300.095 C 448.461 255.102 437.971 205.172 414.861 169.494 C 398.461 144.185 377.211 128.724 353.821 128.724 C 328.531 128.724 308.181 147.802 285.311 181.807 C 273.151 199.876 260.671 221.894 246.651 246.741 L 231.231 274.075 C 200.231 329.037 192.381 341.551 176.881 362.203 C 149.731 398.372 126.531 412.082 95.991 412.082 C 59.771 412.082 36.871 396.392 22.681 372.762 C 11.101 353.501 5.411 328.226 5.411 299.431 L 58.311 301.32 Z" fill="#0081fb" style=""/>
  <path d="M 47.121 150.334 C 71.371 112.953 106.371 86.813 146.501 86.813 C 169.751 86.813 192.861 93.693 216.991 113.396 C 243.391 134.935 271.521 170.422 306.621 228.884 L 319.201 249.857 C 349.591 300.473 366.871 326.511 376.991 338.79 C 390.001 354.558 399.111 359.258 410.941 359.258 C 440.971 359.258 448.461 331.669 448.461 300.095 L 495.121 298.631 C 495.121 331.636 488.621 355.887 477.541 375.046 C 466.851 393.572 446.011 412.082 410.941 412.082 C 389.141 412.082 369.831 407.352 348.481 387.202 C 332.071 371.741 312.871 344.272 298.101 319.581 L 254.181 246.217 C 232.151 209.396 211.931 181.944 200.231 169.512 C 187.651 156.142 171.471 139.997 145.651 139.997 C 124.761 139.997 107.011 154.66 92.161 177.089 L 47.121 150.334 Z" fill="url(#a)" style=""/>
  <path d="M 145.651 139.997 C 124.761 139.997 107.011 154.66 92.161 177.089 C 71.161 208.782 58.321 255.988 58.321 301.32 C 58.321 320.021 62.421 334.375 67.781 343.059 L 22.681 372.762 C 11.101 353.501 5.411 328.226 5.411 299.431 C 5.411 247.064 19.781 192.485 47.121 150.334 C 71.371 112.953 106.371 86.813 146.501 86.813 L 145.651 139.997 Z" fill="url(#b)" style=""/>
</svg>