<svg width="12" height="12" viewBox="0 0 12 12" fill="none" xmlns="http://www.w3.org/2000/svg">
<g clip-path="url(#clip0_2337_10)">
<path fill-rule="evenodd" clip-rule="evenodd" d="M0.526007 8.45801L5.29551 9.73401C5.28909 10.0731 5.2991 10.4124 5.32551 10.7505L8.30351 11.547C7.42024 11.9116 6.46267 12.0599 5.51051 11.9795L5.42051 11.9715L5.39851 11.9695L5.35651 11.965L5.30951 11.96C5.28332 11.9569 5.25715 11.9535 5.23101 11.95L5.17751 11.943L5.12251 11.935C5.06906 11.9272 5.01572 11.9187 4.96251 11.9095L4.94151 11.9055L4.90401 11.899L4.85051 11.889L4.81551 11.8815L4.76901 11.872L4.73151 11.864L4.68401 11.854L4.63551 11.8425L4.58851 11.8315L4.55451 11.823L4.51051 11.812L4.46551 11.8L4.41801 11.7875L4.37701 11.776L4.32251 11.761L4.29151 11.751L4.24951 11.7385L4.20301 11.7245L4.15051 11.7075L4.12151 11.698L4.08151 11.685L4.03651 11.6695L4.00351 11.6575C3.99616 11.655 3.98883 11.6525 3.98151 11.65L3.94751 11.6375L3.89701 11.619L3.86851 11.608L3.82851 11.593L3.78501 11.5755L3.74101 11.558L3.70151 11.542L3.65401 11.522L3.62251 11.508L3.59101 11.4945C3.58416 11.4915 3.57733 11.4885 3.57051 11.4855L3.53751 11.4705L3.48601 11.447L3.46001 11.435L3.41201 11.412L3.38101 11.397L3.33901 11.377L3.29601 11.355L3.24951 11.3315L3.22351 11.318L3.17201 11.2905L3.14351 11.2755L3.11451 11.2595C3.10682 11.2552 3.09916 11.2509 3.09151 11.2465L3.04451 11.22L3.01451 11.203L2.98901 11.188L2.95301 11.1675L2.91201 11.1425L2.86551 11.1145L2.83951 11.0985L2.79751 11.072L2.76701 11.0525L2.72751 11.0275L2.69251 11.004L2.66601 10.9865C2.65698 10.9805 2.64798 10.9745 2.63901 10.9685L2.61701 10.9535L2.59501 10.9385C2.58832 10.9339 2.58165 10.9292 2.57501 10.9245L2.54651 10.9045L2.50851 10.8775L2.47401 10.8525L2.43701 10.8255L2.40901 10.8045L2.37101 10.776L2.33301 10.7465L2.29001 10.713L2.26751 10.6955L2.23551 10.6695L2.19851 10.6395L2.15401 10.603L2.13101 10.5835L2.10801 10.564C2.10082 10.5579 2.09365 10.5517 2.08651 10.5455L2.06401 10.5255L2.03351 10.499L1.99851 10.468L1.96451 10.438L1.93351 10.409L1.90001 10.378L1.87351 10.353L1.82951 10.311C1.81292 10.2949 1.79642 10.2788 1.78001 10.2625L1.76551 10.2485L1.74501 10.2275L1.71051 10.1925L1.68551 10.167L1.66051 10.1405C1.63194 10.1112 1.60394 10.0814 1.57651 10.051L1.53651 10.007L1.50551 9.97201L1.47001 9.93201L1.44901 9.90751L1.42251 9.87651L1.39351 9.84251L1.37051 9.81451C1.36599 9.80902 1.36149 9.80353 1.35701 9.79801L1.33451 9.77051L1.30151 9.72951L1.28101 9.70351L1.25601 9.67151L1.24601 9.65901C0.959916 9.28818 0.718268 8.8851 0.526007 8.45801ZM0.0160067 5.56101L5.69251 7.07951C5.59747 7.41052 5.51921 7.74611 5.45801 8.08501L10.8665 9.53201C10.5978 9.89991 10.2883 10.2362 9.94401 10.5345L0.328507 7.96151L0.320507 7.93851L0.303007 7.88651C0.294502 7.86107 0.286168 7.83557 0.278007 7.81001L0.274507 7.79851C0.236021 7.67616 0.201503 7.5526 0.171007 7.42801L0.156007 7.36501L0.147007 7.32501L0.136507 7.27651L0.127507 7.23601L0.118507 7.19101L0.110007 7.14901L0.101007 7.10201C0.0880067 7.03151 0.0760067 6.96051 0.0655067 6.88901L0.0570067 6.83001L0.0515067 6.78851L0.0450067 6.73751C0.0416589 6.7107 0.0384922 6.68387 0.0355067 6.65701L0.0330067 6.63351C-0.00435025 6.27722 -0.0100392 5.91831 0.0160067 5.56101ZM0.812507 2.98601L6.78651 4.58401C6.60251 4.88651 6.43401 5.19951 6.28151 5.52151L11.929 7.03251C11.858 7.44251 11.745 7.83851 11.595 8.21501L5.82001 6.67001L0.0620067 5.13001L0.0695067 5.08001L0.0735067 5.05551L0.0785067 5.02201L0.0860067 4.97851L0.0950067 4.92951C0.108007 4.85551 0.123007 4.78201 0.139007 4.70851L0.153007 4.64651L0.163007 4.60401L0.175007 4.55551C0.186007 4.51051 0.197507 4.46551 0.210007 4.42151L0.224007 4.37051L0.235507 4.32901L0.250507 4.27901L0.263007 4.23801L0.278007 4.19001L0.291007 4.14901L0.306507 4.10151C0.435984 3.71312 0.605215 3.33914 0.811507 2.98551L0.812507 2.98601ZM3.03351 0.786012L8.67601 2.29501C8.37825 2.56526 8.09644 2.85258 7.83201 3.15551L11.7435 4.20201C11.877 4.62801 11.9645 5.07401 12 5.53451L1.05301 2.60651L1.07551 2.57401L1.08901 2.55401L1.10901 2.52651L1.13201 2.49401L1.15951 2.45601L1.18651 2.42001L1.21851 2.37701L1.24351 2.34451L1.27201 2.30801L1.29951 2.27301L1.32951 2.23601L1.35701 2.20151L1.38951 2.16301L1.41651 2.13001L1.44951 2.09151L1.47601 2.06151L1.51201 2.02051L1.53851 1.99051L1.57201 1.95351L1.59901 1.92451L1.63551 1.88551L1.66451 1.85551L1.69601 1.82201L1.78001 1.73701L1.83001 1.68801L1.85951 1.66001L1.89751 1.62451C2.2421 1.30158 2.62337 1.02015 3.03351 0.786012ZM6.00851 1.17188e-05H6.05701L6.09801 0.000511719L6.13251 0.00101172L6.15951 0.00201172L6.19351 0.00301172L6.21651 0.00351172L6.25451 0.00501172L6.27801 0.00601172L6.30801 0.00751172L6.33501 0.00851172L6.37851 0.0110117L6.43101 0.0145117L6.50301 0.0200117L6.54701 0.0235117L6.56901 0.0255117L6.60751 0.0295117L6.64851 0.0335117L6.67201 0.0360117L6.72301 0.0420117L6.74801 0.0450117L6.80201 0.0520117L6.84251 0.0570117L6.86351 0.0600117L6.89601 0.0650117L6.99951 0.0810117L7.03451 0.0870117L7.06701 0.0925117L7.13701 0.105512L7.18301 0.114512L7.23801 0.125512L7.26101 0.130512L7.29851 0.138512L7.31901 0.143512L7.35001 0.150012L7.37101 0.155012L7.40351 0.162512L7.42801 0.168512L7.46351 0.177012L7.51151 0.189012L7.56751 0.204012L7.62401 0.219012L7.68051 0.235012L7.70551 0.242512L7.74051 0.252512L7.77951 0.264512L7.81601 0.276012L7.84101 0.284012L7.86601 0.292012L7.90401 0.304512L7.95351 0.321012L8.00451 0.339012L8.02851 0.347512L8.06051 0.359012L8.10701 0.376012L8.16201 0.396512L8.22001 0.419012L8.27001 0.439012L8.29351 0.449012L8.32351 0.461012L8.34401 0.470012L8.37551 0.483012L8.39551 0.492012L8.42401 0.504512L8.47901 0.528512L8.52901 0.551512L8.56601 0.569012L8.60351 0.587012L8.63351 0.601012L8.67951 0.624012L8.72501 0.646512L8.77601 0.672512L8.80251 0.686512L8.82701 0.699512L8.85001 0.711512L8.88001 0.728012L8.90051 0.739012L8.92651 0.753512L8.97051 0.778512L9.02351 0.808512L9.06701 0.834012L9.09551 0.851012L9.12201 0.867012L9.17001 0.896512L9.21401 0.924012L9.26301 0.955012L9.28101 0.967012L9.31301 0.987512L9.35501 1.01551L9.37501 1.02901L9.40601 1.05001L9.43701 1.07151L9.44851 1.08001C9.47551 1.09851 9.50251 1.11751 9.52901 1.13701L9.57051 1.16701L9.60301 1.19101L9.63101 1.21251L9.67401 1.24501L9.71501 1.27701L9.73501 1.29201L9.76001 1.31251L9.80301 1.34701L9.84251 1.37951L9.88501 1.41501C10.241 1.71501 10.5615 2.05651 10.8395 2.43051L3.61101 0.497012L3.64201 0.483512L3.67451 0.469512L3.71501 0.452512L3.75801 0.435012C3.81451 0.412512 3.87151 0.390012 3.92851 0.369512L3.97651 0.352012L4.02301 0.335512L4.06501 0.320512L4.11301 0.305012C4.15651 0.290012 4.20101 0.276012 4.24501 0.262512L4.29051 0.249012L4.33351 0.236512L4.38451 0.221512L4.42701 0.210012L4.47701 0.197012L4.52001 0.185012L4.56501 0.173512L4.61051 0.162512L4.65801 0.151512L4.70301 0.141512L4.75201 0.131012L4.79751 0.121012L4.84501 0.112012L4.89101 0.103012L4.94101 0.0940117L4.98651 0.0860117L5.03551 0.0775117L5.08151 0.0705117L5.13001 0.0630117L5.17601 0.0565117L5.22701 0.0500117L5.27251 0.0440117L5.32501 0.0380117L5.37001 0.0330117L5.42251 0.0280117C5.46901 0.0230117 5.51551 0.0190117 5.56251 0.0160117L5.61551 0.0120117L5.66051 0.00951172L5.71551 0.00651172L5.76201 0.00451172L5.81201 0.00251172L5.86051 0.00151172L5.91001 0.000511719L6.00851 -0.000488281V1.17188e-05Z" fill="white"/>
</g>
<defs>
<clipPath id="clip0_2337_10">
<rect width="12" height="12" fill="white"/>
</clipPath>
</defs>
</svg>
