<svg width="12" height="12" viewBox="0 0 12 12" fill="none" xmlns="http://www.w3.org/2000/svg">
<g clip-path="url(#clip0_2337_15)">
<path fill-rule="evenodd" clip-rule="evenodd" d="M2.96899 6.41771C3.03249 6.39821 3.11149 6.4277 3.15549 6.4892C3.16949 6.5082 3.17349 6.53521 3.17849 6.55921C3.17999 6.56621 3.16849 6.57571 3.15849 6.58421C3.09649 6.53521 3.03849 6.4872 2.98149 6.4387C2.97599 6.4337 2.97349 6.42521 2.96899 6.41771ZM4.19799 4.7062C4.29549 4.6902 4.39299 4.67621 4.49199 4.68121C4.51715 4.68207 4.54205 4.68644 4.56599 4.6942C4.66699 4.7297 4.76699 4.76771 4.86649 4.80621C4.88049 4.81121 4.89149 4.8242 4.90399 4.8337L4.89749 4.84721C4.85394 4.83302 4.8106 4.81818 4.76749 4.8027C4.70999 4.7837 4.66099 4.76421 4.60999 4.75371C4.48499 4.72871 4.48499 4.73071 4.46399 4.74671L4.75099 4.81871C4.88849 4.88821 5.02599 4.9567 5.16249 5.0272C5.18349 5.0382 5.20749 5.05571 5.21599 5.07621C5.22899 5.10621 5.24749 5.1142 5.27449 5.1122C5.30749 5.1092 5.34049 5.1037 5.38099 5.0987L5.36099 5.14171C5.38649 5.18171 5.43199 5.15171 5.46899 5.17371C5.43199 5.23871 5.34549 5.2187 5.30199 5.2732L5.33249 5.3102L5.27249 5.3537C5.27249 5.4067 5.25349 5.4377 5.11949 5.4752L5.13249 5.5177L5.03449 5.5387L5.06949 5.60071H4.94449L4.94099 5.66921C4.90049 5.66421 4.86049 5.6602 4.81899 5.6557L4.79249 5.71721C4.77899 5.71321 4.76649 5.71171 4.75599 5.70571C4.72249 5.68671 4.69199 5.6777 4.65849 5.7087C4.64899 5.7172 4.62699 5.71571 4.61199 5.71271C4.59899 5.70971 4.58699 5.69821 4.57699 5.69171C4.52199 5.73921 4.52199 5.7392 4.47299 5.6932C4.44449 5.7162 4.41299 5.73021 4.37999 5.69871C4.34849 5.71221 4.31849 5.68871 4.29099 5.69171C4.25599 5.69521 4.24249 5.6742 4.22449 5.6567L4.15949 5.6732C4.15299 5.5552 4.06249 5.5782 3.98949 5.5717C3.99199 5.5357 4.01449 5.5257 4.03699 5.5247C4.06393 5.52383 4.09081 5.52755 4.11649 5.53571C4.19849 5.56071 4.27649 5.5957 4.36449 5.6047C4.46599 5.6152 4.56699 5.61921 4.66499 5.59721C4.79749 5.56771 4.92499 5.52271 5.01849 5.41471C5.04299 5.38671 5.05999 5.3512 5.07699 5.3172C5.08649 5.2982 5.08699 5.2752 5.06699 5.2592C5.00945 5.21319 4.94498 5.17657 4.87599 5.1507C4.88799 5.2107 4.86049 5.24171 4.81849 5.26121C4.81849 5.26821 4.81649 5.27371 4.81849 5.27621C4.85849 5.33371 4.86049 5.35621 4.81499 5.40971C4.78262 5.44874 4.74607 5.48412 4.70599 5.5152C4.65907 5.55175 4.60019 5.56944 4.5409 5.56482C4.48161 5.56019 4.42618 5.53358 4.38549 5.4902C4.36147 5.46655 4.33925 5.44115 4.31899 5.41421C4.27999 5.36071 4.28099 5.36021 4.30249 5.29621C4.21999 5.25621 4.23849 5.1832 4.25049 5.1142C4.25449 5.0892 4.26449 5.0662 4.27499 5.0327C4.25499 5.0397 4.24149 5.04121 4.23149 5.04871C4.16369 5.09286 4.10909 5.15454 4.07349 5.22721C4.06999 5.23521 4.06849 5.24421 4.06349 5.25071C4.05749 5.25821 4.04649 5.26971 4.04099 5.26821C4.03099 5.26521 4.02249 5.25471 4.01599 5.24571C4.01199 5.23971 4.01249 5.22971 4.00999 5.21721H3.94699L3.97349 5.13121C3.96701 5.12302 3.96051 5.11486 3.95399 5.10671L4.00899 4.9647C3.97899 4.9777 3.96349 4.9867 3.94699 4.9902C3.93199 4.9937 3.91499 4.9902 3.89949 4.9902C3.89949 4.9747 3.89449 4.9552 3.90149 4.9442C3.97599 4.8342 4.05399 4.7302 4.19799 4.7062Z" fill="white"/>
<path fill-rule="evenodd" clip-rule="evenodd" d="M4.02999 5.39414C4.02849 5.37514 4.02799 5.35664 4.04849 5.36314C4.05649 5.36614 4.06549 5.38714 4.06249 5.39664C4.05749 5.41664 4.04299 5.41264 4.02999 5.39414Z" fill="white"/>
<path fill-rule="evenodd" clip-rule="evenodd" d="M5.99051 0.00431454C6.10351 -0.00168546 6.21701 -0.00118546 6.33001 0.00431454C6.45351 0.00931454 6.57751 0.0163145 6.70001 0.0353145C6.90051 0.0673145 7.09901 0.113815 7.29501 0.171815C7.52651 0.240815 7.75501 0.321315 7.97301 0.427315C8.57649 0.723697 9.08653 1.18079 9.44701 1.74831C9.59301 1.98281 9.71501 2.22981 9.81651 2.48781C9.92601 2.76581 10.0395 3.04281 10.128 3.32931C10.23 3.65631 10.2925 3.99231 10.357 4.32781C10.4055 4.57981 10.448 4.83281 10.502 5.08331C10.58 5.44431 10.6665 5.80331 10.749 6.16331C10.842 6.56931 10.949 6.97081 11.064 7.37081C11.115 7.54831 11.1605 7.72731 11.205 7.90681C11.26 8.12481 11.306 8.34481 11.332 8.56831C11.3475 8.70731 11.365 8.84682 11.3685 8.98682C11.3742 9.13352 11.3714 9.28044 11.36 9.42682C11.3415 9.63332 11.31 9.83581 11.247 10.0328C11.148 10.3341 10.9928 10.6139 10.7895 10.8573L10.7245 10.9353L10.7335 10.9468C10.755 10.9353 10.7775 10.9263 10.797 10.9128C10.897 10.8438 10.9835 10.7593 11.0625 10.6678C11.2625 10.4378 11.423 10.1813 11.55 9.90331C11.6743 9.63445 11.7301 9.339 11.7125 9.04331C11.7005 8.83131 11.664 8.62632 11.5625 8.43682C11.556 8.42332 11.555 8.40682 11.5475 8.37632C11.5725 8.39382 11.5885 8.40032 11.598 8.41232C11.6515 8.47732 11.708 8.54131 11.7555 8.61131C11.9205 8.85831 11.9855 9.13732 11.9985 9.43132C12.012 9.77499 11.9307 10.1157 11.7635 10.4163C11.5835 10.7438 11.32 10.9863 11.0005 11.1693C10.904 11.2248 10.8035 11.2743 10.703 11.3233C10.6245 11.3623 10.579 11.4288 10.544 11.5058C10.5278 11.5368 10.518 11.5708 10.5151 11.6056C10.5123 11.6405 10.5165 11.6756 10.5275 11.7088C10.5342 11.7313 10.5364 11.7549 10.534 11.7783C10.5315 11.8168 10.4955 11.8558 10.464 11.8593C10.437 11.8623 10.4015 11.8378 10.389 11.8013C10.3752 11.7636 10.3651 11.7246 10.359 11.6848C10.339 11.5278 10.2815 11.3848 10.205 11.2498C10.1068 11.0807 9.98377 10.9274 9.84001 10.7948C9.71444 10.6718 9.56035 10.5818 9.39151 10.5328C9.27827 10.5011 9.16251 10.4792 9.04551 10.4673C9.00801 10.4633 8.97051 10.4473 8.93551 10.4723C9.02551 10.5023 9.11701 10.5273 9.20451 10.5623C9.42151 10.6488 9.61451 10.7773 9.79451 10.9263C9.94851 11.0538 10.0845 11.1978 10.1915 11.3683C10.2405 11.4458 10.2845 11.5258 10.305 11.6163C10.3185 11.6778 10.326 11.7413 10.3385 11.8038C10.345 11.8348 10.3375 11.8583 10.312 11.8758C10.2885 11.8923 10.251 11.8928 10.2305 11.8708C10.2131 11.85 10.1996 11.8263 10.1905 11.8008C10.1755 11.7643 10.1715 11.7213 10.1515 11.6883C9.95743 11.3769 9.71758 11.0964 9.44001 10.8563C9.36001 10.7878 9.27551 10.7263 9.17151 10.6948C8.98351 10.6378 8.79501 10.5933 8.59651 10.6178C8.49001 10.6303 8.38301 10.6338 8.27651 10.6443C8.14419 10.6593 8.01769 10.7071 7.90851 10.7833C7.75701 10.888 7.61721 11.0087 7.49151 11.1433C7.32701 11.3143 7.17051 11.4928 7.01401 11.6708C6.94601 11.7483 6.88201 11.8303 6.85701 11.9363C6.85497 11.9448 6.85297 11.9533 6.85101 11.9618C6.8488 11.9722 6.84317 11.9816 6.83502 11.9885C6.82687 11.9954 6.81667 11.9994 6.80601 11.9998H6.65101C6.62801 11.9998 6.61001 11.9758 6.61501 11.9528C6.62651 11.8988 6.63751 11.8448 6.65001 11.7908C6.68751 11.6283 6.74501 11.4733 6.83401 11.3323C6.84601 11.3128 6.85401 11.2883 6.88601 11.2923L6.89101 11.3168L6.90451 11.3553C7.04451 11.1378 7.19001 10.9383 7.40251 10.7878C7.54401 10.6858 7.69451 10.5988 7.84751 10.5128C7.83152 10.5083 7.81466 10.508 7.79851 10.5118C7.71751 10.5333 7.63601 10.5538 7.55601 10.5788C7.35501 10.6408 7.17401 10.7438 7.00101 10.8618C6.92751 10.9118 6.85201 10.9583 6.79401 11.0283C6.57478 11.296 6.39465 11.5935 6.25901 11.9118C6.25085 11.9313 6.24417 11.9513 6.23901 11.9718C6.23692 11.9798 6.23226 11.9869 6.22575 11.9919C6.21925 11.997 6.21125 11.9998 6.20301 11.9998H5.95601C5.93601 11.9998 5.92501 11.9743 5.93801 11.9588C5.99951 11.8888 6.06101 11.8178 6.12651 11.7513C6.26401 11.6108 6.41651 11.4853 6.51501 11.3093C6.52851 11.2853 6.54651 11.2643 6.56251 11.2418C6.68151 11.0753 6.83251 10.9383 6.97151 10.7908C7.01251 10.7478 7.05901 10.7108 7.10151 10.6708C7.11601 10.6573 7.12801 10.6423 7.14101 10.6283L7.13201 10.6158L7.06451 10.6363C7.04751 10.6448 7.02951 10.6518 7.01351 10.6613C6.88951 10.7333 6.76651 10.8073 6.64201 10.8778C6.43801 10.9928 6.22951 11.0973 6.03751 11.2333C5.89701 11.3333 5.74201 11.4123 5.59301 11.4998C5.58301 11.5058 5.57101 11.5073 5.55301 11.5138C5.54551 11.4463 5.62451 11.4133 5.60701 11.3458C5.59051 11.3528 5.57501 11.3558 5.56451 11.3648C5.50901 11.4128 5.45101 11.4598 5.40051 11.5128C5.32651 11.5913 5.25851 11.6753 5.18801 11.7568C5.12551 11.8283 5.06301 11.8998 5.00151 11.9723C4.99458 11.9806 4.98595 11.9874 4.97621 11.9921C4.96647 11.9969 4.95584 11.9995 4.94501 11.9998H4.38101C4.38417 11.993 4.38684 11.986 4.38901 11.9788C4.40301 11.9338 4.43151 11.8928 4.43051 11.8388C4.38501 11.8298 4.34951 11.8393 4.32451 11.8773C4.30082 11.9125 4.27815 11.9483 4.25651 11.9848C4.25151 11.9928 4.24451 11.9998 4.23551 11.9998H4.18901C4.17951 11.9998 4.17451 11.9888 4.18051 11.9813C4.21601 11.9373 4.25051 11.8923 4.28501 11.8473C4.28551 11.8463 4.28201 11.8413 4.27901 11.8353C4.27201 11.8373 4.26401 11.8383 4.25651 11.8418C4.16851 11.8868 4.08051 11.9323 3.99301 11.9788C3.96711 11.9925 3.93829 11.9997 3.90901 11.9998H2.60101C2.58801 11.9998 2.58151 11.9818 2.59151 11.9733C2.69651 11.8843 2.79251 11.7863 2.87051 11.6708C3.03801 11.4228 3.13951 11.1473 3.20401 10.8563C3.20601 10.8463 3.20251 10.8348 3.20101 10.8108C3.18251 10.8348 3.17151 10.8468 3.16301 10.8608C3.11713 10.9373 3.06094 11.0071 2.99601 11.0683C2.85601 11.1973 2.70101 11.2923 2.50451 11.3003C2.35601 11.3063 2.21051 11.3003 2.07201 11.2368C1.84201 11.1318 1.71101 10.9518 1.67501 10.7008C1.66251 10.6158 1.66651 10.6153 1.58401 10.5913C1.36758 10.5332 1.16425 10.4343 0.985009 10.2998C0.794994 10.1579 0.653807 9.9605 0.581009 9.73481C0.517776 9.53367 0.49069 9.32291 0.501009 9.11232C0.502009 9.09532 0.509009 9.07881 0.513009 9.06231C0.529009 9.07381 0.536009 9.08381 0.538009 9.09531C0.554509 9.17181 0.567509 9.24931 0.586009 9.32531C0.629009 9.50281 0.714509 9.65731 0.844009 9.78531C0.973009 9.91331 1.12951 9.99482 1.29901 10.0513C1.47801 10.1103 1.65751 10.1203 1.83401 10.0433C1.95189 9.99003 2.05757 9.91311 2.14451 9.81732C2.30851 9.64332 2.41101 9.43732 2.46851 9.20582C2.47301 9.18882 2.47101 9.17032 2.47201 9.15082C2.46451 9.15382 2.45901 9.15381 2.45701 9.15631C2.44151 9.18131 2.42501 9.20632 2.41051 9.23232C2.26851 9.48332 2.07101 9.67582 1.81251 9.79982C1.63701 9.88482 1.45351 9.92732 1.25751 9.87932C1.0614 9.837 0.888218 9.72285 0.772009 9.55931C0.672866 9.4232 0.609588 9.26432 0.588009 9.09731C0.56865 8.95001 0.572023 8.8006 0.598009 8.65431C0.623009 8.43481 0.831009 8.06932 0.969009 8.01882C0.959009 8.05032 0.951509 8.07481 0.942509 8.09881C0.921009 8.15681 0.894009 8.21231 0.877509 8.27131C0.839392 8.40453 0.830859 8.54446 0.852509 8.68132C0.869009 8.78732 0.897509 8.88931 0.954509 8.98131C1.02801 9.09931 1.12751 9.18481 1.26451 9.21381C1.31951 9.22531 1.37701 9.22081 1.43351 9.22281C1.50368 9.22524 1.57231 9.20194 1.62651 9.15732C1.70851 9.09332 1.76751 9.01131 1.80951 8.91681C1.89351 8.72931 1.92951 8.52832 1.96401 8.32732C1.98901 8.17932 2.01051 8.03031 2.03051 7.88081C2.05001 7.74031 2.06601 7.59931 2.08251 7.45831C2.09551 7.34231 2.10651 7.22631 2.11951 7.11031C2.13151 6.99631 2.14551 6.88281 2.15751 6.76881C2.16951 6.65531 2.18101 6.54131 2.19201 6.42731C2.19851 6.35731 2.20301 6.28731 2.20901 6.21731L2.22751 6.00881C2.23851 5.88381 2.24801 5.75881 2.26001 5.63481C2.26401 5.59381 2.25001 5.56881 2.21501 5.54631C2.12418 5.48776 2.04147 5.41749 1.96901 5.33731C1.91901 5.28281 1.87501 5.22331 1.82801 5.16631C1.81051 5.14531 1.80001 5.11781 1.77001 5.10731C1.79976 5.21346 1.84617 5.31421 1.90751 5.40581C1.93751 5.45181 1.97301 5.49381 2.00551 5.53831C2.03701 5.58131 2.09651 5.59581 2.12251 5.65131C2.10851 5.65281 2.09951 5.65631 2.09251 5.65431C2.05562 5.6457 2.01894 5.63619 1.98251 5.62581C1.73322 5.55375 1.50987 5.41162 1.33901 5.21631C1.12151 4.97281 1.01101 4.67831 0.984009 4.35481C0.968302 4.17837 0.970648 4.00078 0.991009 3.82481C1.02701 3.52381 1.10101 3.23181 1.21601 2.95231C1.29351 2.76431 1.38501 2.58181 1.47901 2.40131C1.58151 2.20481 1.71201 2.02631 1.86151 1.86331C2.11751 1.58381 2.41351 1.35131 2.72451 1.13931C3.08301 0.894315 3.46351 0.690315 3.86301 0.522815C4.12201 0.413815 4.38351 0.315815 4.65501 0.246815C4.98251 0.163815 5.31001 0.0818145 5.64601 0.0393145C5.76051 0.0243145 5.87501 0.0103145 5.99001 0.00431454H5.99051ZM5.06701 11.4143C5.03201 11.4443 4.99351 11.4698 4.96351 11.5043C4.84451 11.6393 4.73151 11.7788 4.62951 11.9388L4.60751 11.9928C4.62562 11.9884 4.6419 11.9785 4.65401 11.9643C4.74101 11.8693 4.82951 11.7753 4.91351 11.6773C4.96551 11.6163 5.01101 11.5498 5.05751 11.4843C5.06951 11.4673 5.07251 11.4443 5.08051 11.4243L5.06701 11.4143ZM5.89201 9.56682C5.77543 9.65676 5.66624 9.75591 5.56551 9.86331L5.38051 10.0563C5.32849 10.1124 5.26388 10.1552 5.19201 10.1813C5.11739 10.2098 5.03837 10.225 4.95851 10.2263C4.93651 10.2263 4.91501 10.2293 4.88301 10.2323C4.89701 10.2613 4.90451 10.2808 4.91501 10.2978C4.99001 10.4188 5.06551 10.5388 5.14001 10.6598C5.20801 10.7698 5.27801 10.8788 5.33951 10.9928C5.37351 11.0553 5.39201 11.1263 5.41751 11.1948C5.45601 11.2083 5.48751 11.1858 5.51851 11.1708C5.66351 11.1033 5.80801 11.0338 5.95201 10.9648C6.05851 10.9143 6.17051 10.8718 6.27001 10.8098C6.44351 10.7023 6.61001 10.5823 6.77901 10.4673C6.78651 10.4623 6.79201 10.4533 6.80001 10.4443C6.78851 10.4348 6.78101 10.4258 6.77201 10.4223C6.62851 10.3668 6.50851 10.2723 6.38701 10.1813C6.29843 10.1166 6.21393 10.0465 6.13401 9.97132C6.04234 9.879 5.97232 9.76749 5.92901 9.64482C5.91951 9.62032 5.90651 9.59732 5.89151 9.56682H5.89201ZM2.96851 9.69882C2.93851 9.74682 2.92001 9.79581 2.90251 9.84531C2.8396 10.0283 2.74574 10.1991 2.62501 10.3503C2.52501 10.4753 2.39751 10.5563 2.24401 10.5968C2.12901 10.6268 2.01201 10.6348 1.89401 10.6318C1.87001 10.6308 1.84551 10.6328 1.81501 10.6343C1.82301 10.6543 1.82551 10.6673 1.83251 10.6768C1.88251 10.7493 1.94751 10.7998 2.03251 10.8243C2.11101 10.8473 2.19051 10.8413 2.28151 10.8358C2.37201 10.8173 2.45301 10.7783 2.52401 10.7188C2.64301 10.6193 2.72501 10.4918 2.79201 10.3528C2.87951 10.1713 2.92401 9.97732 2.96301 9.78082C2.96801 9.75432 2.96701 9.72582 2.96851 9.69882ZM10.441 7.40581C10.445 7.42031 10.449 7.43431 10.4545 7.45931C10.4665 7.53681 10.48 7.61431 10.4905 7.69131C10.5055 7.80081 10.524 7.90982 10.5295 8.01982C10.538 8.19182 10.543 8.36431 10.5225 8.53631C10.504 8.69381 10.491 8.85281 10.4645 9.00931C10.4209 9.27118 10.3436 9.5263 10.2345 9.76832C10.2305 9.77732 10.2295 9.78781 10.2245 9.80931C10.248 9.79431 10.263 9.78832 10.2735 9.77732C10.316 9.73582 10.3585 9.69381 10.3975 9.64981C10.533 9.49731 10.6265 9.31981 10.6955 9.12831C10.7855 8.87931 10.8095 8.62281 10.768 8.36281C10.7165 8.03781 10.603 7.73131 10.4695 7.42231C10.4655 7.41313 10.4615 7.40397 10.4575 7.39481L10.441 7.40581ZM2.89851 4.14481C2.89371 4.17064 2.89685 4.19731 2.90751 4.22131C2.96951 4.34681 3.03251 4.47181 3.09701 4.59631C3.10951 4.62081 3.13001 4.64131 3.11201 4.67781C2.97001 4.70781 2.82301 4.73731 2.67201 4.80531C2.70151 4.82431 2.72051 4.83531 2.73801 4.84881C2.75901 4.86481 2.79401 4.87781 2.78301 4.90881C2.77801 4.92531 2.74551 4.93281 2.72451 4.94481C2.73301 4.94981 2.74601 4.95531 2.75801 4.96281C2.84101 5.01381 2.92301 5.06631 2.98151 5.14681C3.05051 5.24281 3.09601 5.34881 3.07551 5.46881C3.03601 5.70331 2.92251 5.89381 2.73051 6.03481C2.70351 6.05481 2.67751 6.07631 2.65001 6.09581C2.63046 6.10903 2.61517 6.12765 2.60603 6.1494C2.59688 6.17115 2.59427 6.1951 2.59851 6.21831C2.60334 6.25188 2.61259 6.28467 2.62601 6.31581C2.66751 6.41381 2.73601 6.49081 2.81351 6.56181C2.85501 6.59981 2.89301 6.64381 2.92451 6.69031C2.94334 6.71771 2.95443 6.74968 2.95663 6.78285C2.95883 6.81602 2.95205 6.84917 2.93701 6.87881C2.92551 6.90381 2.91201 6.92831 2.89901 6.95281C2.88401 6.98281 2.88501 7.00831 2.91001 7.03381C2.93051 7.05481 2.95001 7.07831 2.96601 7.10281C2.98501 7.13181 3.00501 7.14231 3.03951 7.12781C3.09292 7.10723 3.15189 7.10617 3.20601 7.12481C3.28601 7.14781 3.35701 7.18781 3.42801 7.22981C3.49301 7.26831 3.56001 7.30431 3.62801 7.33931C3.66151 7.35681 3.69801 7.36431 3.73751 7.35231C3.77301 7.34131 3.79951 7.35731 3.81001 7.39031C3.82001 7.42231 3.80851 7.44431 3.77301 7.45981C3.73801 7.47481 3.70451 7.49131 3.66851 7.50381C3.61851 7.52131 3.56801 7.54031 3.51151 7.54231C3.50501 7.48881 3.56651 7.49831 3.57501 7.46281C3.47201 7.39981 3.25351 7.39031 3.17451 7.44581C3.20601 7.50181 3.19201 7.55081 3.12651 7.60231C3.06151 7.55231 3.11401 7.50131 3.12751 7.45231C3.11373 7.44943 3.09951 7.44935 3.0857 7.4521C3.07189 7.45484 3.05878 7.46035 3.04715 7.46829C3.03552 7.47623 3.02562 7.48643 3.01803 7.49829C3.01045 7.51016 3.00534 7.52343 3.00301 7.53731C2.99551 7.58781 3.03651 7.64531 3.09201 7.64931C3.14601 7.65281 3.20101 7.64681 3.25501 7.64331C3.28501 7.64081 3.31501 7.62981 3.35451 7.64331C3.30301 7.70481 3.23051 7.70681 3.17601 7.73831C3.17701 7.76331 3.21101 7.78131 3.18551 7.80381C3.15901 7.82781 3.13801 7.80331 3.11951 7.78881C3.07951 7.75731 3.03951 7.72581 3.00401 7.69031C2.95905 7.65032 2.93099 7.59473 2.92551 7.53481C2.92332 7.50513 2.91605 7.47604 2.90401 7.44881C2.88801 7.41181 2.88801 7.38031 2.92051 7.35381C2.91151 7.33881 2.90651 7.32731 2.89801 7.31781C2.85499 7.2624 2.82184 7.19998 2.80001 7.13331C2.77351 7.06481 2.77701 7.00131 2.82401 6.94281C2.83601 6.92781 2.84901 6.91281 2.85601 6.89531C2.8675 6.86847 2.8754 6.84023 2.87951 6.81131C2.88801 6.72881 2.84751 6.66781 2.78851 6.61781C2.69551 6.53981 2.60851 6.45681 2.55851 6.34231C2.55601 6.33681 2.54651 6.33381 2.54001 6.32931C2.53451 6.33781 2.52801 6.34281 2.52751 6.34831C2.51801 6.44081 2.50501 6.53331 2.50151 6.62681C2.49451 6.81531 2.53051 6.99831 2.58251 7.17881C2.64151 7.38381 2.72701 7.57781 2.82651 7.76531C2.96001 8.01631 3.09501 8.26632 3.23251 8.51532C3.26001 8.56432 3.29751 8.60982 3.33651 8.65032C3.43551 8.75132 3.56251 8.78631 3.69851 8.78681C3.79951 8.78681 3.90051 8.78382 4.00101 8.77382C4.14851 8.75882 4.29601 8.73731 4.44301 8.71731C4.53451 8.70481 4.62551 8.68881 4.71701 8.67731C4.82201 8.66431 4.90701 8.71382 4.97801 8.78232C5.05801 8.86032 5.13051 8.94582 5.20151 9.03232C5.31151 9.16482 5.40001 9.31231 5.47851 9.46581C5.50351 9.51481 5.51351 9.51581 5.55201 9.48081C5.61701 9.42031 5.68201 9.35981 5.74901 9.30081C5.78251 9.27131 5.79301 9.24081 5.78251 9.19431C5.75332 9.06369 5.73906 8.93016 5.74001 8.79632C5.74101 8.71782 5.74301 8.63931 5.74901 8.56081C5.75651 8.44881 5.76401 8.33582 5.77901 8.22482C5.8318 7.84067 5.89214 7.45759 5.96001 7.07581C6.00351 6.82931 6.05101 6.58381 6.09401 6.33731C6.12401 6.16381 6.15301 5.99031 6.17501 5.81581C6.19201 5.67931 6.20251 5.54081 6.20651 5.40331C6.21201 5.23731 6.20801 5.07081 6.20751 4.90431C6.20751 4.86581 6.20951 4.82681 6.20251 4.78931C6.18851 4.71831 6.19751 4.71181 6.12151 4.69431C6.02136 4.67114 5.92005 4.65328 5.81801 4.64081C5.74501 4.63181 5.71451 4.61431 5.70751 4.54581C5.70451 4.52131 5.69501 4.49681 5.68701 4.47281C5.68251 4.46031 5.67501 4.44881 5.66401 4.42781L5.65151 4.55981C5.64701 4.60781 5.63701 4.61781 5.58801 4.61731C5.56051 4.61731 5.53301 4.61331 5.50601 4.61331C5.26801 4.61331 5.03001 4.60931 4.79301 4.62931C4.74551 4.63331 4.70651 4.62181 4.68001 4.57781C4.66001 4.54481 4.63601 4.51481 4.61301 4.48481C4.58151 4.44281 4.57001 4.43831 4.52201 4.45481C4.42451 4.48881 4.32801 4.52381 4.23101 4.55981C4.10958 4.60883 3.9959 4.67518 3.89351 4.75681C3.84536 4.7946 3.79059 4.82308 3.73201 4.84081C3.71551 4.84581 3.69701 4.84481 3.66851 4.84731C3.67851 4.81431 3.68051 4.79031 3.69201 4.77231C3.72401 4.71981 3.75951 4.66981 3.79451 4.61931C3.80601 4.60281 3.81901 4.58781 3.83101 4.57181L3.82351 4.56031L3.72301 4.57881C3.65001 4.59881 3.57501 4.61381 3.50451 4.63981C3.43051 4.66631 3.37151 4.65131 3.31151 4.60381C3.17048 4.49176 3.04696 4.35931 2.94501 4.21081L2.89851 4.14481ZM7.19451 8.62632L7.12101 8.67132C7.01101 8.73832 6.90101 8.80432 6.79151 8.87232C6.74501 8.90132 6.69951 8.93232 6.65651 8.96632C6.61401 9.00132 6.59451 9.04681 6.62051 9.10231C6.64401 9.15231 6.66701 9.20232 6.69401 9.24932C6.71751 9.28932 6.75601 9.31831 6.80051 9.32281C6.85551 9.32781 6.91451 9.32882 6.96851 9.31682C7.07701 9.29182 7.15451 9.21432 7.23251 9.13832C7.25402 9.11971 7.2696 9.0952 7.27733 9.06783C7.28506 9.04046 7.2846 9.01143 7.27601 8.98431C7.25301 8.89431 7.23651 8.80182 7.21701 8.71082C7.21151 8.68482 7.20351 8.65932 7.19451 8.62632ZM7.06601 7.42181C7.00601 7.56731 6.96351 7.72031 6.90351 7.87681C6.82801 8.09331 6.75651 8.31181 6.68601 8.53831C6.70401 8.53331 6.71301 8.53331 6.71951 8.52931C6.85001 8.44931 6.98051 8.36732 7.11201 8.28732C7.13901 8.27082 7.14751 8.24832 7.14451 8.21832C7.13851 8.15332 7.13251 8.08732 7.12751 8.02182L7.09351 7.57881C7.08951 7.52731 7.08351 7.47581 7.07901 7.42381C7.07451 7.42381 7.07051 7.42281 7.06601 7.42181ZM8.60651 3.35681L8.65601 3.49931C8.69601 3.61481 8.73551 3.73081 8.77601 3.85631L9.06601 4.83231C9.15951 5.14731 9.25201 5.46331 9.34501 5.77881C9.40201 5.96981 9.46251 6.15981 9.51651 6.35181C9.55251 6.48031 9.57951 6.61131 9.60951 6.75131C9.63151 6.85431 9.65301 6.95781 9.67301 7.07131C9.69001 7.12431 9.68451 7.18431 9.71151 7.23381L9.72401 7.23081L9.69001 7.04981C9.67101 6.94681 9.65151 6.84381 9.63351 6.73081C9.62601 6.69581 9.61901 6.66031 9.61051 6.62531C9.56301 6.42731 9.52201 6.22731 9.46551 6.03181C9.36751 5.68931 9.25901 5.34981 9.15651 5.00881C9.07401 4.73431 8.99551 4.45881 8.91251 4.18481C8.87801 4.07131 8.83751 3.95981 8.79951 3.83731L8.74101 3.66931C8.72251 3.61581 8.70351 3.56131 8.68351 3.50831C8.66351 3.45531 8.64151 3.40331 8.62001 3.35131C8.61551 3.35299 8.61101 3.35466 8.60651 3.35631V3.35681ZM3.11251 7.15181C3.08101 7.15131 3.05501 7.15881 3.04551 7.19331C3.0747 7.21575 3.11023 7.22841 3.14704 7.22949C3.18384 7.23057 3.22005 7.22001 3.25051 7.19931C3.20503 7.182 3.15901 7.16616 3.11251 7.15181ZM2.61501 5.98981C2.60201 5.97631 2.58651 5.96581 2.57751 5.99081C2.57151 6.00681 2.57401 6.02581 2.57251 6.04731C2.61351 6.02881 2.61351 6.02881 2.61501 5.98981ZM2.64601 5.39531C2.63718 5.39683 2.62875 5.40009 2.6212 5.40489C2.61364 5.4097 2.60712 5.41596 2.60201 5.42331C2.59257 5.44004 2.58823 5.45915 2.58951 5.47831C2.59201 5.55431 2.59451 5.63131 2.60251 5.70681C2.6079 5.74461 2.61903 5.78137 2.63551 5.81581C2.66601 5.88381 2.71401 5.89931 2.77951 5.86631C2.80701 5.85281 2.80951 5.83931 2.79201 5.81131C2.76955 5.77674 2.74804 5.74156 2.72751 5.70581C2.72001 5.67181 2.69451 5.64031 2.71101 5.60231C2.73101 5.55731 2.67301 5.54431 2.67401 5.50731V5.43681C2.67251 5.41781 2.67101 5.39331 2.64601 5.39531ZM2.63751 4.91131C2.55523 4.90989 2.47424 4.93191 2.40401 4.97481C2.36601 4.99731 2.36201 5.00981 2.37901 5.05381C2.39601 5.09731 2.41401 5.14031 2.43651 5.18081C2.46851 5.23931 2.48151 5.24331 2.54151 5.21931C2.59421 5.19589 2.65215 5.18675 2.70951 5.19281C2.81051 5.20381 2.88801 5.26081 2.96151 5.32481L3.00751 5.36331C3.01101 5.36031 3.01451 5.35681 3.01851 5.35431C3.00901 5.30181 3.00101 5.24131 2.94401 5.22231C2.86551 5.19581 2.78201 5.18481 2.69001 5.16381L2.57001 5.16131C2.69001 5.07681 2.79601 5.13931 2.91351 5.16581C2.88201 5.10831 2.83701 5.09231 2.79851 5.06931C2.75751 5.04431 2.71351 5.02331 2.67351 4.99731C2.64351 4.97881 2.61351 4.95731 2.63751 4.91131ZM7.75401 5.07381C7.63901 5.06881 7.54051 5.11381 7.45001 5.17931C7.43301 5.19231 7.42001 5.21181 7.39751 5.23781C7.44101 5.25081 7.47251 5.26081 7.51351 5.27031C7.53551 5.26281 7.55751 5.25531 7.57851 5.24731C7.73151 5.19031 7.88351 5.18981 8.03051 5.26281C8.09351 5.29431 8.14901 5.28281 8.21351 5.26031C8.20351 5.24481 8.19851 5.23331 8.19101 5.22481C8.13004 5.15992 8.05263 5.11275 7.96701 5.08831C7.89701 5.06631 7.82501 5.07681 7.75401 5.07381ZM3.99501 3.24131C3.99049 3.26329 3.99084 3.28599 3.99601 3.30781C4.03601 3.46831 4.07401 3.62931 4.11701 3.78881C4.16901 3.98231 4.25201 4.16381 4.34501 4.34031C4.35501 4.35881 4.37551 4.38031 4.39401 4.38381C4.43783 4.38937 4.48226 4.38042 4.52051 4.35831L4.28451 3.93831C4.16951 3.71431 4.08201 3.47831 3.99501 3.24131ZM5.19851 0.248315C5.09851 0.244315 4.99601 0.250315 4.89701 0.265315C4.77901 0.282815 4.66201 0.308815 4.54701 0.341315C4.40351 0.381315 4.26251 0.431315 4.12101 0.477815C4.10101 0.484315 4.08401 0.496815 4.06601 0.506815C4.08001 0.513815 4.09101 0.515815 4.10101 0.513815C4.24451 0.479815 4.39101 0.471315 4.53751 0.468815C4.60451 0.467815 4.67201 0.473315 4.73851 0.481315C4.83351 0.493315 4.92951 0.505314 5.02351 0.526314C5.25151 0.578314 5.46051 0.676314 5.65601 0.804314C5.88801 0.957314 6.10001 1.13431 6.28451 1.34331C6.38701 1.45931 6.48201 1.58081 6.56451 1.71281C6.64951 1.84981 6.72201 1.99331 6.78901 2.14081C6.92551 2.44131 7.01701 2.75681 7.08901 3.07881C7.10901 3.16531 7.12401 3.25281 7.13901 3.34081C7.14751 3.39281 7.17151 3.42431 7.22401 3.43581C7.28501 3.44981 7.32401 3.48831 7.33401 3.56131C7.33251 3.61231 7.30401 3.64831 7.26951 3.68131C7.21268 3.73083 7.167 3.79184 7.13551 3.86031C7.15092 3.85789 7.16531 3.85113 7.17701 3.84081C7.21701 3.79781 7.25801 3.75481 7.29451 3.70831C7.33378 3.66141 7.35661 3.60293 7.35951 3.54181C7.36401 3.51681 7.37051 3.49181 7.37151 3.46681C7.37501 3.40481 7.36301 3.39181 7.30001 3.38281C7.28751 3.38081 7.27551 3.37581 7.26351 3.37531C7.22251 3.37181 7.20101 3.34381 7.19501 3.30981C7.17851 3.21081 7.19301 3.13231 7.31851 3.10581C7.36151 3.09681 7.40551 3.09081 7.44851 3.08481C7.52751 3.07331 7.60601 3.05831 7.68501 3.05131C7.75501 3.04531 7.78001 3.06781 7.79801 3.13481C7.80201 3.14931 7.80701 3.16331 7.80851 3.17831C7.81801 3.26781 7.80451 3.29081 7.73801 3.32231C7.72451 3.32881 7.71051 3.33431 7.69901 3.34331C7.68744 3.35178 7.67859 3.36341 7.67351 3.37681C7.65401 3.44881 7.71001 3.56781 7.77651 3.59931L8.11301 3.75931C8.12451 3.76481 8.13801 3.76681 8.15051 3.77081L8.15951 3.75781C8.15201 3.75381 8.14351 3.75131 8.13751 3.74581C8.05473 3.68008 7.96318 3.62622 7.86551 3.58581C7.83692 3.57276 7.80808 3.56026 7.77901 3.54831C7.76012 3.54058 7.74401 3.52732 7.73277 3.51029C7.72153 3.49325 7.71569 3.47322 7.71601 3.45281C7.71451 3.41031 7.73851 3.37581 7.78001 3.35931L7.80951 3.34681C7.85901 3.32481 7.86851 3.30881 7.86551 3.25331C7.86505 3.24272 7.86371 3.23219 7.86151 3.22181C7.82801 3.07481 7.80001 2.92681 7.75901 2.78181C7.66127 2.42762 7.52268 2.08599 7.34601 1.76381C7.16188 1.42919 6.92749 1.12482 6.65101 0.861315C6.47798 0.693588 6.27932 0.554511 6.06251 0.449315C5.90211 0.370085 5.73096 0.314829 5.55451 0.285315C5.43666 0.266085 5.31779 0.253731 5.19851 0.248315ZM8.55801 3.22581C8.56301 3.23281 8.56701 3.23981 8.57701 3.24281L8.56601 3.22081L8.55801 3.22581ZM2.05151 1.95831C2.04713 1.96161 2.04195 1.96368 2.03651 1.96431C2.03025 1.97122 2.02357 1.97773 2.01651 1.98381C2.01151 1.98881 2.00651 1.99381 1.99401 2.00381L1.81251 2.18081C1.76851 2.22331 1.72751 2.26981 1.67951 2.30731C1.53751 2.41731 1.46701 2.57231 1.40751 2.73481C1.40311 2.7461 1.4019 2.75838 1.40401 2.77031C1.41051 2.79781 1.42051 2.82431 1.43001 2.85431L1.46701 2.86731C1.45851 2.89531 1.45201 2.91981 1.44351 2.94331C1.41451 3.02531 1.38451 3.10681 1.35601 3.18881C1.35351 3.19631 1.36001 3.20681 1.36551 3.22731C1.40551 3.13981 1.44451 3.06231 1.47801 2.98281C1.59201 2.71081 1.72001 2.44581 1.88751 2.20231C1.93251 2.13581 1.97851 2.06931 2.02901 2.00181C2.03101 1.99881 2.03251 1.99531 2.04001 1.98681C2.04051 1.97881 2.04151 1.97081 2.04751 1.96681L2.05151 1.95831ZM8.53951 3.16231C8.54096 3.16343 8.54213 3.16487 8.54291 3.16652C8.54369 3.16817 8.54407 3.16999 8.54401 3.17181C8.54288 3.1734 8.54187 3.17507 8.54101 3.17681C8.54199 3.18021 8.54316 3.18355 8.54451 3.18681L8.55351 3.19781C8.55451 3.19431 8.55701 3.18981 8.55601 3.18731C8.55451 3.18231 8.55001 3.17831 8.54601 3.16831C8.54383 3.16633 8.54166 3.16433 8.53951 3.16231ZM2.09951 2.23981C2.09801 2.24181 2.09551 2.24381 2.08601 2.24681C2.08351 2.25331 2.08051 2.25931 2.07051 2.27031C2.05124 2.29916 2.03055 2.32703 2.00851 2.35381C1.98451 2.38881 1.95051 2.38131 1.91801 2.37431C1.85101 2.36031 1.80401 2.38231 1.77451 2.44581C1.73001 2.53931 1.68101 2.63081 1.63801 2.72581C1.61351 2.77981 1.58301 2.83381 1.57901 2.90581C1.61951 2.90731 1.65601 2.90931 1.69301 2.90981H1.80701C1.79622 2.95449 1.78303 2.99855 1.76751 3.04181C1.76251 3.06781 1.75651 3.09331 1.75101 3.11931L1.76101 3.12131C1.77001 3.09831 1.77951 3.07531 1.79451 3.04481C1.82751 2.97381 1.85951 2.90231 1.89451 2.83181C1.90451 2.81181 1.91151 2.78181 1.95251 2.78581C1.95251 2.80731 1.95451 2.82781 1.95251 2.84781C1.95001 2.87031 1.94401 2.89281 1.93851 2.91931C2.00901 2.94081 1.98151 3.00631 1.99601 3.05381C2.04701 3.04281 2.04801 2.95631 2.12001 2.98181V3.08431L2.12851 3.08531L2.34801 2.55581C2.28301 2.55581 2.22501 2.54581 2.16901 2.57231C2.15701 2.57781 2.14001 2.57181 2.11501 2.57031C2.15251 2.49531 2.18451 2.43131 2.22051 2.36181C2.22361 2.35514 2.22784 2.34905 2.23301 2.34381C2.23301 2.33631 2.23251 2.32881 2.23701 2.32481L2.24001 2.31481C2.23751 2.31781 2.23501 2.32031 2.22601 2.32331C2.22401 2.32931 2.22151 2.33531 2.21301 2.34581C2.20929 2.35268 2.20376 2.35839 2.19701 2.36231C2.13551 2.44081 2.15201 2.44431 2.06801 2.41531C2.02851 2.40181 2.02901 2.40131 2.04451 2.34331C2.05851 2.32031 2.07251 2.29681 2.09351 2.26831C2.09351 2.26031 2.09301 2.25231 2.09701 2.24731L2.09951 2.23981ZM3.13601 1.90481C3.13451 1.90781 3.13251 1.91031 3.12251 1.91281C3.07551 1.97531 3.02551 2.03581 2.98251 2.10131C2.90501 2.22031 2.83201 2.34181 2.75701 2.46281C2.68701 2.57481 2.58451 2.64681 2.46951 2.70331C2.46101 2.70731 2.44951 2.70631 2.43001 2.70881C2.43601 2.67931 2.43801 2.65431 2.44651 2.63231C2.48063 2.54425 2.51884 2.45782 2.56101 2.37331L2.55751 2.36331C2.55236 2.36837 2.54646 2.37259 2.54001 2.37581C2.52601 2.40081 2.51251 2.42581 2.49351 2.45781C2.36351 2.66981 2.27201 2.86631 2.27251 2.93281C2.28451 2.93481 2.29651 2.93831 2.30901 2.93931C2.39751 2.94581 2.40301 2.94281 2.43901 2.85681C2.45401 2.82181 2.47751 2.79681 2.51251 2.78181L2.60001 2.74681C2.62201 2.73781 2.64251 2.71831 2.67301 2.73081C2.67451 2.75581 2.66801 2.78581 2.68001 2.80331C2.70101 2.83431 2.70201 2.86581 2.70351 2.89981C2.70451 2.92431 2.71201 2.94881 2.71651 2.97331C2.73101 2.95631 2.73601 2.94081 2.74151 2.92481C2.81251 2.72981 2.88001 2.53381 2.95551 2.33981C3.00551 2.21181 3.06551 2.08781 3.12051 1.96181C3.12701 1.94681 3.12701 1.92831 3.13551 1.91581L3.13601 1.90481ZM5.12951 1.73481C5.12951 1.75731 5.13451 1.77681 5.14001 1.79631C5.16101 1.87631 5.18701 1.95531 5.20201 2.03631C5.21401 2.10281 5.21351 2.17131 5.21601 2.23931C5.21601 2.25581 5.20651 2.27281 5.20001 2.29431C5.15301 2.26531 5.17651 2.21531 5.14701 2.18681H5.08451C5.07701 2.22281 5.07951 2.26281 5.06151 2.28681C5.02851 2.32931 4.98401 2.36381 4.94351 2.40031C4.92201 2.41931 4.90451 2.40931 4.89201 2.38781L4.86901 2.34431C4.83651 2.36181 4.81051 2.37881 4.78301 2.39081C4.72501 2.41631 4.66551 2.43831 4.60801 2.46431C4.56551 2.48331 4.56301 2.49081 4.57301 2.53781C4.58001 2.57531 4.59001 2.61181 4.59651 2.64931C4.60301 2.68531 4.62151 2.70381 4.65801 2.71131C4.77451 2.73631 4.88901 2.76881 4.98651 2.84381C5.01551 2.79281 5.01551 2.79281 5.07051 2.76831C5.08551 2.76131 5.10051 2.75331 5.11651 2.74731C5.15651 2.73231 5.17401 2.73881 5.19151 2.77731C5.20301 2.80131 5.21201 2.82631 5.22451 2.85631C5.25451 2.78631 5.20351 2.72281 5.23301 2.64831C5.31151 2.73831 5.35301 2.84331 5.42051 2.93181C5.42766 2.91646 5.43142 2.89975 5.43151 2.88281C5.43251 2.82081 5.43151 2.75931 5.43251 2.69731C5.43251 2.68031 5.43901 2.66381 5.44251 2.64731L5.45851 2.64581C5.51351 2.72331 5.52351 2.82281 5.57151 2.90581C5.57407 2.84044 5.5724 2.77497 5.56651 2.70981C5.56451 2.68731 5.56651 2.67281 5.59151 2.66581C5.63151 2.68381 5.64951 2.73581 5.69901 2.74481C5.68401 2.60731 5.48751 2.17631 5.30001 1.92731C5.24301 1.86381 5.20001 1.78731 5.13001 1.73431L5.12951 1.73481ZM3.79601 2.08281C3.78651 2.09981 3.78101 2.10781 3.77751 2.11631C3.74701 2.20881 3.71501 2.30131 3.68751 2.39431C3.67201 2.44681 3.64401 2.47881 3.59001 2.48931C3.54501 2.49881 3.50101 2.51531 3.45601 2.52581C3.43701 2.53031 3.41151 2.53331 3.39701 2.52431C3.38501 2.51631 3.38451 2.48981 3.37901 2.47131C3.34701 2.50931 3.33801 2.51481 3.29401 2.49481C3.22751 2.46381 3.16301 2.42731 3.09751 2.39431C3.07351 2.38181 3.05101 2.36281 3.01251 2.37931C2.99101 2.43931 2.96701 2.50431 2.94401 2.57031C2.89451 2.71031 2.90051 2.69131 2.99151 2.79681C3.01451 2.82081 3.04251 2.81181 3.06851 2.80831C3.09551 2.80381 3.12151 2.79331 3.14851 2.79031C3.21351 2.78381 3.27851 2.75031 3.33201 2.78281C3.43401 2.75081 3.52551 2.72181 3.61751 2.69381C3.64251 2.68631 3.66201 2.69631 3.67451 2.72081C3.68551 2.74181 3.69151 2.76731 3.71551 2.78131C3.73451 2.75331 3.70901 2.71731 3.74701 2.69231L3.81701 2.81281L3.79601 2.08281ZM3.93501 2.26181C3.88701 2.25681 3.88151 2.26681 3.88001 2.31581C3.87901 2.33481 3.87851 2.35481 3.88101 2.37331C3.89601 2.47331 3.93051 2.56631 3.96801 2.65831C3.96901 2.66131 3.97401 2.66331 3.97901 2.66581L4.01801 2.64081C4.04401 2.65881 4.05851 2.68481 4.09451 2.68481C4.19701 2.68381 4.29951 2.69181 4.40251 2.69081C4.45201 2.69031 4.48151 2.71181 4.50501 2.75081C4.51401 2.76581 4.51701 2.78931 4.54901 2.78381L4.50901 2.58681C4.48401 2.48931 4.46651 2.38931 4.42301 2.29231C4.39451 2.32081 4.36601 2.32631 4.33301 2.31531C4.31101 2.3085 4.28841 2.30381 4.26551 2.30131C4.15551 2.28731 4.04551 2.27181 3.93551 2.26131L3.93501 2.26181ZM9.06201 1.39831C9.10651 1.47981 9.13951 1.55631 9.13151 1.64381C9.12351 1.72781 9.14451 1.81481 9.10951 1.90181C9.08601 1.88531 9.06551 1.86081 9.05351 1.86431C8.99501 1.88181 8.97151 1.83581 8.94001 1.80681C8.8903 1.76054 8.84259 1.71216 8.79701 1.66181L8.74501 1.60531C8.74119 1.60849 8.73735 1.61166 8.73351 1.61481C8.75101 1.63781 8.76851 1.66131 8.78851 1.69281C8.80851 1.72481 8.83051 1.75631 8.84951 1.78931C8.86651 1.81831 8.88201 1.84831 8.86501 1.89181C8.82401 1.88681 8.78301 1.88231 8.74201 1.87581C8.71201 1.87081 8.69151 1.87581 8.68001 1.91081C8.66451 1.95981 8.66151 1.95881 8.60501 1.95581C8.61501 1.97681 8.62301 1.99581 8.63351 2.01381C8.65401 2.05081 8.64851 2.08281 8.61851 2.11181C8.58851 2.14181 8.55951 2.17281 8.52951 2.20231C8.51796 2.21468 8.50308 2.22343 8.48667 2.22752C8.47025 2.2316 8.453 2.23083 8.43701 2.22531C8.32601 2.19481 8.21351 2.16881 8.10201 2.13831C8.08601 2.13381 8.07051 2.11831 8.05901 2.10431C8.04401 2.08431 8.03301 2.06081 8.01901 2.03931C7.99701 2.00431 7.97401 1.97031 7.95101 1.93581C7.94346 1.95222 7.94102 1.97051 7.94401 1.98831C7.95001 2.05181 7.95901 2.11481 7.96151 2.17831C7.96401 2.22831 7.94951 2.23831 7.90101 2.23031C7.84901 2.22181 7.79801 2.21031 7.74601 2.20131C7.71401 2.19531 7.68051 2.18731 7.64501 2.21631L7.68551 2.32031C7.73051 2.32031 7.76851 2.31531 7.80401 2.32131C7.89199 2.33704 7.97242 2.38111 8.03301 2.44681C8.07201 2.48831 8.11001 2.53081 8.15351 2.57681L8.16251 2.57431C8.16051 2.57131 8.15851 2.56781 8.15751 2.55431C8.16451 2.52631 8.12651 2.49531 8.16651 2.46531C8.18201 2.48031 8.19851 2.49381 8.21051 2.51031C8.23951 2.54931 8.26601 2.58981 8.29501 2.63881L8.33951 2.70931L8.35151 2.70281C8.2803 2.54717 8.20914 2.3915 8.13801 2.23581C8.16551 2.23931 8.17951 2.23931 8.19201 2.24381C8.28851 2.27881 8.38451 2.31481 8.48051 2.35181C8.51751 2.36581 8.55401 2.38181 8.59001 2.39881C8.62101 2.41281 8.64601 2.40781 8.66851 2.38231C8.69351 2.35431 8.71951 2.32631 8.74551 2.29881C8.77051 2.27331 8.79301 2.27581 8.81151 2.30581C8.81951 2.31831 8.82451 2.33231 8.83151 2.34581C8.86701 2.41481 8.90301 2.48431 8.94001 2.56231L9.01951 2.71631L9.03201 2.71081C9.01001 2.65781 8.99701 2.60181 8.96301 2.54381C8.93451 2.45281 8.87901 2.37081 8.86001 2.27131C8.92801 2.28831 9.04101 2.43431 9.14351 2.63731L9.17201 2.67431L9.18101 2.66881C9.17142 2.64804 9.16274 2.62685 9.15501 2.60531C9.13201 2.53281 9.10651 2.46031 9.08701 2.38731C9.07601 2.34581 9.06901 2.30081 9.09801 2.25731L9.15251 2.28631L9.13951 2.18281L9.15301 2.17481C9.16401 2.18481 9.17801 2.19281 9.18551 2.20481C9.22201 2.25881 9.25701 2.31481 9.29301 2.36981C9.29801 2.37781 9.30751 2.38431 9.31451 2.39131C9.29651 2.28281 9.21451 2.20131 9.20001 2.07831L9.27751 2.13431C9.28451 2.05131 9.28351 1.97481 9.29851 1.90181C9.31451 1.82281 9.28701 1.75331 9.26701 1.67931C9.27901 1.68131 9.28501 1.68231 9.29451 1.69181C9.34051 1.75381 9.38601 1.81631 9.43301 1.87731C9.44301 1.89081 9.45801 1.90081 9.46751 1.92081L9.48751 1.95231L9.49701 1.94481C9.48595 1.93273 9.47699 1.91887 9.47051 1.90381C9.41431 1.82274 9.35898 1.74107 9.30451 1.65881C9.19401 1.50331 9.12301 1.42531 9.06201 1.39831ZM5.77701 1.56181C5.77551 1.64231 5.82301 1.69931 5.81151 1.76931L5.62751 1.81281C5.67251 1.88231 5.64351 1.93131 5.60151 1.97831C5.57651 2.00681 5.55551 2.03931 5.53001 2.06731C5.51151 2.08731 5.50701 2.10631 5.52101 2.13031L5.60101 2.26781C5.61551 2.29181 5.63701 2.30081 5.66501 2.29981C5.70301 2.29831 5.74101 2.29981 5.77901 2.29931C5.83701 2.29781 5.88701 2.31031 5.91651 2.36781C5.91951 2.37481 5.92651 2.37981 5.93851 2.39381C5.94051 2.36431 5.93701 2.34481 5.94351 2.32881C5.95151 2.30881 5.96351 2.27931 5.97951 2.27481C6.02151 2.26331 6.06601 2.26281 6.10951 2.25981C6.11601 2.25931 6.12301 2.26881 6.12951 2.27431L6.16501 2.30681C6.17451 2.25181 6.12401 2.20781 6.15301 2.15181L6.21601 2.17181C6.20301 2.11031 6.18101 2.04931 6.18051 1.98881C6.18051 1.92731 6.20601 1.86731 6.23801 1.80881C6.29151 1.83981 6.31801 1.88681 6.35501 1.93531C6.44651 2.06781 6.53501 2.20181 6.60201 2.35231C6.68451 2.31331 6.73701 2.38631 6.80551 2.39631C6.80401 2.34331 6.73901 2.17581 6.70701 2.15031C6.69245 2.13925 6.67418 2.13424 6.65601 2.13631C6.62601 2.14181 6.59651 2.15581 6.56051 2.16781C6.54801 2.14831 6.53251 2.12881 6.52201 2.10681C6.45866 1.96757 6.37929 1.83618 6.28551 1.71531C6.24751 1.66831 6.20551 1.62431 6.17151 1.58531L5.97601 1.72781C5.95151 1.74531 5.92901 1.74281 5.91001 1.71931L5.82551 1.61581C5.81301 1.60081 5.79901 1.58631 5.77701 1.56181Z" fill="white"/>
</g>
<defs>
<clipPath id="clip0_2337_15">
<rect width="12" height="12" fill="white"/>
</clipPath>
</defs>
</svg>
