<svg width="12" height="12" viewBox="0 0 12 12" fill="none" xmlns="http://www.w3.org/2000/svg">
<g clip-path="url(#clip0_2466_19)">
<path fill-rule="evenodd" clip-rule="evenodd" d="M8.402 0.978516L12.012 3.03102V3.07452L8.365 5.10502L8.3735 4.04652L7.963 4.03152C7.4335 4.01752 7.1575 4.03252 6.829 4.08652C6.297 4.17402 5.81 4.37502 5.2555 4.76252L4.1725 5.51502C4.0305 5.61252 3.925 5.68302 3.8325 5.74252L3.575 5.90352L3.3765 6.02052L3.569 6.13552L3.834 6.30452C4.072 6.46152 4.419 6.70252 5.1845 7.23752C5.7395 7.62502 6.226 7.82602 6.758 7.91352L6.908 7.93602C7.255 7.98152 7.5955 7.98302 8.3205 7.95252L8.3315 6.87302L11.9415 8.92552V8.96902L8.2945 11L8.3015 10.069L7.984 10.08C7.291 10.101 6.9155 10.081 6.415 9.99901C5.568 9.85901 4.785 9.53602 3.9745 8.96952L2.8955 8.21952C2.77139 8.13394 2.64553 8.05092 2.518 7.97052L2.2845 7.83052C2.15839 7.75786 2.03172 7.68619 1.9045 7.61552C1.454 7.36502 0.2815 7.05802 0 7.05802V4.94402L0.07 4.94602C0.352 4.94252 1.525 4.63502 1.9745 4.38402L2.4825 4.09402L2.7015 3.95702C2.9155 3.81702 3.2375 3.59402 4.0445 3.03052C4.855 2.46402 5.6375 2.14052 6.485 2.00102C7.061 1.90602 7.472 1.89452 8.392 1.93202L8.402 0.978516Z" fill="white"/>
</g>
<defs>
<clipPath id="clip0_2466_19">
<rect width="12" height="12" fill="white"/>
</clipPath>
</defs>
</svg>
