<svg width="12" height="12" viewBox="0 0 12 12" fill="none" xmlns="http://www.w3.org/2000/svg">
<path d="M0 1.92C0 1.24794 0 0.911905 0.130792 0.655213C0.24584 0.429418 0.429418 0.24584 0.655213 0.130792C0.911905 0 1.24794 0 1.92 0H10.08C10.7521 0 11.0881 0 11.3448 0.130792C11.5706 0.24584 11.7542 0.429418 11.8692 0.655213C12 0.911905 12 1.24794 12 1.92V10.08C12 10.7521 12 11.0881 11.8692 11.3448C11.7542 11.5706 11.5706 11.7541 11.3448 11.8692C11.0881 12 10.7521 12 10.08 12H1.92C1.24794 12 0.911905 12 0.655213 11.8692C0.429418 11.7541 0.24584 11.5706 0.130792 11.3448C0 11.0881 0 10.7521 0 10.08V1.92Z" fill="#CDFA50"/>
<path d="M2.80005 7.33398H4.13337V9.33398H2.80005V7.33398Z" fill="#1E2119"/>
<path d="M8.1333 4H9.46665V6H8.1333V4Z" fill="#1E2119"/>
<path d="M4.1333 6H8.1333V7.33335H4.1333V6Z" fill="#1E2119"/>
<path d="M2.80005 2.66699H8.13337V4.00032H4.13337V6.00032L2.80005 5.98367V2.66699Z" fill="#1E2119"/>
</svg>
