<svg width="16" height="11" viewBox="0 0 16 11" fill="none" xmlns="http://www.w3.org/2000/svg">
<path d="M11.1072 4.64696C11.0899 4.64755 11.0685 4.64829 11.0405 4.64829L11.0389 4.64606C10.9603 4.66387 10.8626 4.65746 10.7627 4.6509C10.4664 4.63144 10.1504 4.61068 10.2552 5.21673C10.2785 5.35023 10.1167 5.38304 10.0093 5.3886C9.70451 5.40529 9.39865 5.41196 9.09323 5.40585C9.03544 5.40489 8.97632 5.35625 8.92296 5.31229C8.91375 5.30468 8.90464 5.29721 8.89579 5.29015C8.88632 5.28236 8.9219 5.18169 8.9403 5.18058C9.2382 5.16319 9.34626 4.96117 9.45396 4.75975C9.50821 4.6584 9.56237 4.55721 9.64052 4.47975C10.3481 3.77837 11.0706 3.09034 11.8971 2.52523C11.9777 2.47017 12.0762 2.41956 12.143 2.51522C12.1944 2.58913 12.1462 2.631 12.0968 2.67398C12.0753 2.69279 12.0534 2.71181 12.0395 2.73381C11.9896 2.813 11.901 2.87137 11.813 2.92941C11.6401 3.04338 11.469 3.15613 11.5962 3.42295C11.7065 3.65398 11.6078 3.69498 11.4561 3.75799L11.4499 3.76057C11.385 3.78778 11.3186 3.81249 11.2523 3.83718C11.111 3.88973 10.9701 3.94222 10.8437 4.01866C10.7169 4.09542 10.6562 4.24503 10.8637 4.33347C11.317 4.52647 12.4906 4.21833 12.7197 3.79339C12.9339 3.39578 13.2539 3.10086 13.5737 2.80616C13.7531 2.6408 13.9325 2.4755 14.0931 2.29218C14.4393 1.89724 14.8446 1.55418 15.2501 1.21093C15.4517 1.0403 15.6534 0.869631 15.8478 0.692515C15.9941 0.55903 16.0548 0.383268 15.9402 0.191373C15.8262 0.000593082 15.6326 -0.0249923 15.4507 0.017833C14.2521 0.29983 13.0941 0.680284 12.0656 1.39056C10.4237 2.52468 8.77897 3.6549 7.12092 4.76509C6.55581 5.14387 6.21374 4.95865 6.02519 4.30288C5.60637 2.84672 4.99231 1.57689 3.22801 1.37944C2.58336 1.30713 2.11058 1.71094 2.20402 2.35169C2.2513 2.67652 2.20847 2.98243 2.05218 3.28724C2.01772 3.35453 1.98293 3.42186 1.94811 3.48925C1.70745 3.95496 1.46471 4.42466 1.31409 4.92027C1.30149 4.96173 1.28705 5.00534 1.27218 5.05031C1.1379 5.45607 0.967187 5.9719 1.78186 6.00044C1.81523 6.00154 1.8792 6.08553 1.87141 6.11668C1.85362 6.19066 1.81745 6.27854 1.75961 6.32137C0.978692 6.89704 0.336826 7.59395 0.0609435 8.53674C-0.0786657 9.01287 0.0136667 9.50732 0.420255 9.87611C0.711155 10.1397 1.08271 10.2927 1.40864 10.0708C1.70594 9.86841 2.03219 9.73265 2.35777 9.59715C2.64435 9.47785 2.93041 9.35882 3.19575 9.19474C3.25971 9.15518 3.3374 9.11899 3.41602 9.08235C3.63343 8.98119 3.85792 8.87658 3.8187 8.68746C3.75697 8.39107 3.44382 8.11628 3.18295 7.90042C2.92432 7.68634 2.2652 6.2485 2.34363 5.9031C2.45345 5.4194 2.7007 5.00061 2.9482 4.58142C3.15948 4.22357 3.37094 3.86542 3.49722 3.46634C3.54949 3.3017 3.74973 3.2116 3.94274 3.27723C4.07373 3.32161 4.05143 3.44185 4.03066 3.55386C4.03009 3.55696 4.02952 3.56004 4.02895 3.56312C3.9507 3.99366 3.87394 4.4247 3.79718 4.85573C3.75881 5.0712 3.72043 5.28666 3.68187 5.50207C3.6574 5.64001 3.70023 5.75014 3.84317 5.77795C4.1185 5.8319 4.11238 5.95594 3.98835 6.16897C3.85653 6.39479 3.83817 6.67067 3.98557 6.87925C4.13352 7.08894 4.38103 7.13288 4.63244 7.00717C4.78929 6.9293 4.9111 6.99883 4.90943 7.15679C4.89942 8.00061 5.25261 7.81033 5.68256 7.44213C5.72211 7.40824 5.77599 7.38949 5.82804 7.37137C5.83748 7.36808 5.84687 7.36481 5.8561 7.36148C5.89689 7.34693 5.93773 7.33244 5.97855 7.31795C6.78789 7.03078 7.59617 6.744 8.05309 5.91534C8.0884 5.85061 8.20425 5.81924 8.29443 5.79485C8.29956 5.79346 8.30461 5.79209 8.30956 5.79074C8.83207 5.64875 9.36555 5.64663 9.89868 5.64451C10.2991 5.64291 10.6992 5.64133 11.0945 5.58049C11.4844 5.52042 11.9093 5.29293 11.9127 4.91638C11.9158 4.61279 11.6834 4.63166 11.4512 4.65051C11.3508 4.65867 11.2503 4.66682 11.169 4.64884C11.1525 4.64541 11.1352 4.646 11.1072 4.64696Z" fill="white"/>
<path d="M4.9655 8.89889C4.86872 9.543 5.11456 10.0942 6.12075 10.087H6.12019C6.97954 10.052 7.95183 9.53184 8.90179 8.86668C9.52917 8.42727 10.0715 7.96388 10.423 7.27923C10.6817 6.77586 10.5487 6.37205 10.1589 6.01885C9.98698 5.86312 9.8229 5.84588 9.63042 6.03387C8.94737 6.70244 8.09697 7.06731 7.22371 7.43441C7.0012 7.52802 6.74774 7.57475 6.49249 7.62183C5.81239 7.74724 5.11959 7.87494 4.9655 8.89889Z" fill="white"/>
</svg>
