<svg width="12" height="12" viewBox="0 0 12 12" fill="none" xmlns="http://www.w3.org/2000/svg">
<g clip-path="url(#clip0_2353_17)">
<path fill-rule="evenodd" clip-rule="evenodd" d="M11.5 11.5H0.5V0.5H11.5V11.5ZM1.481 7.616C2.4655 7.766 3.995 7.826 5.371 7.5305C5.823 7.433 6.2425 7.3005 6.616 7.129C5.9185 5.429 5.7785 4.246 5.984 3.44C6.217 2.5285 6.8835 2.145 7.483 2.139H7.488C7.832 2.139 8.5465 2.2275 9.0285 2.814C9.53 3.424 9.6365 4.39 9.1585 5.8095C8.9065 6.556 8.44 7.1175 7.8615 7.5375C8.523 9.034 8.9165 9.7865 9.1555 10.1795C9.267 10.363 9.3415 10.4615 9.389 10.519H10.519V1.481H1.481V7.616ZM7.006 8.0295C6.55 8.236 6.0625 8.385 5.5775 8.4895C4.1225 8.8025 2.548 8.753 1.481 8.6065V10.519H8.2165C7.953 10.059 7.573 9.3075 7.006 8.0295ZM7.491 3.1195C7.3295 3.122 7.056 3.21 6.935 3.683C6.81 4.1705 6.8545 5.071 7.4625 6.603C7.815 6.304 8.079 5.9385 8.228 5.4965C8.662 4.2085 8.4555 3.6615 8.271 3.437C8.068 3.19 7.726 3.12 7.491 3.1195Z" fill="white"/>
</g>
<defs>
<clipPath id="clip0_2353_17">
<rect width="12" height="12" fill="white"/>
</clipPath>
</defs>
</svg>
