<svg width="61" height="31" viewBox="0 0 61 31" fill="none" xmlns="http://www.w3.org/2000/svg">
<path d="M58.328 0H31.816C30.35 0 29.167 1.237 29.167 2.756V11.028C29.168 11.759 28.889 12.461 28.392 12.978C27.895 13.495 27.221 13.785 26.518 13.784H2.649C1.183 13.784 0 15.02 0 16.539V27.573C0 28.304 0.279 29.005 0.775 29.522C1.272 30.038 1.946 30.329 2.649 30.329H29.161C29.864 30.329 30.537 30.038 31.034 29.522C31.531 29.005 31.81 28.304 31.81 27.573V19.301C31.809 18.57 32.088 17.868 32.585 17.351C33.082 16.834 33.756 16.544 34.459 16.545H58.323C59.788 16.545 60.972 15.309 60.972 13.79V2.756C60.972 1.231 59.783 0 58.323 0H58.328Z" fill="#6E29F6"/>
</svg>
