<svg width="12" height="12" viewBox="0 0 12 12" fill="none" xmlns="http://www.w3.org/2000/svg">
<path fill-rule="evenodd" clip-rule="evenodd" d="M6 12C9.3137 12 12 9.3137 12 6C12 2.6863 9.3137 0 6 0C2.6863 0 0 2.6863 0 6C0 9.3137 2.6863 12 6 12ZM9.07058 5.91766V7.14708C9.07058 7.32355 9 7.50002 8.85883 7.61177L6.61764 9.42355C6.51766 9.5059 6.38822 9.54708 6.25882 9.54708H3.04706V7.91179H6.84706C7.1647 7.91179 7.37059 7.75884 7.37059 7.4412V7.14708C7.37059 6.82942 7.15882 6.67649 6.84706 6.67649H3.6294C3.31176 6.67649 3.04706 6.40589 3.04706 6.09413V4.86473C3.04706 4.69414 3.11765 4.52942 3.24706 4.41766L5.4294 2.6059C5.53529 2.51767 5.6647 2.46473 5.80001 2.46473H8.54705V4.10002H5.15294C4.90001 4.10002 4.74118 4.25885 4.74118 4.51178V4.92355C4.74118 5.17649 4.90001 5.33532 5.15294 5.33532H8.54705C8.85883 5.33532 9.07058 5.60002 9.07058 5.91766Z" fill="black"/>
</svg>
