<svg width="65" height="24" viewBox="0 0 65 24" fill="none" xmlns="http://www.w3.org/2000/svg">
<path fill-rule="evenodd" clip-rule="evenodd" d="M55.626 7.475C57.028 7.475 58.289 7.791 59.411 8.425C60.533 9.058 61.411 9.924 62.047 11.022C62.682 12.121 63 13.359 63 14.737C63 16.115 62.682 17.354 62.047 18.453C61.4207 19.5421 60.5093 20.44 59.411 21.05C58.289 21.683 57.028 22 55.626 22C54.206 22 52.934 21.683 51.812 21.05C50.691 20.417 49.812 19.551 49.177 18.453C48.541 17.353 48.224 16.115 48.224 14.737C48.224 13.359 48.541 12.121 49.177 11.022C49.8031 9.93301 50.714 9.03519 51.812 8.425C52.934 7.791 54.205 7.475 55.626 7.475ZM55.626 10.435C54.859 10.435 54.177 10.622 53.579 10.995C52.9768 11.3529 52.4902 11.8764 52.177 12.503C51.859 13.155 51.7 13.899 51.7 14.737C51.7 15.575 51.86 16.32 52.177 16.972C52.4946 17.6029 52.9796 18.1343 53.579 18.508C54.177 18.862 54.859 19.039 55.626 19.039C56.392 19.039 57.066 18.862 57.645 18.509C58.2409 18.139 58.7178 17.6055 59.019 16.972C59.355 16.32 59.523 15.575 59.523 14.737C59.523 13.899 59.355 13.155 59.019 12.503C58.7221 11.874 58.2436 11.3483 57.645 10.994C57.0386 10.6193 56.3378 10.4257 55.625 10.436L55.626 10.435ZM37.206 7.698H33.757V21.777H37.206V14.095C37.206 13.406 37.346 12.791 37.626 12.251C37.907 11.711 38.29 11.292 38.776 10.994C39.2799 10.6778 39.8641 10.5133 40.459 10.52C41.337 10.52 42.047 10.827 42.589 11.441C43.15 12.037 43.431 12.819 43.431 13.788V21.777H46.851V13.06C46.851 11.962 46.636 10.993 46.206 10.155C45.8005 9.32455 45.1563 8.63406 44.356 8.172C43.552 7.707 42.636 7.474 41.608 7.474C40.598 7.474 39.701 7.688 38.916 8.116C38.1715 8.50339 37.5718 9.12062 37.206 9.876V7.698ZM31.376 21.776H27.955V19.598C27.5685 20.3549 26.9628 20.9776 26.217 21.385C25.45 21.795 24.562 22 23.553 22C22.506 22 21.581 21.767 20.777 21.302C19.9905 20.8346 19.3499 20.1573 18.927 19.346C18.497 18.49 18.282 17.512 18.282 16.413V7.698H21.73V15.688C21.73 16.655 22.001 17.447 22.544 18.061C23.086 18.657 23.796 18.955 24.674 18.955C25.31 18.955 25.871 18.806 26.357 18.508C26.8587 18.1945 27.2656 17.7503 27.534 17.223C27.814 16.683 27.955 16.069 27.955 15.38V7.698H31.375L31.376 21.776ZM5.673 21.162C6.795 21.721 8.093 22 9.571 22C11.01 22 12.281 21.767 13.384 21.302C14.487 20.817 15.346 20.138 15.964 19.262C16.58 18.387 16.889 17.354 16.889 16.162C16.889 14.802 16.58 13.742 15.963 12.978C15.346 12.196 14.608 11.637 13.748 11.302C12.908 10.966 11.804 10.641 10.44 10.324C9.449 10.101 8.673 9.896 8.112 9.709C7.57 9.505 7.112 9.225 6.739 8.872C6.383 8.499 6.206 8.024 6.206 7.447C6.206 6.757 6.486 6.209 7.047 5.799C7.607 5.389 8.374 5.184 9.347 5.184C10.374 5.184 11.207 5.445 11.842 5.966C12.496 6.488 12.86 7.176 12.935 8.034H16.468C16.412 6.824 16.076 5.762 15.458 4.849C14.86 3.937 14.028 3.239 12.963 2.754C11.916 2.251 10.711 2 9.346 2C8.038 2 6.869 2.233 5.841 2.698C4.813 3.145 4.009 3.788 3.43 4.626C2.87 5.446 2.589 6.386 2.589 7.446C2.589 8.769 2.888 9.821 3.486 10.603C4.103 11.385 4.832 11.953 5.673 12.307C6.533 12.661 7.636 13.006 8.982 13.341C9.935 13.583 10.682 13.806 11.225 14.011C11.785 14.216 12.244 14.495 12.599 14.849C12.954 15.184 13.131 15.641 13.131 16.218C13.131 17.056 12.804 17.698 12.151 18.145C11.514 18.592 10.655 18.815 9.571 18.815C8.393 18.815 7.449 18.49 6.739 17.838C6.047 17.186 5.654 16.311 5.561 15.212H2C2.056 16.572 2.402 17.763 3.037 18.788C3.6831 19.8046 4.59455 20.6255 5.673 21.162Z" fill="white"/>
</svg>
