<svg width="56" height="63" viewBox="0 0 56 63" fill="none" xmlns="http://www.w3.org/2000/svg">
<g clip-path="url(#clip0_2462_2)">
<path fill-rule="evenodd" clip-rule="evenodd" d="M18.0515 42.0962C17.0235 41.332 15.7828 40.6917 14.4108 40.3027C13.0388 39.9137 11.5355 39.7762 10.0656 39.9392C8.5956 40.1023 7.15902 40.566 5.90561 41.2461C4.65223 41.9263 3.58201 42.823 2.74649 43.794C1.90868 44.763 1.17878 45.9532 0.689911 47.2929C0.201043 48.6325 -0.0467886 50.1216 0.00768045 51.5996C0.06212 53.0775 0.418861 54.5444 1.00496 55.8444C1.59108 57.1445 2.40658 58.2777 3.31346 59.1824C4.21816 60.0893 5.35144 60.9048 6.65149 61.4909C7.95154 62.077 9.41838 62.4338 10.8963 62.4882C12.3743 62.5427 13.8634 62.2949 15.203 61.806C16.5427 61.3171 17.7329 60.5872 18.7019 59.7494C19.6729 58.9139 20.5696 57.8437 21.2498 56.5903C21.9299 55.3369 22.3937 53.9003 22.5567 52.4303C22.7198 50.9604 22.5822 49.4571 22.1932 48.0851C21.8043 46.7131 21.1639 45.4724 20.3997 44.4444L22.924 41.92L24.7615 43.7575H25.8052L27.0647 42.4979V41.4543L25.2272 39.6168L27.8949 36.9492L30.5626 39.6168L28.7251 41.4543V42.4979L29.9847 43.7575H31.0283L32.8658 41.92L35.3902 44.4444C34.6259 45.4724 33.9856 46.7131 33.5967 48.0851C33.2077 49.4571 33.0701 50.9604 33.2332 52.4303C33.3962 53.9003 33.8599 55.3369 34.5401 56.5903C35.2203 57.8437 36.117 58.9139 37.088 59.7494C38.0569 60.5872 39.2472 61.3171 40.5868 61.806C41.9265 62.2949 43.4156 62.5427 44.8935 62.4882C46.3715 62.4338 47.8383 62.077 49.1384 61.4909C50.4384 60.9048 51.5717 60.0893 52.4764 59.1824C53.3833 58.2777 54.1988 57.1445 54.7849 55.8444C55.371 54.5444 55.7277 53.0775 55.7822 51.5996C55.8367 50.1216 55.5888 48.6325 55.0999 47.2929C54.6111 45.9532 53.8812 44.763 53.0434 43.794C52.2078 42.823 51.1376 41.9263 49.8842 41.2461C48.6308 40.566 47.1943 40.1023 45.7243 39.9392C44.2544 39.7762 42.7511 39.9137 41.3791 40.3027C40.0071 40.6917 38.7663 41.332 37.7384 42.0962L35.2609 39.6148L37.0974 37.7784V36.7347L35.7929 35.4302H34.7493L32.9118 37.2677L30.2431 34.601L44.2337 20.6103L49.8972 26.2738V20.3811H55.7899L50.1264 14.7177L55.7899 9.05422V8.0106L54.4853 6.70605H53.4417L27.8949 32.2528L2.34817 6.70605H1.30455L0 8.0106V9.05422L5.66343 14.7177L0 20.3811H5.89269V26.2738L11.5561 20.6103L25.5468 34.601L22.8781 37.2677L21.0406 35.4302H19.997L18.6924 36.7347V37.7784L20.5289 39.6148L18.0515 42.0962ZM40.7547 55.0564C40.1786 56.2381 40.2982 57.8756 41.04 58.961C41.7214 60.0852 43.1629 60.8713 44.477 60.8355C45.7911 60.8713 47.2326 60.0852 47.914 58.961C48.6558 57.8756 48.7754 56.2381 48.1993 55.0564L48.3428 54.9019C49.5244 55.4811 51.1643 55.3638 52.2514 54.6223C53.3775 53.9415 54.1654 52.4984 54.1294 51.183C54.1654 49.8676 53.3775 48.4246 52.2514 47.7437C51.1643 47.0023 49.5244 46.885 48.3428 47.4641L48.1993 47.3097C48.7754 46.128 48.6558 44.4905 47.914 43.4051C47.2326 42.2809 45.7911 41.4948 44.477 41.5306C43.1629 41.4948 41.7214 42.2809 41.04 43.4051C40.2982 44.4905 40.1786 46.128 40.7547 47.3097L40.6112 47.4641C39.4296 46.885 37.7897 47.0023 36.7026 47.7437C35.5765 48.4246 34.7886 49.8676 34.8246 51.183C34.7886 52.4984 35.5765 53.9415 36.7026 54.6223C37.7897 55.3638 39.4296 55.4811 40.6112 54.9019L40.7547 55.0564ZM14.7494 58.961C15.4911 57.8756 15.6108 56.2381 15.0347 55.0564L15.1782 54.9019C16.3597 55.4811 17.9997 55.3638 19.0868 54.6223C20.2128 53.9415 21.0007 52.4984 20.9648 51.183C21.0007 49.8676 20.2128 48.4246 19.0868 47.7437C17.9997 47.0023 16.3597 46.885 15.1782 47.4641L15.0347 47.3097C15.6108 46.128 15.4911 44.4905 14.7494 43.4051C14.0679 42.2809 12.6265 41.4948 11.3123 41.5306C9.99819 41.4948 8.55675 42.2809 7.87528 43.4051C7.13355 44.4905 7.0139 46.128 7.58999 47.3097L7.4465 47.4641C6.26493 46.885 4.625 47.0023 3.53788 47.7437C2.41184 48.4246 1.6239 49.8676 1.65989 51.183C1.6239 52.4984 2.41184 53.9415 3.53788 54.6223C4.625 55.3638 6.26493 55.4811 7.4465 54.9019L7.58999 55.0564C7.0139 56.2381 7.13355 57.8756 7.87528 58.961C8.55675 60.0852 9.99819 60.8713 11.3123 60.8355C12.6265 60.8713 14.0679 60.0852 14.7494 58.961Z" fill="#DD3300"/>
<path fill-rule="evenodd" clip-rule="evenodd" d="M27.8766 6.70614L34.5828 0L37.9036 3.32082V14.5147L28.7068 23.7115H27.0464L17.8496 14.5147V3.32082L21.1705 0L27.8766 6.70614ZM21.1705 2.34818L27.0465 8.22415V19.0152L21.1705 13.1392V2.34818ZM28.7071 8.22415L34.5831 2.34818V13.1392L28.7071 19.0152V8.22415Z" fill="#DD3300"/>
</g>
<defs>
<clipPath id="clip0_2462_2">
<rect width="56" height="63" fill="white"/>
</clipPath>
</defs>
</svg>
