<svg width="16" height="16" viewBox="0 0 16 16" fill="none" xmlns="http://www.w3.org/2000/svg">
<path d="M3.06955 0V0.0444817C3.05581 0.0821206 3.0455 0.136868 3.0352 0.208725C3.02489 0.280581 3.02489 0.345594 3.02489 0.403763C3.02489 0.629593 3.05581 0.879385 3.1142 1.15655C3.17947 1.42686 3.29969 1.76561 3.47487 2.1728L8.33194 13.0813L13.0241 2.26176C13.1341 1.99144 13.2508 1.69718 13.3744 1.37896C13.4981 1.05731 13.52 0.735669 13.52 0.407186C13.52 0.318221 13.4538 0.246364 13.44 0.188194C13.4263 0.123181 13.5084 0.0752778 13.4947 0.0479036V0.00342193H15.7412V0.0479036C15.6038 0.184773 15.4354 0.434559 15.2363 0.790418C15.0404 1.14628 14.8241 1.58768 14.5905 2.11121L8.31133 16H7.4354L1.48259 2.64499C1.34519 2.33362 1.19749 2.02908 1.04292 1.73824C0.895211 1.44739 0.757815 1.18392 0.627286 0.951243C0.496757 0.71172 0.379961 0.509836 0.276911 0.349016C0.173862 0.188195 0.105167 0.0855425 0.0673828 0.0444817V0H3.06955Z" fill="#023430"/>
<path d="M3.06697 0.104708H3.17203V0H3.06697V0.104708ZM3.06697 0.148617L3.16187 0.185772L3.16865 0.168884V0.148617H3.06359H3.06697ZM8.25882 13.0175L8.16393 13.058L8.25882 13.2742L8.35371 13.058L8.25882 13.0175ZM13.3524 0.148617H13.2474V0.17226L13.2575 0.192527L13.349 0.14524H13.3524V0.148617ZM13.3524 0.104708V0H13.2474V0.104708H13.3524ZM15.5687 0.104708H15.6738V0H15.5687V0.104708ZM15.5687 0.148617L15.6433 0.222926L15.6738 0.192527V0.148617H15.5687ZM8.23849 15.8953V16H8.30626L8.33338 15.9392L8.23849 15.8953ZM7.37092 15.8953L7.27603 15.9358L7.30314 15.9966H7.37092V15.8919V15.8953ZM0.105056 0.148617H0V0.185772L0.023725 0.21617L0.105056 0.148617ZM0.105056 0.104708V0H0V0.104708H0.105056ZM2.96531 0.104708V0.148617H3.17203V0.104708H2.96531ZM2.97209 0.108086C2.95175 0.15875 2.94159 0.222926 2.93142 0.297234L3.13815 0.3175C3.14492 0.249947 3.15509 0.206038 3.16526 0.182394L2.97209 0.104708V0.108086ZM2.93142 0.300612C2.92465 0.37492 2.92126 0.442473 2.92126 0.503271H3.12797C3.12797 0.449229 3.12797 0.388432 3.13815 0.320878L2.93142 0.300612ZM2.92126 0.503271C2.92126 0.736327 2.95176 0.989654 3.00937 1.26662L3.2127 1.22272C3.15509 0.955876 3.12797 0.716062 3.12797 0.499894H2.92126V0.503271ZM3.00937 1.27C3.07715 1.54359 3.19915 1.88474 3.37198 2.29006L3.56176 2.20899C3.38892 1.81043 3.27371 1.47942 3.20932 1.22272L3.00598 1.27H3.00937ZM3.37537 2.29006L8.16732 13.058L8.35711 12.9736L3.56515 2.20561L3.37537 2.29006ZM8.35371 13.058L12.983 2.37787L12.7933 2.29681L8.16393 12.9769L8.35371 13.058ZM12.983 2.37449C13.0915 2.10766 13.2067 1.81718 13.3287 1.49968L13.1355 1.42538C13.0134 1.7395 12.8983 2.02998 12.7898 2.29681L12.983 2.37449ZM13.332 1.49968C13.4575 1.17205 13.5218 0.841037 13.5218 0.503271H13.3151C13.3151 0.81402 13.2575 1.12138 13.1389 1.42538L13.332 1.49968ZM13.5218 0.503271C13.5218 0.412075 13.5151 0.331011 13.4981 0.263458L13.2981 0.314122C13.3083 0.36141 13.3151 0.422207 13.3151 0.503271H13.5218ZM13.4981 0.266836C13.4845 0.199282 13.4676 0.14524 13.4473 0.10133L13.2609 0.192527C13.2609 0.192527 13.2812 0.24657 13.2948 0.307368L13.4981 0.263458V0.266836ZM13.4575 0.148617V0.104708H13.2507V0.148617H13.4575ZM13.3524 0.209416H15.5687V0.0033778H13.3524V0.209416ZM15.4671 0.104708V0.148617H15.6738V0.104708H15.4671ZM15.4976 0.0743083C15.3484 0.222926 15.179 0.47625 14.9824 0.830909L15.1655 0.932235C15.3586 0.580958 15.5179 0.3479 15.6467 0.222926L15.5009 0.0776861H15.4976V0.0743083ZM14.9824 0.830909C14.7859 1.18556 14.5724 1.62466 14.3419 2.14144L14.5318 2.22588C14.7621 1.7091 14.9723 1.27676 15.1655 0.928859L14.9824 0.827524V0.830909ZM14.3385 2.14144L8.1436 15.8514L8.33338 15.9358L14.5283 2.22588L14.3385 2.14144ZM8.23849 15.7906H7.37431V15.9966H8.23849V15.7906ZM7.46582 15.8514L1.59279 2.66835L1.40301 2.7528L7.27603 15.9358L7.46582 15.8514ZM1.59619 2.67173C1.45723 2.36098 1.31151 2.06037 1.15901 1.76989L0.976016 1.86447C1.12512 2.14819 1.27085 2.44543 1.4064 2.7528L1.59619 2.66835V2.67173ZM1.1624 1.77328C1.01667 1.48617 0.881119 1.22609 0.748951 0.99303L0.569338 1.09436C0.698117 1.32404 0.833671 1.58074 0.979397 1.86447L1.16579 1.77328H1.1624ZM0.748951 0.99303C0.620171 0.753216 0.50156 0.553932 0.399891 0.395186L0.22367 0.50665C0.32195 0.662018 0.437166 0.857926 0.565945 1.09436L0.748951 0.996415V0.99303ZM0.399891 0.395186C0.298223 0.239814 0.227054 0.131729 0.186387 0.0810639L0.0271069 0.212792C0.0576073 0.249948 0.122003 0.344521 0.22367 0.503271L0.399891 0.391809V0.395186ZM0.210112 0.148617V0.104708H0.0033819V0.148617H0.210112ZM0.105056 0.209416H3.06697V0.0033778H0.105056V0.209416Z" fill="#023430"/>
</svg>
