<svg width="1200" height="675" viewBox="0 0 1200 675" fill="none" xmlns="http://www.w3.org/2000/svg">
  <rect width="1200" height="675" fill="#050606"/>
  <defs>
    <radialGradient id="g1" cx="0" cy="0" r="1" gradientUnits="userSpaceOnUse" gradientTransform="translate(930 138) rotate(133) scale(558 439)">
      <stop stop-color="#C7F9EE" stop-opacity=".55"/>
      <stop offset=".45" stop-color="#58D8BE" stop-opacity=".22"/>
      <stop offset="1" stop-color="#050606" stop-opacity="0"/>
    </radialGradient>
    <radialGradient id="g2" cx="0" cy="0" r="1" gradientUnits="userSpaceOnUse" gradientTransform="translate(175 596) rotate(-38) scale(559 322)">
      <stop stop-color="#FF3939" stop-opacity=".34"/>
      <stop offset=".52" stop-color="#58D8BE" stop-opacity=".18"/>
      <stop offset="1" stop-color="#050606" stop-opacity="0"/>
    </radialGradient>
    <filter id="soft" x="-20%" y="-20%" width="140%" height="140%" color-interpolation-filters="sRGB">
      <feGaussianBlur stdDeviation="18"/>
    </filter>
  </defs>
  <rect width="1200" height="675" fill="url(#g1)"/>
  <rect width="1200" height="675" fill="url(#g2)"/>
  <path d="M0 532C128 461 195 500 313 444C448 381 457 253 598 250C742 248 762 374 912 359C1044 346 1112 255 1200 285V675H0V532Z" fill="#0C1A18"/>
  <path d="M-24 563C122 481 205 527 334 452C459 379 464 286 599 284C735 282 766 395 907 385C1032 376 1095 307 1224 321" stroke="#6AF0D1" stroke-opacity=".24" stroke-width="2"/>
  <g filter="url(#soft)" opacity=".72">
    <path d="M646 167L1041 488" stroke="#6AF0D1" stroke-opacity=".24" stroke-width="34"/>
    <path d="M110 536L457 155" stroke="#F44040" stroke-opacity=".18" stroke-width="26"/>
  </g>
  <g transform="translate(125 126)">
    <rect width="535" height="340" rx="28" fill="#080A0A" stroke="#1B2A28" stroke-width="2"/>
    <rect x="31" y="35" width="473" height="42" rx="14" fill="#121817"/>
    <circle cx="58" cy="56" r="6" fill="#F44040"/>
    <circle cx="82" cy="56" r="6" fill="#65E6CC"/>
    <circle cx="106" cy="56" r="6" fill="#DDE7E3"/>
    <path d="M67 136L110 174L67 212" stroke="#EAF4F0" stroke-width="12" stroke-linecap="round" stroke-linejoin="round"/>
    <path d="M148 219H306" stroke="#65E6CC" stroke-width="12" stroke-linecap="round"/>
    <path d="M148 148H414" stroke="#EAF4F0" stroke-opacity=".78" stroke-width="12" stroke-linecap="round"/>
    <path d="M148 184H358" stroke="#EAF4F0" stroke-opacity=".55" stroke-width="12" stroke-linecap="round"/>
    <path d="M67 273H227" stroke="#65E6CC" stroke-opacity=".75" stroke-width="10" stroke-linecap="round"/>
    <path d="M67 302H178" stroke="#65E6CC" stroke-opacity=".75" stroke-width="10" stroke-linecap="round"/>
  </g>
  <g transform="translate(699 138)">
    <rect x="96" y="27" width="254" height="254" rx="58" fill="#0D1413" stroke="#2F5B53" stroke-width="2"/>
    <path d="M223 111V83C223 52 198 27 167 27C136 27 111 52 111 83V111" stroke="#EAF4F0" stroke-opacity=".85" stroke-width="18" stroke-linecap="round"/>
    <rect x="84" y="111" width="166" height="132" rx="34" fill="#65E6CC"/>
    <circle cx="167" cy="169" r="21" fill="#07100F"/>
    <path d="M167 188V214" stroke="#07100F" stroke-width="16" stroke-linecap="round"/>
    <circle cx="331" cy="54" r="23" fill="#F44040"/>
    <path d="M31 339H406" stroke="#EAF4F0" stroke-opacity=".28" stroke-width="2"/>
    <path d="M64 373H306" stroke="#65E6CC" stroke-opacity=".52" stroke-width="10" stroke-linecap="round"/>
    <path d="M64 405H371" stroke="#EAF4F0" stroke-opacity=".42" stroke-width="10" stroke-linecap="round"/>
  </g>
</svg>
