<svg width="1200" height="675" viewBox="0 0 1200 675" fill="none" xmlns="http://www.w3.org/2000/svg">
  <rect width="1200" height="675" fill="#060707"/>
  <defs>
    <radialGradient id="migration-red" cx="0" cy="0" r="1" gradientUnits="userSpaceOnUse" gradientTransform="translate(1012 514) rotate(-156) scale(704 406)">
      <stop stop-color="#F44040" stop-opacity=".62"/>
      <stop offset=".5" stop-color="#E51D2A" stop-opacity=".2"/>
      <stop offset="1" stop-color="#060707" stop-opacity="0"/>
    </radialGradient>
    <linearGradient id="migration-flow" x1="42" y1="121" x2="1154" y2="575" gradientUnits="userSpaceOnUse">
      <stop stop-color="#3B0B10"/>
      <stop offset=".52" stop-color="#80131B"/>
      <stop offset="1" stop-color="#EA2632"/>
    </linearGradient>
  </defs>
  <rect width="1200" height="675" fill="url(#migration-red)"/>
  <path d="M-22 514C127 426 221 373 377 416C535 460 605 594 753 546C900 499 934 332 1085 351C1131 357 1170 377 1224 406V675H-22V514Z" fill="url(#migration-flow)"/>
  <path d="M-40 420C121 342 258 342 410 398C565 455 626 537 757 496C921 445 956 304 1105 328C1150 335 1186 351 1230 382" stroke="#F5C2C5" stroke-opacity=".2" stroke-width="3"/>
  <g transform="translate(188 201)">
    <rect width="824" height="274" rx="34" fill="#090A0A" fill-opacity=".7" stroke="#482126" stroke-width="2"/>
    <text x="103" y="173" fill="#F9FAFB" font-family="Arial, Helvetica, sans-serif" font-size="140" font-weight="700" letter-spacing="-12">AI</text>
    <circle cx="242" cy="76" r="17" fill="#F44040"/>
    <path d="M388 136H552M507 72L571 136L507 200" stroke="#F9FAFB" stroke-width="13" stroke-linecap="round" stroke-linejoin="round"/>
    <g transform="translate(650 51)">
      <path d="M0 0V171" stroke="#F9FAFB" stroke-width="24" stroke-linecap="round"/>
      <path d="M12 8H78C132 8 163 38 163 84C163 130 132 160 78 160H12" stroke="#F9FAFB" stroke-width="24" stroke-linecap="round" stroke-linejoin="round"/>
    </g>
  </g>
</svg>
