<svg width="1200" height="675" viewBox="0 0 1200 675" fill="none" xmlns="http://www.w3.org/2000/svg">
  <rect width="1200" height="675" fill="#050606"/>
  <defs>
    <radialGradient id="r1" cx="0" cy="0" r="1" gradientUnits="userSpaceOnUse" gradientTransform="translate(982 160) rotate(142) scale(700 469)">
      <stop stop-color="#6AF0D1" stop-opacity=".44"/>
      <stop offset=".46" stop-color="#6AF0D1" stop-opacity=".13"/>
      <stop offset="1" stop-color="#050606" stop-opacity="0"/>
    </radialGradient>
    <radialGradient id="r2" cx="0" cy="0" r="1" gradientUnits="userSpaceOnUse" gradientTransform="translate(188 548) rotate(-35) scale(620 363)">
      <stop stop-color="#8E7DFF" stop-opacity=".28"/>
      <stop offset=".5" stop-color="#F44040" stop-opacity=".18"/>
      <stop offset="1" stop-color="#050606" stop-opacity="0"/>
    </radialGradient>
  </defs>
  <rect width="1200" height="675" fill="url(#r1)"/>
  <rect width="1200" height="675" fill="url(#r2)"/>
  <path d="M-26 501C95 407 235 434 365 363C514 281 566 174 719 225C846 267 887 395 1043 376C1118 367 1180 328 1226 300V675H-26V501Z" fill="#0A1715"/>
  <g transform="translate(122 104)">
    <rect width="409" height="345" rx="34" fill="#090C0B" stroke="#213633" stroke-width="2"/>
    <path d="M56 74H353" stroke="#DCE7E2" stroke-opacity=".15"/>
    <path d="M56 131H353" stroke="#DCE7E2" stroke-opacity=".15"/>
    <path d="M56 188H353" stroke="#DCE7E2" stroke-opacity=".15"/>
    <path d="M56 245H353" stroke="#DCE7E2" stroke-opacity=".15"/>
    <path d="M65 256C122 198 172 219 226 166C273 120 297 92 344 89" stroke="#6AF0D1" stroke-width="9" stroke-linecap="round"/>
    <circle cx="116" cy="211" r="14" fill="#6AF0D1"/>
    <circle cx="226" cy="166" r="14" fill="#F44040"/>
    <circle cx="344" cy="89" r="14" fill="#6AF0D1"/>
    <rect x="56" y="38" width="86" height="16" rx="8" fill="#DCE7E2"/>
    <path d="M65 287H202" stroke="#DCE7E2" stroke-opacity=".54" stroke-width="8" stroke-linecap="round"/>
  </g>
  <g transform="translate(641 112)">
    <circle cx="184" cy="173" r="126" fill="#0B1211" stroke="#243E39" stroke-width="2"/>
    <circle cx="184" cy="173" r="74" stroke="#6AF0D1" stroke-opacity=".3" stroke-width="2"/>
    <circle cx="184" cy="173" r="18" fill="#DCE7E2"/>
    <circle cx="83" cy="107" r="15" fill="#6AF0D1"/>
    <circle cx="294" cy="104" r="17" fill="#F44040"/>
    <circle cx="273" cy="255" r="14" fill="#6AF0D1"/>
    <circle cx="92" cy="254" r="12" fill="#8E7DFF"/>
    <path d="M96 116L169 164M200 163L279 111M199 186L263 246M169 187L103 246" stroke="#DCE7E2" stroke-opacity=".42" stroke-width="4" stroke-linecap="round"/>
    <path d="M5 348H364" stroke="#DCE7E2" stroke-opacity=".24" stroke-width="10" stroke-linecap="round"/>
  </g>
</svg>
