<svg width="12" height="12" viewBox="0 0 12 12" fill="none" xmlns="http://www.w3.org/2000/svg">
<path fill-rule="evenodd" clip-rule="evenodd" d="M3.235 8.50029L3.0515 7.90579H1.359L1.175 8.50029H0L1.699 3.60579H2.712L4.432 8.50029H3.235ZM2.209 5.00379L1.624 7.01779H2.78L2.209 5.00379ZM4.5625 3.60579H5.6775V8.50029H4.5625V3.60579ZM5.9775 7.50029C6.0275 7.25879 6.116 7.02729 6.2395 6.81529C6.3465 6.63579 6.4805 6.47529 6.637 6.33979C6.797 6.20329 6.966 6.07979 7.1435 5.96929C7.2835 5.88529 7.4135 5.80429 7.534 5.72779C7.645 5.65779 7.7505 5.57979 7.85 5.49379C7.936 5.41979 8.0085 5.33129 8.064 5.23129C8.1175 5.13179 8.144 5.01979 8.1425 4.90629C8.1425 4.71029 8.0905 4.56929 7.986 4.48329C7.87646 4.39519 7.73899 4.34925 7.5985 4.35379C7.43855 4.34925 7.28334 4.40842 7.167 4.51829C7.0515 4.62779 6.9935 4.81079 6.9935 5.06729H5.9C5.89791 4.8546 5.93591 4.64342 6.012 4.44479C6.085 4.25629 6.1975 4.08679 6.342 3.94829C6.495 3.80329 6.6755 3.69129 6.872 3.61979C7.1026 3.53663 7.3464 3.49614 7.5915 3.50029C7.8015 3.49929 8.0115 3.52879 8.2135 3.58779C8.4015 3.64129 8.5785 3.73129 8.7335 3.85329C8.886 3.97629 9.0085 4.13429 9.0905 4.31479C9.183 4.52429 9.228 4.75229 9.223 4.98229C9.2255 5.17729 9.181 5.36929 9.0935 5.54229C9.01 5.70629 8.9035 5.85729 8.7775 5.98929C8.6545 6.11879 8.519 6.23429 8.3735 6.33579C8.2285 6.43579 8.0965 6.52079 7.979 6.59079C7.816 6.70279 7.681 6.79929 7.5745 6.88079C7.48296 6.94896 7.39763 7.02509 7.3195 7.10829C7.26069 7.1706 7.21556 7.24451 7.187 7.32529C7.16088 7.40891 7.14839 7.4962 7.15 7.58379H9.189V8.50029H5.886C5.88008 8.16462 5.91076 7.82931 5.9775 7.50029ZM9.4 4.46529C9.59054 4.46926 9.78092 4.45165 9.9675 4.41279C10.0925 4.38829 10.2095 4.33479 10.3105 4.25579C10.392 4.18629 10.4505 4.09379 10.4805 3.98979C10.5145 3.86479 10.5305 3.73479 10.528 3.60479H11.5V8.50029H10.3785V5.26279H9.4V4.46529Z" fill="white"/>
</svg>
