<svg width="12" height="11" viewBox="0 0 12 11" fill="none" xmlns="http://www.w3.org/2000/svg">
<path d="M10.0226 3.91709C9.65574 3.76909 9.23537 3.6888 8.8402 3.6888C8.39464 3.6888 7.95067 3.78326 7.5429 3.96589C6.87221 4.26817 6.32433 4.79716 6.00158 5.45684C5.83312 5.80163 5.7481 6.17948 5.59224 6.53057C5.36552 7.05012 5.06482 7.49725 4.7153 7.83574C4.60351 7.94123 4.49017 8.03726 4.37209 8.12071C4.02729 8.36001 3.58804 8.53005 3.16295 8.53005C2.2561 8.53005 1.48623 7.76962 1.48623 6.85332C1.48623 6.26922 1.78694 5.75282 2.24193 5.45369C2.69221 5.15771 3.31567 5.09788 3.81003 5.30569C3.58804 4.92941 3.46208 4.49174 3.46208 4.02571C3.46208 3.91709 3.46839 3.8116 3.48412 3.70769C3.6148 2.64655 4.40514 1.78693 5.43165 1.55077C5.61428 1.50669 5.80478 1.48623 6.00158 1.48623C6.41091 1.48623 6.79507 1.58227 7.1367 1.75544C7.4138 1.89398 7.66255 2.08134 7.87038 2.30806C7.95854 2.40251 8.03726 2.50486 8.10968 2.61191L9.34086 1.78693C9.07164 1.38546 8.73315 1.03437 8.33955 0.754133C7.7271 0.31173 6.98557 0.0409342 6.18578 0.00472318C6.12438 0 6.06298 0 5.99999 0C5.43795 0 4.90266 0.11493 4.41617 0.324324C3.01338 0.927315 2.01995 2.30647 1.97901 3.91709C1.28943 4.19575 0.719497 4.71215 0.371555 5.36237C0.133823 5.80635 0 6.31331 0 6.85017C0 8.48281 1.23747 9.82577 2.82289 9.99265C2.8339 9.99265 2.8465 9.9958 2.85594 9.9958C2.89845 10.0005 2.93939 10.0037 2.9819 10.0053C2.98977 10.0053 2.99606 10.0053 3.00394 10.0053C3.05588 10.0084 3.10627 10.01 3.1598 10.01C3.21334 10.01 3.26371 10.01 3.31567 10.0053C3.32196 10.0053 3.32983 10.0053 3.33771 10.0053C3.38022 10.0053 3.42115 10.0005 3.46365 9.9958C3.47625 9.9958 3.48727 9.9958 3.49672 9.99265C4.03201 9.93912 4.54211 9.75807 5.00656 9.47154C5.41905 9.21806 5.79533 8.88113 6.12753 8.47967C6.24718 8.33483 6.36211 8.18368 6.46602 8.01995C6.94621 7.26581 7.01548 6.93518 7.24062 6.33535C7.52873 5.56548 8.1333 5.17345 8.83705 5.17345C9.15822 5.17345 9.49357 5.27421 9.75964 5.45054C10.2131 5.75125 10.5138 6.26607 10.5138 6.85017C10.5138 7.77434 9.76122 8.52689 8.83705 8.52689C8.54107 8.52689 8.2624 8.44974 8.01994 8.31277C7.84834 8.62608 7.65783 8.92522 7.44529 9.20546C7.3587 9.32039 7.26738 9.43218 7.17606 9.53923C7.65941 9.83993 8.22934 10.0115 8.83862 10.0115C10.5831 10.0115 12 8.59774 12 6.85017C12 5.52296 11.1813 4.38467 10.0226 3.91709Z" fill="white"/>
</svg>
