<svg width="12" height="12" viewBox="0 0 12 12" fill="none" xmlns="http://www.w3.org/2000/svg">
<path fill-rule="evenodd" clip-rule="evenodd" d="M4.9605 2.09813H3.164C2.80538 2.09813 2.46144 2.24056 2.20781 2.49409C1.95419 2.74763 1.81163 3.09151 1.8115 3.45013V9.13113C1.8115 9.48984 1.954 9.83385 2.20764 10.0875C2.46128 10.3411 2.80529 10.4836 3.164 10.4836H8.8455C9.20421 10.4836 9.54822 10.3411 9.80186 10.0875C10.0555 9.83385 10.198 9.48984 10.198 9.13113V6.75313L11.0095 6.19663V9.13163C11.0094 9.70552 10.7813 10.2559 10.3755 10.6617C9.96973 11.0675 9.41939 11.2955 8.8455 11.2956H3.164C2.59011 11.2955 2.03977 11.0675 1.63397 10.6617C1.22817 10.2559 1.00013 9.70552 1 9.13163V3.45063C0.999934 3.16641 1.05586 2.88496 1.16458 2.62235C1.2733 2.35975 1.43269 2.12113 1.63364 1.92013C1.8346 1.71913 2.07318 1.55969 2.33576 1.45091C2.59834 1.34212 2.87978 1.28613 3.164 1.28613H5.4365L4.9605 2.09813Z" fill="white"/>
<path fill-rule="evenodd" clip-rule="evenodd" d="M8.90999 0C8.98249 0 9.04399 0.052 9.05949 0.123C9.20149 0.78315 9.53141 1.38813 10.0095 1.865C10.4864 2.34334 11.0916 2.67345 11.752 2.8155C11.823 2.831 11.875 2.8925 11.875 2.9655C11.8746 3.00064 11.8621 3.03458 11.8398 3.06169C11.8174 3.08879 11.7864 3.10743 11.752 3.1145C11.0918 3.25664 10.4868 3.58674 10.01 4.065C9.52541 4.54806 9.19304 5.16255 9.05399 5.8325C9.04724 5.86582 9.02926 5.89582 9.00305 5.91748C8.97684 5.93914 8.94399 5.95115 8.90999 5.9515C8.87599 5.95115 8.84315 5.93914 8.81694 5.91748C8.79073 5.89582 8.77274 5.86582 8.76599 5.8325C8.62694 5.16255 8.29458 4.54806 7.80999 4.065C7.32694 3.58042 6.71244 3.24805 6.04249 3.109C6.00917 3.10225 5.97917 3.08426 5.95751 3.05806C5.93585 3.03185 5.92385 2.999 5.92349 2.965C5.92349 2.895 5.97349 2.835 6.04249 2.821C6.71244 2.68195 7.32694 2.34958 7.80999 1.865C8.28823 1.38818 8.61833 0.783197 8.76049 0.123C8.76758 0.0884901 8.78629 0.0574547 8.8135 0.0350709C8.8407 0.0126872 8.87476 0.000308572 8.90999 0Z" fill="white"/>
</svg>
