<svg width="12" height="12" viewBox="0 0 12 12" fill="none" xmlns="http://www.w3.org/2000/svg">
<g clip-path="url(#clip0_2364_198)">
<path fill-rule="evenodd" clip-rule="evenodd" d="M2.29313 9.6637C1.62411 8.9947 1.62411 7.91009 2.29313 7.24106L2.6442 6.88999L2.99647 6.53772C3.3113 6.22289 3.3113 5.71238 2.99647 5.39753L2.6442 5.04528L2.29313 4.69414C1.62411 4.02518 1.62411 2.94053 2.29313 2.2715C2.96208 1.60254 4.04674 1.60254 4.71576 2.2715L5.0669 2.62265L5.4191 2.9749C5.73394 3.28975 6.24439 3.28975 6.5593 2.9749L6.91154 2.62265L7.26269 2.27156C7.93164 1.60254 9.01625 1.60254 9.68525 2.27156C10.3543 2.94058 10.3543 4.02518 9.68525 4.69414L9.33418 5.04528L8.98193 5.39753C8.66707 5.71243 8.66707 6.22289 8.98193 6.53772L9.33418 6.88999L9.68532 7.24106C10.3543 7.91009 10.3543 8.99474 9.68532 9.6637C9.0163 10.3327 7.93164 10.3327 7.26269 9.6637L6.91154 9.31262L6.5593 8.96038C6.24444 8.64552 5.73398 8.64552 5.41915 8.96038L5.0669 9.31262L4.71576 9.6637C4.04674 10.3327 2.96213 10.3327 2.29313 9.6637ZM6.00002 10.9711C6.93269 11.9037 8.25886 12.2019 9.44393 11.8673C10.0031 11.7094 10.531 11.4112 10.9711 10.9711C11.4112 10.531 11.7094 10.0031 11.8673 9.44388C12.2019 8.25878 11.9037 6.93264 10.9711 6.00002C11.9038 5.06736 12.2019 3.74119 11.8673 2.55612C11.7094 1.99692 11.4112 1.46898 10.9711 1.02892C10.531 0.588845 10.0031 0.290592 9.44388 0.132669C8.25878 -0.201942 6.93269 0.0962574 6.00002 1.02892C5.06741 0.0962574 3.74119 -0.201942 2.5561 0.132669C1.99692 0.290592 1.46898 0.588845 1.02891 1.02892C0.588838 1.46898 0.290638 1.99692 0.13266 2.55605C-0.201951 3.74114 0.0963024 5.06731 1.02891 5.99998C0.0963024 6.93264 -0.201951 8.25878 0.132713 9.44388C0.290638 10.0031 0.588838 10.531 1.02891 10.9711C1.46898 11.4112 1.99692 11.7094 2.5561 11.8673C3.74119 12.2019 5.06736 11.9037 6.00002 10.9711Z" fill="url(#paint0_linear_2364_198)"/>
</g>
<defs>
<linearGradient id="paint0_linear_2364_198" x1="1.56484" y1="1.445" x2="10.8105" y2="9.78797" gradientUnits="userSpaceOnUse">
<stop stop-color="#FF0088"/>
<stop offset="0.5" stop-color="#A94EFF"/>
<stop offset="1" stop-color="#07C9FF"/>
</linearGradient>
<clipPath id="clip0_2364_198">
<rect width="12" height="12" fill="white"/>
</clipPath>
</defs>
</svg>
