<svg width="12" height="12" viewBox="0 0 12 12" fill="none" xmlns="http://www.w3.org/2000/svg">
<path fill-rule="evenodd" clip-rule="evenodd" d="M10 1.15332V9.55182C10 9.55182 12 9.43082 12 7.14432V1.15332H10ZM2 11.0008V2.60232C2 2.60232 0 2.72332 0 5.01032V11.0003L2 11.0008Z" fill="white"/>
<path fill-rule="evenodd" clip-rule="evenodd" d="M8.15902 8.25484L5.64302 2.46984C5.23102 1.53384 4.55902 1.00684 3.60452 1.00684C2.65052 1.00684 1.99902 1.77684 1.99902 2.60184C1.99902 2.60184 3.20152 2.43534 3.83902 3.89834L6.35702 9.68334C6.76752 10.6183 7.44102 11.1463 8.39452 11.1463C9.34702 11.1463 10 10.3758 10 9.55134C10 9.55134 8.79702 9.71834 8.15902 8.25484Z" fill="white"/>
</svg>
