<svg width="721" height="717" viewBox="0 0 721 717" fill="none" xmlns="http://www.w3.org/2000/svg">
<path d="M276.536 262.443V193.947C276.536 188.179 278.682 183.851 283.681 180.971L420.167 101.66C438.746 90.8459 460.898 85.8015 483.761 85.8015C569.507 85.8015 623.818 152.856 623.818 224.232C623.818 229.278 623.818 235.046 623.102 240.815L481.616 157.178C473.043 152.133 464.465 152.133 455.891 157.178L276.536 262.443ZM595.232 529.215V365.544C595.232 355.448 590.942 348.238 582.37 343.192L403.014 237.927L461.608 204.038C466.609 201.157 470.898 201.157 475.899 204.038L612.384 283.348C651.688 306.423 678.123 355.448 678.123 403.031C678.123 457.825 645.971 508.298 595.232 529.209V529.215ZM234.377 385.016L175.783 350.41C170.783 347.529 168.637 343.2 168.637 337.431V178.813C168.637 101.668 227.231 43.2629 306.55 43.2629C336.566 43.2629 364.428 53.3592 388.014 71.3835L247.245 153.58C238.673 158.625 234.384 165.834 234.384 175.932V385.022L234.377 385.016ZM360.499 458.556L276.536 410.971V310.035L360.499 262.45L444.457 310.035V410.971L360.499 458.556ZM414.449 677.743C384.434 677.743 356.572 667.647 332.986 649.624L473.753 567.426C482.327 562.381 486.616 555.172 486.616 545.074V335.984L545.928 370.59C550.927 373.471 553.073 377.799 553.073 383.569V542.187C553.073 619.332 493.761 677.737 414.449 677.737V677.743ZM245.095 516.961L108.609 437.652C69.3048 414.576 42.8693 365.552 42.8693 317.967C42.8693 262.45 75.7399 212.702 126.471 191.791V356.178C126.471 366.275 130.761 373.484 139.333 378.53L317.978 483.071L259.384 516.961C254.385 519.841 250.094 519.841 245.095 516.961ZM237.239 635.205C156.493 635.205 97.182 573.919 97.182 498.214C97.182 492.445 97.8983 486.676 98.6087 480.908L239.378 563.104C247.95 568.15 256.529 568.15 265.101 563.104L444.457 458.563V527.059C444.457 532.827 442.312 537.155 437.311 540.036L300.827 619.345C282.247 630.16 260.095 635.205 237.232 635.205H237.239ZM414.449 721C500.912 721 573.08 658.996 589.521 576.799C669.551 555.888 721 480.183 721 403.039C721 352.566 699.565 303.542 660.978 268.212C664.55 253.069 666.695 237.927 666.695 222.792C666.695 119.691 583.804 42.5386 488.05 42.5386C468.761 42.5386 450.181 45.4192 431.602 51.9122C399.441 20.1866 355.138 0 306.55 0C220.088 0 147.92 62.0025 131.479 144.199C51.4488 165.11 0 240.815 0 317.96C0 368.433 21.4346 417.457 60.0224 452.787C56.4497 467.929 54.3052 483.071 54.3052 498.208C54.3052 601.309 137.196 678.46 232.949 678.46C252.239 678.46 270.819 675.579 289.398 669.086C321.551 700.812 365.855 721 414.449 721Z" fill="black"/>
</svg>
