<svg viewBox="0 0 17 19" fill="none" xmlns="http://www.w3.org/2000/svg" role="img" aria-labelledby="title"><title id="title">HoneyHive</title><path d="M10.5618 1.49793L10.7188 1.40725L10.5618 1.31765L8.26826 0L0 4.74945V7.56613L10.5618 1.49793Z" fill="#ffffff"/><path d="M4.19726 10.4287L0 12.84V14.2505L1.22525 14.9542L6.64886 11.8381L4.19726 10.4287Z" fill="#ffffff"/><path d="M14.0838 3.51921L14.2386 3.42961L14.0838 3.34112L11.787 2.02128L0.675206 8.40523L0 8.79419V11.6109L14.0838 3.51921Z" fill="#ffffff"/><path d="M10.5618 13.6365L13.0145 12.2271V5.36239L10.5618 6.77182V10.8187L10.1709 11.0438L2.2946 15.5682L4.74621 16.9765L10.1698 13.8605L10.5618 13.6365Z" fill="#ffffff"/><path d="M15.308 4.04474L14.0838 4.74836V12.8411L5.81556 17.5917L8.26826 19L13.6908 15.884H13.6919L16.5354 14.2505V4.74945L15.308 4.04474Z" fill="#ffffff"/></svg>
