<svg width="16" height="16" viewBox="0 0 16 16" fill="none" xmlns="http://www.w3.org/2000/svg">
<g clip-path="url(#clip0_2579_59)">
<path fill-rule="evenodd" clip-rule="evenodd" d="M13.6132 12.8733H15.8919V0.666016L11.3712 3.45068L6.85254 0.710016L6.86987 5.95535H9.14854L9.13121 4.47402L11.4112 5.83068L13.6132 4.47402V12.8733Z" fill="white"/>
<path fill-rule="evenodd" clip-rule="evenodd" d="M2.04262 7.15573C3.89862 5.77573 6.67062 5.55973 8.66996 7.76039L8.67662 7.76706L8.68329 7.77573L14.79 15.9357H12.23L7.10329 9.12439C6.01662 7.96639 4.50929 7.99839 3.42662 8.69906C2.34396 9.39906 1.71796 10.7477 2.39462 12.2191C3.39062 14.3831 6.49596 14.4024 7.54462 12.2911L7.56596 12.2484L8.91262 14.0011C6.92596 16.6464 2.69329 16.6184 0.802623 13.6331C-0.794044 11.1131 0.185289 8.53639 2.04262 7.15573Z" fill="white"/>
</g>
<defs>
<clipPath id="clip0_2579_59">
<rect width="16" height="16" fill="white"/>
</clipPath>
</defs>
</svg>
