<svg width="12" height="12" viewBox="0 0 12 12" fill="none" xmlns="http://www.w3.org/2000/svg">
<g clip-path="url(#clip0_2594_5)">
<path fill-rule="evenodd" clip-rule="evenodd" d="M0.253652 9.94177C0.21459 9.94179 0.176051 9.93279 0.141043 9.91546C0.106035 9.89813 0.0755053 9.87294 0.0518364 9.84187C0.0281676 9.81079 0.0120001 9.77467 0.0045958 9.73632C-0.00280848 9.69796 -0.00124921 9.65842 0.00915191 9.62077L2.14515 1.87277C2.16633 1.79575 2.20543 1.72483 2.25925 1.6658C2.31307 1.60678 2.38009 1.56132 2.45483 1.53314C2.52957 1.50496 2.60992 1.49485 2.68931 1.50365C2.76871 1.51245 2.84489 1.5399 2.91165 1.58377L5.72265 3.42727C5.80512 3.48128 5.90157 3.51005 6.00015 3.51005C6.09874 3.51005 6.19518 3.48128 6.27765 3.42727L9.10015 1.58277C9.16696 1.53902 9.24317 1.51168 9.32256 1.503C9.40195 1.49432 9.48227 1.50453 9.55696 1.53281C9.63165 1.56109 9.69859 1.60662 9.75233 1.66571C9.80606 1.72479 9.84507 1.79574 9.86615 1.87277L11.9912 9.62127C12.0015 9.6589 12.003 9.69842 11.9955 9.73672C11.988 9.77503 11.9718 9.81108 11.9481 9.84207C11.9243 9.87306 11.8938 9.89814 11.8587 9.91535C11.8237 9.93255 11.7852 9.94143 11.7462 9.94127H9.03515C9.52872 9.36941 9.80023 8.63916 9.80015 7.88377V7.79527C9.80011 7.05614 9.53123 6.34226 9.04365 5.78677L8.69515 4.03927C8.68807 4.00277 8.67181 3.96868 8.64791 3.94021C8.62401 3.91174 8.59326 3.88981 8.55855 3.87651C8.52383 3.86321 8.48631 3.85896 8.4495 3.86416C8.41269 3.86937 8.37781 3.88386 8.34815 3.90627L7.03515 4.89077C6.989 4.92539 6.93547 4.94886 6.87875 4.95936C6.82202 4.96986 6.76363 4.96709 6.70815 4.95127C6.24525 4.819 5.75456 4.819 5.29165 4.95127C5.23625 4.96708 5.17795 4.96985 5.1213 4.95935C5.06465 4.94886 5.01121 4.92538 4.96515 4.89077L3.65115 3.90527C3.62154 3.88314 3.58677 3.86893 3.55014 3.86398C3.51351 3.85903 3.47622 3.86349 3.44179 3.87695C3.40736 3.89041 3.37693 3.91243 3.35337 3.94091C3.32982 3.9694 3.31391 4.00342 3.30715 4.03977L2.96965 5.86577C2.47639 6.36718 2.20001 7.0424 2.20015 7.74577V7.91227C2.20015 8.64927 2.46365 9.36227 2.94415 9.92227L2.96015 9.94127L0.253652 9.94177Z" fill="#29E154"/>
<path d="M4.60742 8.42144H5.36742V6.64844H4.72242L4.60742 8.42144ZM7.39392 8.42144H6.63392V6.64844H7.27892L7.39392 8.42144Z" fill="white"/>
</g>
<defs>
<clipPath id="clip0_2594_5">
<rect width="12" height="12" fill="white"/>
</clipPath>
</defs>
</svg>
