<svg width="12" height="12" viewBox="0 0 12 12" fill="none" xmlns="http://www.w3.org/2000/svg">
<g clip-path="url(#clip0_2639_22)">
<mask id="mask0_2639_22" style="mask-type:alpha" maskUnits="userSpaceOnUse" x="0" y="0" width="12" height="12">
<path d="M12 0H0V12H12V0Z" fill="url(#paint0_linear_2639_22)"/>
<path d="M12 0H0V12H12V0Z" fill="url(#paint1_linear_2639_22)"/>
<path d="M12 0H0V12H12V0Z" fill="url(#paint2_linear_2639_22)"/>
</mask>
<g mask="url(#mask0_2639_22)">
<path d="M3.37116 11.3931C2.25767 10.8499 1.3532 9.99175 0.75475 8.91165C0.170131 7.8562 -0.0824469 6.6656 0.023609 5.4685C0.0476206 5.20025 0.283956 5.0022 0.552335 5.0259C0.82021 5.04975 1.01858 5.2863 0.99491 5.55475C0.906045 6.55745 1.11798 7.555 1.60784 8.43945C2.02957 9.201 2.63362 9.83075 3.37091 10.2822L5.6641 5.5794C4.76649 5.28045 4.01886 5.4106 3.95157 5.42365C3.9417 5.42595 3.93216 5.42755 3.92245 5.4295C3.69895 5.4669 3.48276 5.34475 3.39573 5.14165C3.27562 4.91741 2.91503 4.3693 2.4786 4.15639C2.04216 3.94348 1.36955 4.01216 1.15302 4.05924C0.970455 4.09911 0.780455 4.03104 0.66514 3.88424C0.549825 3.73744 0.527725 3.53722 0.609575 3.36936C2.05874 0.395735 5.6576 -0.843615 8.63075 0.60681C11.6039 2.05724 12.8419 5.65335 11.3953 8.6261C11.3938 8.62915 11.3924 8.6322 11.3907 8.63555C9.939 11.6058 6.34295 12.8429 3.37116 11.3931ZM6.54 6.0067L4.24697 10.7092C6.5613 11.5737 9.19485 10.6132 10.3991 8.4301C10.2299 8.1681 9.93285 7.7925 9.58905 7.6248C9.1449 7.4081 8.4941 7.47905 8.2705 7.52605C8.2337 7.5348 8.19705 7.539 8.16015 7.5394C8.0941 7.5397 8.02705 7.5266 7.9627 7.49855C7.896 7.46935 7.8357 7.42535 7.787 7.3686C7.7592 7.33585 7.7362 7.3 7.7177 7.2618C7.70335 7.2331 7.34805 6.5432 6.54 6.0067ZM2.90526 3.27968C3.27868 3.46185 3.58305 3.75137 3.8103 4.02454C4.51304 2.94954 5.46675 2.13758 6.20345 1.61407C6.4772 1.41967 6.76065 1.23792 7.03365 1.08109C5.1161 0.678459 3.10641 1.43841 1.94115 3.03842C2.24958 3.05953 2.58998 3.12545 2.90577 3.27951L2.90526 3.27968ZM9.24055 2.15815C9.28505 2.46985 9.31655 2.80483 9.3318 3.14063C9.37285 4.04109 9.3208 5.2883 8.90955 6.50135C9.25255 6.51055 9.65145 6.5712 10.0164 6.74925C10.3423 6.90825 10.6155 7.14875 10.8306 7.38885C11.3795 5.4819 10.7417 3.42414 9.24055 2.15815ZM6.54335 4.8876C7.2177 5.2166 7.70515 5.65425 8.03555 6.0316C8.57305 4.28512 8.33875 2.33072 8.1431 1.6069C7.4524 1.89833 5.76805 2.91673 4.7234 4.41575C5.2246 4.44369 5.86935 4.55878 6.54335 4.8876Z" fill="white"/>
</g>
</g>
<defs>
<linearGradient id="paint0_linear_2639_22" x1="3.375" y1="10.275" x2="2.8125" y2="10.275" gradientUnits="userSpaceOnUse">
<stop/>
<stop offset="1" stop-opacity="0"/>
</linearGradient>
<linearGradient id="paint1_linear_2639_22" x1="3.4125" y1="5.925" x2="3.6" y2="5.56875" gradientUnits="userSpaceOnUse">
<stop stop-opacity="0"/>
<stop offset="1"/>
</linearGradient>
<linearGradient id="paint2_linear_2639_22" x1="0.4875" y1="10.2563" x2="0.4875" y2="5.45625" gradientUnits="userSpaceOnUse">
<stop/>
<stop offset="0.105" stop-opacity="0.9"/>
<stop offset="0.903766" stop-opacity="0.04"/>
<stop offset="1" stop-opacity="0"/>
</linearGradient>
<clipPath id="clip0_2639_22">
<rect width="12" height="12" fill="white"/>
</clipPath>
</defs>
</svg>
