<svg width="400" height="400" viewBox="0 0 400 400" fill="none" xmlns="http://www.w3.org/2000/svg">
<g transform="translate(0 75) scale(5.2)" fill="black">
<path d="M125.783 0.0888733C111.29 1.26949 54.3226 8.32567 14.8218 47.9995H0.163574L1.80139 46.3687C10.0676 38.39 46.6444 4.57517 125.783 0.0449219V0.0888733Z"/>
<path d="M76.1727 47.9996H64.6837L42.0474 31.5368C44.1333 30.2262 46.2327 28.9779 48.3386 27.7891L76.1727 47.9996Z"/>
<path d="M57.8119 47.9995H46.3282L42.8445 45.4679H23.395C24.7642 44.2531 26.1506 43.0739 27.5512 41.9292H37.9696L32.5782 38.011C34.5054 36.5784 36.4537 35.2062 38.4176 33.8916L57.8119 47.9995Z"/>
<path d="M16.0137 17.6441L24.8692 24.074C22.6653 25.3706 20.6024 26.6539 18.6771 27.9093L4.54004 17.6387L16.0137 17.6441Z"/>
</g>
</svg>
