<svg width="12" height="12" viewBox="0 0 12 12" fill="none" xmlns="http://www.w3.org/2000/svg">
<path opacity="0.2" fill-rule="evenodd" clip-rule="evenodd" d="M8.6925 5.615C9.30449 5.615 9.89141 5.37189 10.3241 4.93915C10.7569 4.50641 11 3.91949 11 3.3075C11 2.69551 10.7569 2.10859 10.3241 1.67585C9.89141 1.24311 9.30449 1 8.6925 1C8.08051 1 7.49359 1.24311 7.06085 1.67585C6.62811 2.10859 6.385 2.69551 6.385 3.3075C6.385 3.91949 6.62811 4.50641 7.06085 4.93915C7.49359 5.37189 8.08051 5.615 8.6925 5.615ZM8.6925 11C9.30449 11 9.89141 10.7569 10.3241 10.3241C10.7569 9.89141 11 9.30449 11 8.6925C11 8.08051 10.7569 7.49359 10.3241 7.06085C9.89141 6.62811 9.30449 6.385 8.6925 6.385C8.08051 6.385 7.49359 6.62811 7.06085 7.06085C6.62811 7.49359 6.385 8.08051 6.385 8.6925C6.385 9.30449 6.62811 9.89141 7.06085 10.3241C7.49359 10.7569 8.08051 11 8.6925 11ZM3.3075 11C3.91949 11 4.50641 10.7569 4.93915 10.3241C5.37189 9.89141 5.615 9.30449 5.615 8.6925C5.615 8.08051 5.37189 7.49359 4.93915 7.06085C4.50641 6.62811 3.91949 6.385 3.3075 6.385C2.69551 6.385 2.10859 6.62811 1.67585 7.06085C1.24311 7.49359 1 8.08051 1 8.6925C1 9.30449 1.24311 9.89141 1.67585 10.3241C2.10859 10.7569 2.69551 11 3.3075 11Z" fill="white"/>
<path d="M3.3075 5.615C4.5819 5.615 5.615 4.5819 5.615 3.3075C5.615 2.0331 4.5819 1 3.3075 1C2.0331 1 1 2.0331 1 3.3075C1 4.5819 2.0331 5.615 3.3075 5.615Z" fill="#0F6FFF"/>
</svg>
