<svg viewBox="0 0 84.0028 24.0014" fill="none" xmlns="http://www.w3.org/2000/svg">
  <g fill="black">
    <path d="M26 15.485C26 20.0678 29.7313 23.7963 34.3178 23.7963H42.6001V7.17383H34.3178C29.7313 7.17383 26 10.9022 26 15.485ZM28.4335 15.485C28.4335 12.1531 31.1041 9.44143 34.387 9.44143C37.6699 9.44143 40.3404 12.1531 40.3404 15.485C40.3404 18.817 37.6699 21.5287 34.387 21.5287C31.1041 21.5287 28.4335 18.817 28.4335 15.485Z"/>
    <path d="M51.4651 5.28642C51.4948 3.49654 52.7727 2.19822 54.5011 2.19822H57.0196V0H54.5366C51.4118 0 49.1423 2.34886 49.1423 5.58771C49.1423 6.23786 49.1521 6.83053 49.158 7.17344H45.885V9.44103H49.1363V23.7959H51.4651V9.43903H56.0082V7.17145H51.4631C51.4592 6.71952 51.4552 5.85134 51.4651 5.28444V5.28642Z"/>
    <path d="M73.4668 15.2682C73.3601 10.4535 69.9943 6.82422 65.6368 6.82422H65.5677C63.2823 6.82422 61.1826 7.67655 59.6517 9.22267C58.1091 10.7826 57.2676 12.9451 57.2854 15.3118C57.3229 20.4654 61.1332 23.7955 66.9918 23.7955H70.3004V21.5279H67.0965C62.8833 21.5279 60.2404 19.629 59.7901 16.3029H73.4687V15.2682H73.4668ZM59.8355 13.9659C60.351 11.0343 62.6167 9.08983 65.5677 9.08983H65.6368C68.2204 9.08983 70.3478 11.078 70.9107 13.9659H59.8355Z"/>
    <path d="M76.4375 7.17383V23.7963H78.7664V9.43942H84.0028V7.17383H76.4375Z"/>
    <path d="M17.7458 21.6347L13.8742 10.0014C13.8585 9.95184 13.8407 9.9043 13.8229 9.85666L13.7498 9.66439H10.8304L10.7593 9.85666C10.7414 9.90229 10.7257 9.94983 10.7079 9.99939L6.86996 21.5614L2.52834 7.17285H0L5.01124 23.7239C5.01717 23.7417 5.02112 23.7576 5.02704 23.7735L5.10013 24.0014H8.53314L12.2743 12.7506L16.0154 24.0014H19.4484L24.5486 7.17285H22.0894L17.7458 21.6347Z"/>
  </g>
</svg>
